<?xml version="1.0" encoding="UTF-8"?>
<svg xmlns="http://www.w3.org/2000/svg" viewBox="0 0 153.14 469.26">
  <defs>
    <style>
      .cls-1 {
        fill: #f5a833;
      }

      .cls-1, .cls-2, .cls-3, .cls-4, .cls-5, .cls-6, .cls-7, .cls-8, .cls-9, .cls-10, .cls-11, .cls-12, .cls-13, .cls-14, .cls-15, .cls-16, .cls-17, .cls-18, .cls-19, .cls-20 {
        stroke-width: 0px;
      }

      .cls-2, .cls-14 {
        fill: #7b6a58;
      }

      .cls-3 {
        fill: #6aa1bd;
      }

      .cls-4 {
        fill: #458aad;
      }

      .cls-21 {
        isolation: isolate;
      }

      .cls-5 {
        fill: #3d7a99;
      }

      .cls-6 {
        fill: #336680;
      }

      .cls-7 {
        fill: #f0ae2b;
      }

      .cls-8, .cls-13 {
        fill: #d6a373;
      }

      .cls-9 {
        fill: #f39200;
      }

      .cls-10 {
        fill: #f7c443;
      }

      .cls-11 {
        fill: #ffd66e;
      }

      .cls-12 {
        fill: #8fb9ce;
      }

      .cls-13 {
        mix-blend-mode: multiply;
      }

      .cls-14 {
        mix-blend-mode: screen;
      }

      .cls-15 {
        fill: #17b6f2;
      }

      .cls-16 {
        fill: #f8be66;
      }

      .cls-17 {
        fill: #ffcdc2;
      }

      .cls-18 {
        fill: #de9322;
      }

      .cls-19 {
        fill: #575756;
      }

      .cls-20 {
        fill: #f2b982;
      }
    </style>
  </defs>
  <g class="cls-21">
    <g id="Layer_2" data-name="Layer 2">
      <g id="_Ñëîé_1" data-name="Ñëîé 1">
        <g>
          <g>
            <path class="cls-17" d="m8.84,126.21c-.56-7.21,1.1-13.22,3.71-13.42,2.6-.2,5.16,5.48,5.72,12.69.56,7.21-1.1,13.22-3.71,13.42s-5.16-5.48-5.72-12.69Z"/>
            <path class="cls-17" d="m5.27,103.66c1.23-13.1,5.75-17.21,10.8-16.56,5.04.65,8.7,5.82,7.47,18.93-1.23,13.1-6.31,23.2-11.36,22.54-5.04-.65-8.14-11.81-6.91-24.91Z"/>
            <g>
              <path class="cls-15" d="m55.53,38.48c-1.05,3.06-4.72,4.67-8.2,3.61-3.48-1.07-5.44-4.41-4.39-7.46,1.05-3.05,4.72-4.67,8.2-3.61,3.48,1.07,5.44,4.41,4.39,7.46Z"/>
              <path class="cls-2" d="m61.08,13.09c-1.87,5.44-7.34,8.63-12.21,7.14-4.87-1.49-7.4-4.34-6.32-9.97C43.82,3.63,52.23-.6,57.52.07c5.06.64,5.43,7.58,3.56,13.02Z"/>
              <path class="cls-2" d="m49.33,9.99s-6.07-.97-6.89.91c-1.27,9.09,2.5,11.96.43,23.97,0,0,11.55,1.82,12.92,1.46-1.26-17.24,1.23-14.37,5.47-23.77,4.32-9.58-11.93-2.58-11.93-2.58Z"/>
            </g>
            <g>
              <path class="cls-2" d="m98.98,149.28c.49,2.99,3.82,5.09,7.43,4.69,3.61-.4,6.14-3.15,5.64-6.14-.49-2.98-3.81-5.09-7.42-4.68-3.61.4-6.14,3.16-5.65,6.14Z"/>
              <path class="cls-2" d="m110.15,124.08s6.15.12,6.62,1.99c-.37,8.58-4.59,10.59-4.68,22,0,0-11.69-.24-12.98-.8,4.31-15.67,1.34-13.44-1.16-22.79-2.55-9.54,12.2-.39,12.2-.39Z"/>
            </g>
            <path class="cls-6" d="m38.93,37.1c1.35-5.96,7.08-13.44,11.2-12.51,4.13.94,7.19,9.92,5.84,15.88-1.35,5.96-5.79,10.03-9.92,9.09-4.13-.94-8.47-6.51-7.13-12.47Z"/>
            <path class="cls-6" d="m117.02,131.42c-.95,7.49-6.66,17.5-11.37,16.98-4.7-.52-8.96-11.06-8.01-18.55.95-7.49,5.54-13.14,10.25-12.61,4.7.52,10.08,6.69,9.13,14.18Z"/>
            <path class="cls-4" d="m37.6,67.9c-2.74-19.01,2.8-34.9,12.37-35.48,9.57-.58,19.55,14.36,22.29,33.37,2.74,19.01-2.8,34.9-12.37,35.48-9.57.58-19.55-14.36-22.29-33.37Z"/>
            <path class="cls-5" d="m87.96,98.48c-1.37-17.71,4.72-32.42,13.59-32.85,8.87-.43,17.17,13.58,18.54,31.29,1.37,17.71-4.72,32.42-13.59,32.85-8.87.43-17.17-13.58-18.54-31.29Z"/>
            <path class="cls-1" d="m32.89,100.28c-2.87,12.88-9.91,16.26-17.33,14.82-7.43-1.44-12.43-7.17-9.56-20.05,2.87-12.88,11.22-22.14,18.65-20.7,7.43,1.44,11.12,13.06,8.25,25.93Z"/>
            <path class="cls-17" d="m147.6,127.21c.56-7.21-1.1-13.22-3.71-13.42-2.6-.2-5.16,5.48-5.72,12.69-.56,7.21,1.1,13.22,3.71,13.42s5.16-5.48,5.72-12.69Z"/>
            <path class="cls-17" d="m151.17,104.66c-1.23-13.1-5.75-17.21-10.8-16.56-5.04.65-8.7,5.82-7.47,18.93,1.23,13.1,6.31,23.2,11.36,22.54,5.04-.65,8.14-11.81,6.91-24.91Z"/>
            <path class="cls-1" d="m123.55,101.28c2.87,12.88,9.91,16.26,17.33,14.82,7.43-1.44,12.43-7.17,9.56-20.05-2.87-12.88-11.22-22.14-18.65-20.7-7.43,1.44-11.12,13.06-8.25,25.93Z"/>
            <path class="cls-1" d="m8.06,87.57c0,12.6,31.04,29.72,69.32,29.72s69.32-17.12,69.32-29.72c0-7.1-9.87-13.45-25.33-17.63-5.11-8.23-22.84-14.31-43.99-14.31s-38.88,6.08-43.99,14.31c-15.47,4.18-25.33,10.53-25.33,17.63Z"/>
            <ellipse class="cls-16" cx="78.8" cy="88.54" rx="56.32" ry="21.28"/>
            <path class="cls-17" d="m72.16,69.28c0-4.97,2.34-9.01,5.23-9.01s5.23,4.03,5.23,9.01-2.34,9.01-5.23,9.01-5.23-4.03-5.23-9.01Z"/>
            <path class="cls-19" d="m83.06,68.68c.22-.38,4.56.03,8.48,2.31,3.92,2.29,5.92,5.59,5.7,5.97-.22.38-2.58-2.32-6.5-4.6s-7.9-3.3-7.68-3.68Z"/>
            <circle class="cls-17" cx="77.39" cy="93.01" r="28.44" transform="translate(-30.92 146.96) rotate(-76.72)"/>
            <path class="cls-3" d="m77.78,109.82c-13.22,0-25.36-1.73-34.97-4.61v7.17c10.27,3,22.22,4.9,34.97,4.9s24.7-1.9,34.97-4.9v-7.17c-9.61,2.88-21.75,4.61-34.97,4.61Z"/>
            <path class="cls-3" d="m77.78,67.25c13.22,0,25.36,1.73,34.97,4.61v-9.3c-8.33-4.23-20.89-6.93-34.97-6.93s-26.64,2.7-34.97,6.93v9.3c9.61-2.88,21.75-4.61,34.97-4.61Z"/>
            <path class="cls-12" d="m112.75,105.21v-33.35c-9.61-2.88-21.75-4.61-34.97-4.61s-25.36,1.73-34.97,4.61v33.35c9.61,2.88,21.75,4.61,34.97,4.61s25.36-1.73,34.97-4.61Z"/>
            <g>
              <path class="cls-7" d="m107.5,56.06c.21,16.08-13.2,54.64-29.94,54.86-16.75.22-30.5-37.98-30.71-54.06-.21-16.08,13.2-29.3,29.94-29.51,16.75-.22,30.5,12.64,30.71,28.72Z"/>
              <path class="cls-18" d="m108.67,90.38c.22,16.84-13.6,30.67-30.87,30.9-17.27.23-31.45-13.24-31.67-30.08-.22-16.84,13.6-30.67,30.87-30.9,17.27-.23,31.45,13.24,31.67,30.08Z"/>
              <path class="cls-7" d="m103.39,89.92c.19,14.54-11.3,26.49-25.66,26.67-14.36.19-26.16-11.45-26.35-25.99-.19-14.54,11.3-26.49,25.66-26.67,14.36-.19,26.16,11.45,26.35,25.99Z"/>
              <path class="cls-10" d="m95.92,90.65c.15,11.09-8.03,20.19-18.25,20.32-10.23.13-18.64-8.75-18.78-19.84-.15-11.09,8.03-20.19,18.25-20.32,10.23-.13,18.63,8.75,18.78,19.84Z"/>
              <path class="cls-11" d="m88.69,80.99c.26,19.58-4.65,35.52-10.96,35.6-6.31.08-11.63-15.72-11.89-35.3-.26-19.58,4.88-17.97,11.19-18.05,6.31-.08,11.4-1.83,11.66,17.75Z"/>
            </g>
          </g>
          <g>
            <path class="cls-17" d="m153.12,363.84c.29,17.13-3.88,18.7-10.08,18.81-6.2.11-10.97-3.24-11.26-20.36-.29-17.13,3.88-39.5,10.08-39.6,6.2-.11,10.97,24.03,11.26,41.16Z"/>
            <path class="cls-9" d="m123.65,384.59c6.53-15.84,14.52-19.1,21.52-16.22,7,2.89,10.36,10.83,3.84,26.67-6.53,15.84-17.5,26.33-24.5,23.45-7-2.89-7.38-18.06-.85-33.9Z"/>
            <g>
              <path class="cls-15" d="m54.25,353.72c-1.05,3.06-4.72,4.67-8.2,3.61-3.48-1.07-5.44-4.41-4.39-7.46,1.05-3.05,4.72-4.67,8.2-3.61,3.48,1.07,5.44,4.41,4.39,7.46Z"/>
              <path class="cls-2" d="m59.8,328.33c-1.87,5.44-7.34,8.63-12.21,7.14-4.87-1.49-7.4-4.34-6.32-9.97,1.27-6.63,9.69-10.85,14.97-10.19,5.06.64,5.43,7.58,3.56,13.02Z"/>
              <path class="cls-2" d="m48.05,325.23s-6.07-.97-6.89.91c-1.27,9.09,2.5,11.96.43,23.97,0,0,11.55,1.82,12.92,1.46-1.26-17.24,1.23-14.37,5.47-23.77,4.32-9.58-11.93-2.58-11.93-2.58Z"/>
            </g>
            <g>
              <path class="cls-2" d="m97.7,464.52c.49,2.99,3.82,5.09,7.43,4.69,3.61-.4,6.14-3.15,5.64-6.14-.49-2.98-3.81-5.09-7.42-4.68-3.61.4-6.14,3.16-5.65,6.14Z"/>
              <path class="cls-2" d="m108.87,439.32s6.15.12,6.62,1.99c-.37,8.58-4.59,10.59-4.68,22,0,0-11.69-.24-12.98-.8,4.31-15.67,1.34-13.44-1.16-22.79-2.55-9.54,12.2-.39,12.2-.39Z"/>
            </g>
            <path class="cls-6" d="m37.65,352.34c1.35-5.96,7.08-13.44,11.2-12.51,4.13.94,7.19,9.92,5.84,15.88-1.35,5.96-5.79,10.03-9.92,9.09-4.13-.94-8.47-6.51-7.13-12.47Z"/>
            <path class="cls-6" d="m115.74,446.66c-.95,7.49-6.66,17.5-11.37,16.98-4.7-.52-8.96-11.06-8.01-18.55.95-7.49,5.54-13.14,10.25-12.61,4.7.52,10.08,6.69,9.13,14.18Z"/>
            <ellipse class="cls-4" cx="53.65" cy="382.09" rx="17.28" ry="34.82" transform="translate(-63.96 14.61) rotate(-9.75)"/>
            <path class="cls-5" d="m86.68,413.72c-1.37-17.71,4.72-32.42,13.59-32.85,8.87-.43,17.17,13.58,18.54,31.29,1.37,17.71-4.72,32.42-13.59,32.85-8.87.43-17.17-13.58-18.54-31.29Z"/>
            <path class="cls-1" d="m6.78,402.81c0,12.6,31.04,29.72,69.32,29.72s69.32-17.12,69.32-29.72c0-7.1-9.87-13.45-25.33-17.63-5.11-8.23-22.84-14.31-43.99-14.31s-38.88,6.08-43.99,14.31c-15.47,4.18-25.33,10.53-25.33,17.63Z"/>
            <ellipse class="cls-16" cx="77.52" cy="403.78" rx="56.32" ry="21.28"/>
            <path class="cls-17" d="m70.88,384.53c0-4.98,2.34-9.01,5.23-9.01s5.23,4.03,5.23,9.01-2.34,9.01-5.23,9.01-5.23-4.03-5.23-9.01Z"/>
            <path class="cls-17" d="m135.29,332.28c-.83-.78-4.69-16.71-2.64-19.2,2.45-2.97,2.83,5.42,5.57,7.06,2.74,1.64-3.72-18.93-3.75-19.74-.02-.8,1.05-4.45,4.18-.06,7.99,11.21,9.06,29.81,9.06,29.81,0,0-11.59,2.91-12.42,2.13Z"/>
            <path class="cls-17" d="m.23,362.92c-1.14,17.09,2.95,18.87,9.13,19.29,6.18.41,11.12-2.69,12.26-19.78,1.14-17.09-1.91-39.64-8.1-40.06-6.18-.41-12.15,23.46-13.29,40.55Z"/>
            <path class="cls-9" d="m28.64,385.12c-5.73-16.14-13.55-19.8-20.68-17.27-7.14,2.53-10.89,10.3-5.16,26.44,5.73,16.14,16.17,27.17,23.3,24.64s8.27-17.67,2.54-33.82Z"/>
            <path class="cls-17" d="m19.61,332.29c.87-.74,5.52-16.45,3.59-19.05-2.3-3.09-3.09,5.27-5.91,6.77-2.82,1.51,4.66-18.73,4.72-19.53.06-.8-.83-4.5-4.17-.27-8.53,10.8-10.53,29.33-10.53,29.33,0,0,11.43,3.48,12.3,2.74Z"/>
            <path class="cls-19" d="m81.78,383.92c.22-.38,4.56.03,8.48,2.31,3.92,2.29,5.92,5.59,5.7,5.97-.22.38-2.58-2.32-6.5-4.6-3.92-2.29-7.9-3.3-7.68-3.68Z"/>
            <circle class="cls-17" cx="76.11" cy="408.25" r="28.44" transform="translate(-338.71 388.53) rotate(-76.72)"/>
            <path class="cls-3" d="m76.5,425.06c-13.22,0-25.36-1.73-34.97-4.61v7.17c10.27,3,22.22,4.9,34.97,4.9s24.7-1.9,34.97-4.9v-7.17c-9.61,2.88-21.75,4.61-34.97,4.61Z"/>
            <path class="cls-3" d="m76.5,382.5c13.22,0,25.36,1.73,34.97,4.61v-9.3c-8.33-4.23-20.89-6.93-34.97-6.93s-26.64,2.7-34.97,6.93v9.3c9.61-2.88,21.75-4.61,34.97-4.61Z"/>
            <path class="cls-12" d="m111.47,420.45v-33.35c-9.61-2.88-21.75-4.61-34.97-4.61s-25.36,1.73-34.97,4.61v33.35c9.61,2.88,21.75,4.61,34.97,4.61s25.36-1.73,34.97-4.61Z"/>
            <g>
              <path class="cls-7" d="m106.22,371.3c.21,16.08-13.2,54.64-29.94,54.86-16.75.22-30.5-37.98-30.71-54.06-.21-16.08,13.2-29.3,29.94-29.51,16.75-.22,30.5,12.64,30.71,28.72Z"/>
              <path class="cls-18" d="m107.39,405.62c.22,16.84-13.6,30.67-30.87,30.9s-31.45-13.24-31.67-30.08c-.22-16.84,13.6-30.67,30.87-30.9,17.27-.23,31.45,13.24,31.67,30.08Z"/>
              <path class="cls-7" d="m102.11,405.16c.19,14.54-11.3,26.49-25.66,26.67-14.36.19-26.16-11.45-26.35-25.99-.19-14.54,11.3-26.49,25.66-26.67,14.36-.19,26.16,11.45,26.35,25.99Z"/>
              <path class="cls-10" d="m94.64,405.9c.15,11.09-8.03,20.19-18.25,20.32s-18.64-8.75-18.78-19.84c-.15-11.09,8.03-20.19,18.26-20.32,10.23-.13,18.63,8.75,18.78,19.84Z"/>
              <path class="cls-11" d="m87.41,396.23c.26,19.58-4.65,35.52-10.96,35.6-6.31.08-11.63-15.72-11.89-35.3-.26-19.58,4.88-17.97,11.19-18.05,6.31-.08,11.4-1.83,11.66,17.75Z"/>
            </g>
          </g>
          <g>
            <g>
              <rect class="cls-20" x="17.26" y="125.21" width="120.8" height="106.62"/>
              <rect class="cls-8" x="17.26" y="228.81" width="120.8" height="1.14"/>
              <rect class="cls-8" x="17.26" y="225.71" width="120.8" height="1.14"/>
              <rect class="cls-8" x="17.26" y="222.61" width="120.8" height="1.14"/>
              <rect class="cls-8" x="17.26" y="219.51" width="120.8" height="1.14"/>
              <rect class="cls-8" x="17.26" y="216.41" width="120.8" height="1.14"/>
              <rect class="cls-8" x="17.26" y="213.31" width="120.8" height="1.14"/>
              <rect class="cls-8" x="17.26" y="210.21" width="120.8" height="1.14"/>
              <rect class="cls-8" x="17.26" y="207.11" width="120.8" height="1.14"/>
              <rect class="cls-8" x="17.26" y="204.01" width="120.8" height="1.14"/>
              <rect class="cls-8" x="17.26" y="200.91" width="120.8" height="1.14"/>
              <rect class="cls-8" x="17.26" y="197.8" width="120.8" height="1.14"/>
              <rect class="cls-8" x="17.26" y="194.7" width="120.8" height="1.14"/>
              <rect class="cls-8" x="17.26" y="191.6" width="120.8" height="1.14"/>
              <rect class="cls-8" x="17.26" y="188.5" width="120.8" height="1.14"/>
              <rect class="cls-8" x="17.26" y="185.4" width="120.8" height="1.14"/>
              <rect class="cls-8" x="17.26" y="182.3" width="120.8" height="1.14"/>
              <rect class="cls-8" x="17.26" y="179.2" width="120.8" height="1.14"/>
              <rect class="cls-8" x="17.26" y="176.1" width="120.8" height="1.14"/>
              <rect class="cls-8" x="17.26" y="173" width="120.8" height="1.14"/>
              <rect class="cls-8" x="17.26" y="169.9" width="120.8" height="1.14"/>
              <rect class="cls-8" x="17.26" y="166.8" width="120.8" height="1.14"/>
              <rect class="cls-8" x="17.26" y="163.7" width="120.8" height="1.14"/>
              <rect class="cls-8" x="17.26" y="160.6" width="120.8" height="1.14"/>
              <rect class="cls-8" x="17.26" y="157.5" width="120.8" height="1.14"/>
              <rect class="cls-8" x="17.26" y="154.4" width="120.8" height="1.14"/>
              <rect class="cls-8" x="17.26" y="151.3" width="120.8" height="1.14"/>
              <rect class="cls-8" x="17.26" y="148.2" width="120.8" height="1.14"/>
              <rect class="cls-8" x="17.26" y="145.1" width="120.8" height="1.14"/>
              <rect class="cls-8" x="17.26" y="142" width="120.8" height="1.14"/>
              <rect class="cls-8" x="17.26" y="138.9" width="120.8" height="1.14"/>
              <rect class="cls-8" x="17.26" y="135.8" width="120.8" height="1.14"/>
              <rect class="cls-8" x="17.26" y="132.7" width="120.8" height="1.14"/>
              <rect class="cls-8" x="17.26" y="129.59" width="120.8" height="1.14"/>
              <rect class="cls-8" x="17.26" y="126.49" width="120.8" height="1.14"/>
              <rect class="cls-13" x="77.03" y="125.21" width="1.27" height="106.62"/>
            </g>
            <rect class="cls-14" x="68.9" y="125.21" width="17.53" height="106.62"/>
            <g>
              <rect class="cls-20" x="17.26" y="230.68" width="120.8" height="106.62"/>
              <rect class="cls-8" x="17.26" y="334.27" width="120.8" height="1.14"/>
              <rect class="cls-8" x="17.26" y="331.17" width="120.8" height="1.14"/>
              <rect class="cls-8" x="17.26" y="328.07" width="120.8" height="1.14"/>
              <rect class="cls-8" x="17.26" y="324.97" width="120.8" height="1.14"/>
              <rect class="cls-8" x="17.26" y="321.87" width="120.8" height="1.14"/>
              <rect class="cls-8" x="17.26" y="318.77" width="120.8" height="1.14"/>
              <rect class="cls-8" x="17.26" y="315.67" width="120.8" height="1.14"/>
              <rect class="cls-8" x="17.26" y="312.57" width="120.8" height="1.14"/>
              <rect class="cls-8" x="17.26" y="309.47" width="120.8" height="1.14"/>
              <rect class="cls-8" x="17.26" y="306.37" width="120.8" height="1.14"/>
              <rect class="cls-8" x="17.26" y="303.27" width="120.8" height="1.14"/>
              <rect class="cls-8" x="17.26" y="300.17" width="120.8" height="1.14"/>
              <rect class="cls-8" x="17.26" y="297.07" width="120.8" height="1.14"/>
              <rect class="cls-8" x="17.26" y="293.97" width="120.8" height="1.14"/>
              <rect class="cls-8" x="17.26" y="290.87" width="120.8" height="1.14"/>
              <rect class="cls-8" x="17.26" y="287.77" width="120.8" height="1.14"/>
              <rect class="cls-8" x="17.26" y="284.67" width="120.8" height="1.14"/>
              <rect class="cls-8" x="17.26" y="281.57" width="120.8" height="1.14"/>
              <rect class="cls-8" x="17.26" y="278.47" width="120.8" height="1.14"/>
              <rect class="cls-8" x="17.26" y="275.37" width="120.8" height="1.14"/>
              <rect class="cls-8" x="17.26" y="272.27" width="120.8" height="1.14"/>
              <rect class="cls-8" x="17.26" y="269.17" width="120.8" height="1.14"/>
              <rect class="cls-8" x="17.26" y="266.06" width="120.8" height="1.14"/>
              <rect class="cls-8" x="17.26" y="262.96" width="120.8" height="1.14"/>
              <rect class="cls-8" x="17.26" y="259.86" width="120.8" height="1.14"/>
              <rect class="cls-8" x="17.26" y="256.76" width="120.8" height="1.14"/>
              <rect class="cls-8" x="17.26" y="253.66" width="120.8" height="1.14"/>
              <rect class="cls-8" x="17.26" y="250.56" width="120.8" height="1.14"/>
              <rect class="cls-8" x="17.26" y="247.46" width="120.8" height="1.14"/>
              <rect class="cls-8" x="17.26" y="244.36" width="120.8" height="1.14"/>
              <rect class="cls-8" x="17.26" y="241.26" width="120.8" height="1.14"/>
              <rect class="cls-8" x="17.26" y="238.16" width="120.8" height="1.14"/>
              <rect class="cls-8" x="17.26" y="235.06" width="120.8" height="1.14"/>
              <rect class="cls-8" x="17.26" y="231.96" width="120.8" height="1.14"/>
              <rect class="cls-13" x="77.03" y="230.68" width="1.27" height="106.62"/>
            </g>
            <rect class="cls-14" x="68.9" y="230.68" width="17.53" height="106.62"/>
          </g>
        </g>
      </g>
    </g>
  </g>
</svg>