<?xml version="1.0" encoding="UTF-8"?>
<svg id="Layer_2" data-name="Layer 2" xmlns="http://www.w3.org/2000/svg" viewBox="0 0 193.36 289.28">
  <defs>
    <style>
      .cls-1 {
        fill: #f5a833;
      }

      .cls-1, .cls-2, .cls-3, .cls-4, .cls-5, .cls-6, .cls-7, .cls-8, .cls-9, .cls-10, .cls-11, .cls-12, .cls-13, .cls-14, .cls-15, .cls-16 {
        stroke-width: 0px;
      }

      .cls-2 {
        fill: #b2b2b2;
      }

      .cls-3 {
        fill: #6aa1bd;
      }

      .cls-4 {
        fill: #458aad;
      }

      .cls-5 {
        fill: #3d7a99;
      }

      .cls-6 {
        fill: #336680;
      }

      .cls-7 {
        fill: #f0ae2b;
      }

      .cls-8 {
        fill: #f39200;
      }

      .cls-9 {
        fill: #f7c443;
      }

      .cls-10 {
        fill: #8eba24;
      }

      .cls-11 {
        fill: #ffd66e;
      }

      .cls-12 {
        fill: #8fb9ce;
      }

      .cls-13 {
        fill: #f8be66;
      }

      .cls-14 {
        fill: #ffcdc2;
      }

      .cls-15 {
        fill: #de9322;
      }

      .cls-16 {
        fill: #575756;
      }
    </style>
  </defs>
  <g id="_Ñëîé_1" data-name="Ñëîé 1">
    <g>
      <g>
        <g>
          <g>
            <path class="cls-11" d="m167.34,63.41h-35.65c-14.54,0-17.54-16.85-33.54-16.85v-11.45h69.19v28.31Z"/>
            <path class="cls-15" d="m167.34,6.8h-35.65c-14.54,0-17.54,16.85-33.54,16.85v11.45h69.19V6.8Z"/>
            <path class="cls-7" d="m135.4,63.41h31.94V6.8h-31.94c-17.66,0-13.2,21.56-37.25,21.56v13.5c24.05,0,19.59,21.56,37.25,21.56Z"/>
            <path class="cls-11" d="m25.24,63.41h35.65c14.54,0,17.54-16.85,33.54-16.85v-11.45H25.24v28.31Z"/>
            <path class="cls-15" d="m25.24,6.8h35.65c14.54,0,17.54,16.85,33.54,16.85v11.45H25.24V6.8Z"/>
            <path class="cls-7" d="m57.18,63.41h-31.94V6.8h31.94c17.66,0,13.2,21.56,37.25,21.56v13.5c-24.05,0-19.59,21.56-37.25,21.56Z"/>
          </g>
          <rect class="cls-15" x="94.43" y="26.15" width="3.72" height="17.92"/>
          <g>
            <path class="cls-16" d="m132.76,55.27h9.18c.16.03.32.05.49.05h16.49c1.37,0,2.48-1.11,2.48-2.48v-8.76c0-.15.02-.3.02-.46v-17.01c0-.16-.02-.31-.02-.46v-8.76c0-1.37-1.11-2.48-2.48-2.48h-16.49c-.17,0-.33.02-.49.05h-9.18c-6.44,0-11.66,5.22-11.66,11.66v17.01c0,6.44,5.22,11.66,11.66,11.66Z"/>
            <path class="cls-16" d="m59.82,14.95h-9.18c-.16-.03-.32-.05-.49-.05h-16.49c-1.37,0-2.48,1.11-2.48,2.48v8.76c0,.15-.02.3-.02.46v17.01c0,.16.02.31.02.46v8.76c0,1.37,1.11,2.48,2.48,2.48h16.49c.17,0,.33-.02.49-.05h9.18c6.44,0,11.66-5.22,11.66-11.66v-17.01c0-6.44-5.22-11.66-11.66-11.66Z"/>
          </g>
          <polygon class="cls-15" points="167.34 6.8 176.22 3.46 176.22 66.76 167.34 63.41 167.34 6.8"/>
          <g>
            <path class="cls-7" d="m180.41,0h7.41c2.63,0,4.76,2.13,4.76,4.76v60.69c0,2.63-2.13,4.76-4.76,4.76h-7.41c-2.63,0-4.76-2.13-4.76-4.76V4.76c0-2.63,2.13-4.76,4.76-4.76Z"/>
            <path class="cls-11" d="m178.17,11.87c0-2.01,1.5-3.65,3.34-3.65h5.2c1.85,0,3.34,1.63,3.34,3.65v46.48c0,2.01-1.5,3.65-3.34,3.65h-5.2c-1.85,0-3.34-1.63-3.34-3.65V11.87Z"/>
          </g>
          <polygon class="cls-15" points="25.24 6.8 16.36 3.46 16.36 66.76 25.24 63.41 25.24 6.8"/>
          <g>
            <rect class="cls-7" width="16.93" height="70.21" rx="4.76" ry="4.76"/>
            <path class="cls-11" d="m14.41,11.87c0-2.01-1.5-3.65-3.34-3.65h-5.2c-1.85,0-3.34,1.63-3.34,3.65v46.48c0,2.01,1.5,3.65,3.34,3.65h5.2c1.85,0,3.34-1.63,3.34-3.65V11.87Z"/>
          </g>
        </g>
        <g>
          <g>
            <path class="cls-10" d="m59.16,31.86c-1.34-3.59-5.97-5.38-10.35-4.01-4.38,1.38-6.85,5.4-5.51,8.99,1.33,3.58,5.97,5.38,10.35,4.01,4.38-1.38,6.85-5.4,5.51-8.99Z"/>
            <path class="cls-2" d="m66.23,61.78c-2.38-6.38-9.28-10-15.42-8.07-6.14,1.92-9.32,5.39-7.95,12.02,1.62,7.82,12.25,12.55,18.91,11.59,6.38-.92,6.83-9.16,4.45-15.54Z"/>
            <path class="cls-10" d="m51.42,65.83s-7.65,1.35-8.69-.86c-1.62-10.74,3.12-14.25.47-28.42,0,0,14.56-2.54,16.29-2.15-1.55,20.48,1.6,17,6.97,27.99,5.48,11.22-15.04,3.44-15.04,3.44Z"/>
          </g>
          <path class="cls-6" d="m41.11,58.4c-.63-9.52,4.02-23.33,9.98-23.82,5.96-.49,13.8,11.54,14.43,21.07.63,9.52-3.69,17.64-9.65,18.13-5.96.49-14.13-5.86-14.76-15.38Z"/>
          <path class="cls-5" d="m85.59,95.47c6.24,23.54,2.48,44.89-8.41,47.69-10.89,2.79-24.77-14.03-31.02-37.58-6.24-23.54-2.48-44.89,8.41-47.69,10.89-2.79,24.77,14.03,31.02,37.58Z"/>
        </g>
        <g>
          <g>
            <path class="cls-10" d="m134.01,31.86c1.34-3.59,5.97-5.38,10.35-4.01,4.38,1.38,6.85,5.4,5.51,8.99-1.33,3.58-5.97,5.38-10.35,4.01-4.38-1.38-6.85-5.4-5.51-8.99Z"/>
            <path class="cls-2" d="m126.94,61.78c2.38-6.38,9.28-10,15.42-8.07,6.14,1.92,9.32,5.39,7.95,12.02-1.62,7.82-12.25,12.55-18.91,11.59-6.38-.92-6.83-9.16-4.45-15.54Z"/>
            <path class="cls-10" d="m141.75,65.83s7.65,1.35,8.69-.86c1.62-10.74-3.12-14.25-.47-28.42,0,0-14.56-2.54-16.3-2.15,1.55,20.48-1.6,17-6.97,27.99-5.48,11.22,15.04,3.44,15.04,3.44Z"/>
          </g>
          <path class="cls-6" d="m152.05,58.4c.63-9.52-4.02-23.33-9.98-23.82-5.96-.49-13.8,11.54-14.43,21.07-.63,9.52,3.69,17.64,9.65,18.13,5.96.49,14.13-5.86,14.76-15.38Z"/>
          <path class="cls-5" d="m107.58,95.47c-6.24,23.54-2.48,44.89,8.41,47.69,10.89,2.79,24.77-14.03,31.02-37.58,6.24-23.54,2.48-44.89-8.41-47.69-10.89-2.79-24.77,14.03-31.02,37.58Z"/>
        </g>
      </g>
      <path class="cls-14" d="m7.44,156.02c-3.95-20.53.73-23.3,8.16-24.73,7.43-1.43,13.87,1.59,17.82,22.11s3.63,48.3-3.79,49.73c-7.43,1.43-18.24-26.59-22.19-47.11Z"/>
      <path class="cls-8" d="m41.05,128.53c-4.52,20.41-13.43,26.01-22.46,24.02-9.02-2-14.74-10.84-10.22-31.25,4.52-20.41,15.5-35.33,24.52-33.34,9.02,2,12.67,20.16,8.15,40.57Z"/>
      <path class="cls-14" d="m35.51,190.21c1.16.77,9.15,19.1,7.21,22.53-2.32,4.09-4.54-5.92-8.18-7.32-3.64-1.4,8.45,21.98,8.65,22.94.2.96-.33,5.57-5.01.95-11.96-11.8-17.16-33.94-17.16-33.94,0,0,13.32-5.93,14.48-5.17Z"/>
      <path class="cls-14" d="m192.73,156.05c1.73-20.83-3.22-23.09-10.76-23.71-7.54-.63-13.62,3.06-15.35,23.89-1.73,20.83,1.55,48.41,9.09,49.04,7.54.63,15.29-28.38,17.02-49.21Z"/>
      <path class="cls-8" d="m158.51,128.4c6.68,19.81,16.14,24.43,24.9,21.48,8.76-2.95,13.49-12.36,6.82-32.16-6.68-19.81-19.19-33.47-27.94-30.52-8.76,2.95-10.44,21.4-3.77,41.21Z"/>
      <path class="cls-14" d="m168.48,193.05c-1.07.89-7.06,19.97-4.76,23.17,2.75,3.82,3.88-6.37,7.35-8.15,3.47-1.78-6.06,22.76-6.15,23.73-.09.98.92,5.5,5.08.41,10.63-13.01,13.43-35.58,13.43-35.58,0,0-13.88-4.47-14.95-3.59Z"/>
      <path class="cls-4" d="m147.99,107.28c3.01,19.83-4.01,36.53-15.68,37.3-11.67.77-23.58-14.67-26.59-34.5-3.01-19.83,4.01-36.53,15.68-37.3,11.67-.77,23.58,14.67,26.59,34.5Z"/>
      <ellipse class="cls-4" cx="68.77" cy="109.5" rx="36.86" ry="20.8" transform="translate(-54.37 148.97) rotate(-75.64)"/>
      <path class="cls-1" d="m183.45,107.29c0-15.38-37.87-36.27-84.6-36.27S14.25,91.91,14.25,107.29c0,8.67,12.04,16.41,30.91,21.52,6.24,10.04,27.87,17.46,53.68,17.46s47.44-7.42,53.68-17.46c18.87-5.11,30.91-12.85,30.91-21.52Z"/>
      <ellipse class="cls-13" cx="97.12" cy="106.11" rx="68.73" ry="25.97"/>
      <path class="cls-14" d="m105.23,129.6c0,6.07-2.86,10.99-6.38,10.99s-6.38-4.92-6.38-10.99,2.85-10.99,6.38-10.99,6.38,4.92,6.38,10.99Z"/>
      <path class="cls-16" d="m91.93,130.35c-.27.46-5.57-.03-10.35-2.82-4.78-2.79-7.23-6.82-6.96-7.28.27-.46,3.15,2.83,7.93,5.62,4.78,2.79,9.64,4.03,9.38,4.49Z"/>
      <circle class="cls-14" cx="98.85" cy="100.65" r="34.7" transform="translate(-21.82 173.73) rotate(-76.72)"/>
      <path class="cls-3" d="m98.37,80.14c16.13,0,30.95,2.11,42.68,5.62v-8.75c-12.53-3.66-27.11-5.98-42.68-5.98s-30.15,2.32-42.68,5.98v8.75c11.73-3.52,26.55-5.62,42.68-5.62Z"/>
      <path class="cls-3" d="m98.37,132.08c-16.13,0-30.95-2.11-42.68-5.62v11.35c10.17,5.16,25.5,8.45,42.68,8.45s32.51-3.29,42.68-8.45v-11.35c-11.73,3.52-26.55,5.62-42.68,5.62Z"/>
      <path class="cls-12" d="m55.7,85.76v40.7c11.73,3.52,26.55,5.62,42.68,5.62s30.95-2.11,42.68-5.62v-40.7c-11.73-3.52-26.55-5.62-42.68-5.62s-30.95,2.11-42.68,5.62Z"/>
      <g>
        <path class="cls-7" d="m62.1,124.37c-.26-19.63,16.1-35.75,36.54-36.02,20.44-.27,37.22,15.42,37.47,35.05.26,19.62-16.1,35.75-36.54,36.02-20.44.27-37.22-15.42-37.47-35.05Z"/>
        <path class="cls-15" d="m60.72,107.79c-.3-22.72,16.55-41.36,37.63-41.64,21.08-.28,38.4,17.92,38.7,40.64.3,22.72-16.55,41.36-37.63,41.64-21.08.28-38.41-17.92-38.7-40.64Z"/>
        <path class="cls-7" d="m67.16,108.43c-.26-19.62,13.74-35.72,31.27-35.95,17.53-.23,31.94,15.49,32.2,35.12.26,19.62-13.74,35.72-31.27,35.95-17.52.23-31.94-15.49-32.2-35.12Z"/>
        <path class="cls-9" d="m76.29,107.44c-.2-14.96,9.76-27.23,22.24-27.39,12.48-.16,22.76,11.83,22.95,26.8.2,14.96-9.76,27.23-22.24,27.39-12.48.16-22.76-11.83-22.95-26.8Z"/>
        <path class="cls-11" d="m85.12,120.5c-.35-26.42,5.61-47.92,13.31-48.02,7.7-.1,14.22,21.24,14.56,47.66.35,26.42-5.92,24.23-13.62,24.34-7.7.1-13.91,2.45-14.25-23.97Z"/>
      </g>
      <g>
        <rect class="cls-11" x="35.93" y="176.94" width="132.85" height="112.33"/>
        <rect class="cls-15" x="94.43" y="176.94" width="12.66" height="110.33"/>
        <rect class="cls-15" x="35.73" y="228.26" width="132.35" height="12.66"/>
      </g>
    </g>
  </g>
</svg>