<?xml version="1.0" encoding="UTF-8"?>
<svg xmlns="http://www.w3.org/2000/svg" viewBox="0 0 271.7 767.07">
  <defs>
    <style>
      .cls-1 {
        isolation: isolate;
      }

      .cls-2 {
        fill: #be1622;
      }

      .cls-2, .cls-3, .cls-4, .cls-5, .cls-6, .cls-7, .cls-8, .cls-9, .cls-10, .cls-11, .cls-12, .cls-13, .cls-14 {
        stroke-width: 0px;
      }

      .cls-3 {
        fill: #f0ae2b;
      }

      .cls-4 {
        fill: #e08d23;
      }

      .cls-5 {
        fill: #a7a9ac;
        mix-blend-mode: multiply;
      }

      .cls-6 {
        fill: #3c3c3b;
      }

      .cls-7 {
        fill: #f7c443;
      }

      .cls-8 {
        fill: #706f6f;
      }

      .cls-9 {
        fill: #878787;
      }

      .cls-10 {
        fill: #ffd66e;
      }

      .cls-11 {
        fill: #ff392f;
      }

      .cls-12 {
        fill: #ffcd00;
      }

      .cls-13 {
        fill: #de9322;
      }

      .cls-14 {
        fill: #575756;
      }
    </style>
  </defs>
  <g class="cls-1">
    <g id="Layer_2" data-name="Layer 2">
      <g id="Layer_1-2" data-name="Layer 1">
        <g>
          <g>
            <g>
              <path class="cls-8" d="m65.7,310.36h-.41c-11.13,0-20.16-9.04-20.16-20.2V37.83C45.14,26.68,54.16,0,65.29,0h.41c11.13,0,20.16,26.68,20.16,37.83v252.33c0,11.15-9.02,20.2-20.16,20.2Z"/>
              <ellipse class="cls-12" cx="64.88" cy="37.19" rx="9.34" ry="9.36"/>
            </g>
            <g>
              <path class="cls-8" d="m206.41,310.36h-.41c-11.13,0-20.16-9.04-20.16-20.2V37.83c0-11.15,9.02-37.83,20.16-37.83h.41c11.13,0,20.16,26.68,20.16,37.83v252.33c0,11.15-9.02,20.2-20.16,20.2Z"/>
              <ellipse class="cls-12" cx="205.59" cy="37.19" rx="9.34" ry="9.36"/>
            </g>
          </g>
          <g>
            <g>
              <path class="cls-6" d="m271.7,458.95c0,3.64-2.43,6.59-5.42,6.59h-43.42c-2.99,0-5.42-2.95-5.42-6.59v-88.98c0-3.64,2.43-6.59,5.42-6.59h43.42c2.99,0,5.42,2.95,5.42,6.59v88.98Z"/>
              <g>
                <path class="cls-13" d="m203.3,447.39c0,14.67,10.54,26.56,23.55,26.56h13.44c13.02,0,23.55-11.89,23.55-26.56v-68.6c0-14.67-10.54-26.56-23.55-26.56h-13.44c-13.01,0-23.55,11.89-23.55,26.56v68.6Z"/>
                <path class="cls-3" d="m212.85,439.61c0,13.05,7.22,23.63,16.13,23.63h9.2c8.91,0,16.12-10.58,16.12-23.63v-53.02c0-13.05-7.22-23.62-16.12-23.62h-9.2c-8.91,0-16.13,10.58-16.13,23.62v53.02Z"/>
              </g>
            </g>
            <g>
              <path class="cls-6" d="m0,458.95c0,3.64,2.43,6.59,5.42,6.59h43.42c2.99,0,5.42-2.95,5.42-6.59v-88.98c0-3.64-2.43-6.59-5.42-6.59H5.42c-2.99,0-5.42,2.95-5.42,6.59v88.98Z"/>
              <g>
                <path class="cls-13" d="m68.4,447.39c0,14.67-10.54,26.56-23.55,26.56h-13.44c-13.01,0-23.55-11.89-23.55-26.56v-68.6c0-14.67,10.54-26.56,23.55-26.56h13.44c13.01,0,23.55,11.89,23.55,26.56v68.6Z"/>
                <path class="cls-3" d="m58.86,439.61c0,13.05-7.22,23.63-16.13,23.63h-9.2c-8.91,0-16.12-10.58-16.12-23.63v-53.02c0-13.05,7.22-23.62,16.12-23.62h9.2c8.91,0,16.13,10.58,16.13,23.62v53.02Z"/>
              </g>
            </g>
          </g>
          <g>
            <g>
              <path class="cls-6" d="m255.02,739.39c0,3.64-2.43,6.59-5.42,6.59h-43.42c-2.99,0-5.42-2.95-5.42-6.59v-88.98c0-3.64,2.43-6.59,5.42-6.59h43.42c2.99,0,5.42,2.95,5.42,6.59v88.98Z"/>
              <g>
                <path class="cls-13" d="m186.62,727.83c0,14.67,10.54,26.56,23.55,26.56h13.44c13.01,0,23.55-11.89,23.55-26.56v-68.6c0-14.67-10.54-26.56-23.55-26.56h-13.44c-13.01,0-23.55,11.89-23.55,26.56v68.6Z"/>
                <path class="cls-3" d="m196.17,720.04c0,13.05,7.22,23.63,16.13,23.63h9.2c8.91,0,16.12-10.58,16.12-23.63v-53.02c0-13.05-7.22-23.62-16.12-23.62h-9.2c-8.91,0-16.13,10.58-16.13,23.62v53.02Z"/>
              </g>
            </g>
            <g>
              <path class="cls-6" d="m16.68,737.65c0,3.64,2.43,6.59,5.42,6.59h43.42c2.99,0,5.42-2.95,5.42-6.59v-88.98c0-3.64-2.43-6.59-5.42-6.59H22.1c-2.99,0-5.42,2.95-5.42,6.59v88.98Z"/>
              <g>
                <path class="cls-13" d="m85.08,726.09c0,14.67-10.54,26.56-23.55,26.56h-13.44c-13.01,0-23.55-11.89-23.55-26.56v-68.6c0-14.67,10.54-26.56,23.55-26.56h13.44c13.02,0,23.55,11.89,23.55,26.56v68.6Z"/>
                <path class="cls-3" d="m75.54,718.3c0,13.05-7.22,23.63-16.13,23.63h-9.2c-8.91,0-16.12-10.58-16.12-23.63v-53.02c0-13.05,7.22-23.62,16.12-23.62h9.2c8.91,0,16.13,10.58,16.13,23.62v53.02Z"/>
              </g>
            </g>
          </g>
          <path class="cls-14" d="m31.32,563.55c0,24.87,16.68,17.72,37.24,17.72h134.56c20.56,0,37.26,7.15,37.26-17.72v-229.86c0-24.88-16.7-45.07-37.26-45.07H68.56c-20.56,0-37.24,20.19-37.24,45.07v229.86Z"/>
          <path class="cls-8" d="m15.92,598.03c0,25.64,19.14,46.43,42.73,46.43h154.38c23.59,0,42.75-20.79,42.75-46.43v-209.56c0-25.64-19.16-46.45-42.75-46.45H58.65c-23.59,0-42.73,20.81-42.73,46.45v209.56Z"/>
          <path class="cls-4" d="m28.85,588.96c0,25.02,17.07,45.31,38.12,45.31h137.73c21.05,0,38.14-20.29,38.14-45.31v-203.88c0-25.02-17.09-45.33-38.14-45.33H66.98c-21.05,0-38.12,20.31-38.12,45.33v203.88Z"/>
          <path class="cls-5" d="m78.62,358.29h114.47c17.48,0,31.67,14.19,31.67,31.69v35.02c0-17.47-14.19-31.67-31.67-31.67h-114.47c-17.49,0-31.67,14.2-31.67,31.67v-35.02c0-17.5,14.19-31.69,31.67-31.69Z"/>
          <path class="cls-5" d="m193.08,567.9h-114.47c-17.48,0-31.67-14.19-31.67-31.69v-35.02c0,17.47,14.19,31.67,31.67,31.67h114.47c17.49,0,31.67-14.2,31.67-31.67v35.02c0,17.5-14.19,31.69-31.67,31.69Z"/>
          <path class="cls-7" d="m38.7,513.7c0,22.94,15.5,41.54,34.61,41.54h125.06c19.11,0,34.63-18.61,34.63-41.54v-94.64c0-22.94-15.52-41.54-34.63-41.54h-125.06c-19.11,0-34.61,18.61-34.61,41.54v94.64Z"/>
          <path class="cls-10" d="m53.23,509.87c0,16.75,13.19,30.3,29.44,30.3h106.38c16.25,0,29.44-13.55,29.44-30.3v-85.66c0-16.72-13.19-30.27-29.44-30.27h-106.38c-16.25,0-29.44,13.55-29.44,30.27v85.66Z"/>
          <path class="cls-8" d="m32.27,720.64c0,25.64,19.14,46.43,42.73,46.43h121.69c23.59,0,42.75-20.79,42.75-46.43v-76.88c0-25.64-19.16-46.45-42.75-46.45h-121.69c-23.59,0-42.73,20.81-42.73,46.45v76.88Z"/>
          <path class="cls-4" d="m45.2,707.33c0,27.36,17.07,49.55,38.12,49.55h105.04c21.05,0,38.14-22.19,38.14-49.55v-90.25c0-27.36-17.09-49.57-38.14-49.57h-105.04c-21.05,0-38.12,22.21-38.12,49.57v90.25Z"/>
          <path class="cls-7" d="m55.05,693.83c0,21.19,15.5,38.38,34.61,38.38h92.37c19.11,0,34.63-17.19,34.63-38.38v-75.89c0-21.19-15.52-38.38-34.63-38.38h-92.37c-19.11,0-34.61,17.19-34.61,38.38v75.89Z"/>
          <path class="cls-4" d="m71.05,708.66v.15c0,3.99,2.68,7.22,5.99,7.22h117.62c3.31,0,5.99-3.23,5.99-7.22v-.15c0-3.99-2.68-7.22-5.99-7.22h-117.62c-3.31,0-5.99,3.23-5.99,7.22Z"/>
          <path class="cls-4" d="m71.05,681.16v.15c0,3.99,2.68,7.22,5.99,7.22h117.62c3.31,0,5.99-3.23,5.99-7.22v-.15c0-3.99-2.68-7.22-5.99-7.22h-117.62c-3.31,0-5.99,3.23-5.99,7.22Z"/>
          <path class="cls-4" d="m71.05,653.65v.15c0,3.99,2.68,7.22,5.99,7.22h117.62c3.31,0,5.99-3.23,5.99-7.22v-.15c0-3.99-2.68-7.22-5.99-7.22h-117.62c-3.31,0-5.99,3.23-5.99,7.22Z"/>
          <path class="cls-4" d="m71.05,626.14v.15c0,3.99,2.68,7.22,5.99,7.22h117.62c3.31,0,5.99-3.23,5.99-7.22v-.15c0-3.99-2.68-7.22-5.99-7.22h-117.62c-3.31,0-5.99,3.23-5.99,7.22Z"/>
          <path class="cls-4" d="m71.05,598.64v.15c0,3.99,2.68,7.22,5.99,7.22h117.62c3.31,0,5.99-3.23,5.99-7.22v-.15c0-3.99-2.68-7.22-5.99-7.22h-117.62c-3.31,0-5.99,3.23-5.99,7.22Z"/>
          <rect class="cls-14" x="29.86" y="286.22" width="211.99" height="14.18"/>
          <rect class="cls-9" x="29.86" y="300.17" width="211.99" height="11.46"/>
          <rect class="cls-14" x="29.86" y="304.62" width="211.99" height="14.18"/>
          <rect class="cls-9" x="29.86" y="318.57" width="211.99" height="11.46"/>
          <rect class="cls-14" x="114.99" y="330.03" width="41.73" height="59.24"/>
          <rect class="cls-9" x="114.99" y="389.04" width="41.73" height="11.46"/>
          <circle class="cls-14" cx="135.85" cy="439.21" r="28.11"/>
          <circle class="cls-2" cx="135.85" cy="439.21" r="20.81"/>
          <circle class="cls-11" cx="135.85" cy="439.21" r="16.74" transform="translate(-322.82 470.52) rotate(-76.72)"/>
          <g>
            <path class="cls-2" d="m84.9,350.55c0,2.61-2.11,4.72-4.72,4.72h-23.19c-2.61,0-4.72-2.11-4.72-4.72h0c0-2.61,2.11-4.72,4.72-4.72h23.19c2.61,0,4.72,2.11,4.72,4.72h0Z"/>
            <path class="cls-2" d="m219.44,350.55c0,2.61-2.11,4.72-4.72,4.72h-23.19c-2.61,0-4.72-2.11-4.72-4.72h0c0-2.61,2.11-4.72,4.72-4.72h23.19c2.61,0,4.72,2.11,4.72,4.72h0Z"/>
          </g>
          <g>
            <path class="cls-2" d="m104.96,743.85c0,2.61-2.11,4.72-4.72,4.72h-23.19c-2.61,0-4.72-2.11-4.72-4.72h0c0-2.61,2.11-4.72,4.72-4.72h23.19c2.61,0,4.72,2.11,4.72,4.72h0Z"/>
            <path class="cls-2" d="m199.38,743.85c0,2.61-2.11,4.72-4.72,4.72h-23.19c-2.61,0-4.72-2.11-4.72-4.72h0c0-2.61,2.11-4.72,4.72-4.72h23.19c2.61,0,4.72,2.11,4.72,4.72h0Z"/>
          </g>
        </g>
      </g>
    </g>
  </g>
</svg>