<?xml version="1.0" encoding="UTF-8"?>
<svg xmlns="http://www.w3.org/2000/svg" viewBox="0 0 305.51 920.1">
  <defs>
    <style>
      .cls-1 {
        isolation: isolate;
      }

      .cls-2 {
        fill: #be1622;
      }

      .cls-2, .cls-3, .cls-4, .cls-5, .cls-6, .cls-7, .cls-8, .cls-9, .cls-10, .cls-11, .cls-12, .cls-13, .cls-14, .cls-15, .cls-16, .cls-17, .cls-18, .cls-19 {
        stroke-width: 0px;
      }

      .cls-3 {
        fill: #f0ae2b;
      }

      .cls-4 {
        fill: #e08d23;
      }

      .cls-5, .cls-13 {
        fill: #d6a373;
      }

      .cls-6 {
        fill: #a7a9ac;
      }

      .cls-6, .cls-7, .cls-13 {
        mix-blend-mode: multiply;
      }

      .cls-7 {
        fill: #c6c6c6;
      }

      .cls-8 {
        fill: #3c3c3b;
      }

      .cls-9 {
        fill: #f7c443;
      }

      .cls-10 {
        fill: #706f6f;
      }

      .cls-11 {
        fill: #878787;
      }

      .cls-12 {
        fill: #ffd66e;
      }

      .cls-14 {
        fill: #ff392f;
      }

      .cls-15 {
        fill: #7b6a58;
        mix-blend-mode: screen;
      }

      .cls-16 {
        fill: #ffcd00;
      }

      .cls-20 {
        fill: #ebb878;
      }

      .cls-20, .cls-21 {
        stroke: #cf9457;
        stroke-miterlimit: 10;
        stroke-width: 4.08px;
      }

      .cls-21 {
        fill: #edcca1;
      }

      .cls-17 {
        fill: #de9322;
      }

      .cls-18 {
        fill: #575756;
      }

      .cls-19 {
        fill: #f2b982;
      }
    </style>
  </defs>
  <g class="cls-1">
    <g id="Layer_2" data-name="Layer 2">
      <g id="Layer_1-2" data-name="Layer 1">
        <g>
          <g>
            <g>
              <path class="cls-10" d="m71.6,463.39h-.41c-11.13,0-20.16-9.04-20.16-20.2v-252.33c0-11.15,9.02-37.83,20.16-37.83h.41c11.13,0,20.16,26.68,20.16,37.83v252.33c0,11.15-9.02,20.2-20.16,20.2Z"/>
              <ellipse class="cls-16" cx="70.78" cy="190.22" rx="9.34" ry="9.36"/>
            </g>
            <g>
              <path class="cls-10" d="m212.32,463.39h-.41c-11.13,0-20.16-9.04-20.16-20.2v-252.33c0-11.15,9.02-37.83,20.16-37.83h.41c11.13,0,20.16,26.68,20.16,37.83v252.33c0,11.15-9.02,20.2-20.16,20.2Z"/>
              <ellipse class="cls-16" cx="211.5" cy="190.22" rx="9.34" ry="9.36"/>
            </g>
          </g>
          <g>
            <g>
              <path class="cls-8" d="m277.61,611.99c0,3.64-2.43,6.59-5.42,6.59h-43.42c-2.99,0-5.42-2.95-5.42-6.59v-88.98c0-3.64,2.43-6.59,5.42-6.59h43.42c2.99,0,5.42,2.95,5.42,6.59v88.98Z"/>
              <g>
                <path class="cls-17" d="m209.21,600.42c0,14.67,10.54,26.56,23.55,26.56h13.44c13.02,0,23.55-11.89,23.55-26.56v-68.6c0-14.67-10.54-26.56-23.55-26.56h-13.44c-13.01,0-23.55,11.89-23.55,26.56v68.6Z"/>
                <path class="cls-3" d="m218.75,592.64c0,13.05,7.22,23.63,16.13,23.63h9.2c8.91,0,16.12-10.58,16.12-23.63v-53.02c0-13.05-7.22-23.62-16.12-23.62h-9.2c-8.91,0-16.13,10.58-16.13,23.62v53.02Z"/>
              </g>
            </g>
            <g>
              <path class="cls-8" d="m5.9,611.99c0,3.64,2.43,6.59,5.42,6.59h43.42c2.99,0,5.42-2.95,5.42-6.59v-88.98c0-3.64-2.43-6.59-5.42-6.59H11.32c-2.99,0-5.42,2.95-5.42,6.59v88.98Z"/>
              <g>
                <path class="cls-17" d="m74.3,600.42c0,14.67-10.54,26.56-23.55,26.56h-13.44c-13.01,0-23.55-11.89-23.55-26.56v-68.6c0-14.67,10.54-26.56,23.55-26.56h13.44c13.01,0,23.55,11.89,23.55,26.56v68.6Z"/>
                <path class="cls-3" d="m64.76,592.64c0,13.05-7.22,23.63-16.13,23.63h-9.2c-8.91,0-16.12-10.58-16.12-23.63v-53.02c0-13.05,7.22-23.62,16.12-23.62h9.2c8.91,0,16.13,10.58,16.13,23.62v53.02Z"/>
              </g>
            </g>
          </g>
          <g>
            <g>
              <path class="cls-8" d="m260.93,892.42c0,3.64-2.43,6.59-5.42,6.59h-43.42c-2.99,0-5.42-2.95-5.42-6.59v-88.98c0-3.64,2.43-6.59,5.42-6.59h43.42c2.99,0,5.42,2.95,5.42,6.59v88.98Z"/>
              <g>
                <path class="cls-17" d="m192.53,880.86c0,14.67,10.54,26.56,23.55,26.56h13.44c13.01,0,23.55-11.89,23.55-26.56v-68.6c0-14.67-10.54-26.56-23.55-26.56h-13.44c-13.01,0-23.55,11.89-23.55,26.56v68.6Z"/>
                <path class="cls-3" d="m202.07,873.08c0,13.05,7.22,23.63,16.13,23.63h9.2c8.91,0,16.12-10.58,16.12-23.63v-53.02c0-13.05-7.22-23.62-16.12-23.62h-9.2c-8.91,0-16.13,10.58-16.13,23.62v53.02Z"/>
              </g>
            </g>
            <g>
              <path class="cls-8" d="m22.58,890.68c0,3.64,2.43,6.59,5.42,6.59h43.42c2.99,0,5.42-2.95,5.42-6.59v-88.98c0-3.64-2.43-6.59-5.42-6.59H28c-2.99,0-5.42,2.95-5.42,6.59v88.98Z"/>
              <g>
                <path class="cls-17" d="m90.98,879.12c0,14.67-10.54,26.56-23.55,26.56h-13.44c-13.01,0-23.55-11.89-23.55-26.56v-68.6c0-14.67,10.54-26.56,23.55-26.56h13.44c13.02,0,23.55,11.89,23.55,26.56v68.6Z"/>
                <path class="cls-3" d="m81.44,871.34c0,13.05-7.22,23.63-16.13,23.63h-9.2c-8.91,0-16.12-10.58-16.12-23.63v-53.02c0-13.05,7.22-23.62,16.12-23.62h9.2c8.91,0,16.13,10.58,16.13,23.62v53.02Z"/>
              </g>
            </g>
          </g>
          <path class="cls-18" d="m37.22,716.58c0,24.87,16.68,17.72,37.24,17.72h134.56c20.56,0,37.26,7.15,37.26-17.72v-229.86c0-24.88-16.7-45.07-37.26-45.07H74.47c-20.56,0-37.24,20.19-37.24,45.07v229.86Z"/>
          <path class="cls-10" d="m21.83,751.06c0,25.64,19.14,46.43,42.73,46.43h154.38c23.59,0,42.75-20.79,42.75-46.43v-209.56c0-25.64-19.16-46.45-42.75-46.45H64.56c-23.59,0-42.73,20.81-42.73,46.45v209.56Z"/>
          <path class="cls-4" d="m34.76,741.99c0,25.02,17.07,45.31,38.12,45.31h137.73c21.05,0,38.14-20.29,38.14-45.31v-203.88c0-25.02-17.09-45.33-38.14-45.33H72.88c-21.05,0-38.12,20.31-38.12,45.33v203.88Z"/>
          <path class="cls-6" d="m84.52,511.33h114.47c17.48,0,31.67,14.19,31.67,31.69v35.02c0-17.47-14.19-31.67-31.67-31.67h-114.47c-17.49,0-31.67,14.2-31.67,31.67v-35.02c0-17.5,14.19-31.69,31.67-31.69Z"/>
          <path class="cls-6" d="m198.99,720.94h-114.47c-17.48,0-31.67-14.19-31.67-31.69v-35.02c0,17.47,14.19,31.67,31.67,31.67h114.47c17.49,0,31.67-14.2,31.67-31.67v35.02c0,17.5-14.19,31.69-31.67,31.69Z"/>
          <path class="cls-9" d="m44.61,666.73c0,22.94,15.5,41.54,34.61,41.54h125.06c19.11,0,34.63-18.61,34.63-41.54v-94.64c0-22.94-15.52-41.54-34.63-41.54h-125.06c-19.11,0-34.61,18.61-34.61,41.54v94.64Z"/>
          <path class="cls-12" d="m59.13,662.91c0,16.75,13.19,30.3,29.44,30.3h106.38c16.25,0,29.44-13.55,29.44-30.3v-85.66c0-16.72-13.19-30.27-29.44-30.27h-106.38c-16.25,0-29.44,13.55-29.44,30.27v85.66Z"/>
          <path class="cls-10" d="m38.17,873.67c0,25.64,19.14,46.43,42.73,46.43h121.69c23.59,0,42.75-20.79,42.75-46.43v-76.88c0-25.64-19.16-46.45-42.75-46.45h-121.69c-23.59,0-42.73,20.81-42.73,46.45v76.88Z"/>
          <path class="cls-4" d="m51.1,860.37c0,27.36,17.07,49.55,38.12,49.55h105.04c21.05,0,38.14-22.19,38.14-49.55v-90.25c0-27.36-17.09-49.57-38.14-49.57h-105.04c-21.05,0-38.12,22.21-38.12,49.57v90.25Z"/>
          <path class="cls-9" d="m60.95,846.86c0,21.19,15.5,38.38,34.61,38.38h92.37c19.11,0,34.63-17.19,34.63-38.38v-75.89c0-21.19-15.52-38.38-34.63-38.38h-92.37c-19.11,0-34.61,17.19-34.61,38.38v75.89Z"/>
          <path class="cls-4" d="m76.95,861.7v.15c0,3.99,2.68,7.22,5.99,7.22h117.62c3.31,0,5.99-3.23,5.99-7.22v-.15c0-3.99-2.68-7.22-5.99-7.22h-117.62c-3.31,0-5.99,3.23-5.99,7.22Z"/>
          <path class="cls-4" d="m76.95,834.19v.15c0,3.99,2.68,7.22,5.99,7.22h117.62c3.31,0,5.99-3.23,5.99-7.22v-.15c0-3.99-2.68-7.22-5.99-7.22h-117.62c-3.31,0-5.99,3.23-5.99,7.22Z"/>
          <path class="cls-4" d="m76.95,806.68v.15c0,3.99,2.68,7.22,5.99,7.22h117.62c3.31,0,5.99-3.23,5.99-7.22v-.15c0-3.99-2.68-7.22-5.99-7.22h-117.62c-3.31,0-5.99,3.23-5.99,7.22Z"/>
          <path class="cls-4" d="m76.95,779.18v.15c0,3.99,2.68,7.22,5.99,7.22h117.62c3.31,0,5.99-3.23,5.99-7.22v-.15c0-3.99-2.68-7.22-5.99-7.22h-117.62c-3.31,0-5.99,3.23-5.99,7.22Z"/>
          <path class="cls-4" d="m76.95,751.67v.15c0,3.99,2.68,7.22,5.99,7.22h117.62c3.31,0,5.99-3.23,5.99-7.22v-.15c0-3.99-2.68-7.22-5.99-7.22h-117.62c-3.31,0-5.99,3.23-5.99,7.22Z"/>
          <rect class="cls-18" x="35.76" y="439.26" width="211.99" height="14.18"/>
          <rect class="cls-11" x="35.76" y="453.2" width="211.99" height="11.46"/>
          <rect class="cls-18" x="35.76" y="457.65" width="211.99" height="14.18"/>
          <rect class="cls-11" x="35.76" y="471.6" width="211.99" height="11.46"/>
          <rect class="cls-18" x="120.89" y="483.06" width="41.73" height="59.24"/>
          <rect class="cls-11" x="120.89" y="542.07" width="41.73" height="11.46"/>
          <circle class="cls-18" cx="141.76" cy="592.24" r="28.11"/>
          <circle class="cls-2" cx="141.76" cy="592.24" r="20.81"/>
          <circle class="cls-14" cx="141.76" cy="592.24" r="16.74" transform="translate(-467.21 594.14) rotate(-76.72)"/>
          <g>
            <path class="cls-2" d="m90.8,503.58c0,2.61-2.11,4.72-4.72,4.72h-23.19c-2.61,0-4.72-2.11-4.72-4.72h0c0-2.61,2.11-4.72,4.72-4.72h23.19c2.61,0,4.72,2.11,4.72,4.72h0Z"/>
            <path class="cls-2" d="m225.34,503.58c0,2.61-2.11,4.72-4.72,4.72h-23.19c-2.61,0-4.72-2.11-4.72-4.72h0c0-2.61,2.11-4.72,4.72-4.72h23.19c2.61,0,4.72,2.11,4.72,4.72h0Z"/>
          </g>
          <g>
            <path class="cls-2" d="m110.86,896.88c0,2.61-2.11,4.72-4.72,4.72h-23.19c-2.61,0-4.72-2.11-4.72-4.72h0c0-2.61,2.11-4.72,4.72-4.72h23.19c2.61,0,4.72,2.11,4.72,4.72h0Z"/>
            <path class="cls-2" d="m205.28,896.88c0,2.61-2.11,4.72-4.72,4.72h-23.19c-2.61,0-4.72-2.11-4.72-4.72h0c0-2.61,2.11-4.72,4.72-4.72h23.19c2.61,0,4.72,2.11,4.72,4.72h0Z"/>
          </g>
        </g>
        <g>
          <polygon class="cls-7" points="194.29 0 130.15 0 130.15 10.71 89.89 10.71 89.89 1.23 21.32 1.23 21.32 414.43 89.89 414.43 89.89 403.72 130.15 403.72 130.15 413.2 194.29 413.2 194.29 403.72 234.76 403.72 234.76 413.2 305.51 413.2 305.51 0 234.76 0 234.76 10.71 194.29 10.71 194.29 0"/>
          <g>
            <g>
              <rect class="cls-20" x="110.87" y="20.75" width="64.14" height="413.2"/>
              <rect class="cls-20" x="215.49" y="20.75" width="70.75" height="413.2"/>
              <rect class="cls-20" x="2.04" y="21.98" width="68.57" height="413.2"/>
            </g>
            <g>
              <rect class="cls-21" x="10.42" y="31.45" width="53.49" height="393.02"/>
              <rect class="cls-21" x="63.91" y="31.45" width="53.49" height="393.02"/>
              <rect class="cls-21" x="117.4" y="31.45" width="53.49" height="393.02"/>
              <rect class="cls-21" x="170.88" y="31.45" width="53.49" height="393.02"/>
              <rect class="cls-21" x="224.37" y="31.45" width="53.49" height="393.02"/>
            </g>
          </g>
          <polygon class="cls-7" points="185.53 397.34 185.53 396.35 186.56 396.35 186.56 395.36 187.59 395.36 187.59 394.37 188.63 394.37 188.63 393.38 189.66 393.38 189.66 392.39 190.69 392.39 190.69 391.4 191.72 391.4 191.72 390.41 192.75 390.41 192.75 389.42 193.78 389.42 193.78 388.43 194.81 388.43 194.81 387.44 195.84 387.44 195.84 386.45 196.87 386.45 196.87 385.46 197.91 385.46 197.91 384.47 198.94 384.47 198.94 383.47 199.97 383.47 199.97 382.48 201 382.48 201 381.49 202.03 381.49 202.03 380.5 203.06 380.5 203.06 379.51 204.09 379.51 204.09 378.52 205.12 378.52 205.12 377.53 206.15 377.53 206.15 220.87 38.1 220.87 38.1 221.86 37.07 221.86 37.07 222.85 36.03 222.85 36.03 223.84 35 223.84 35 224.83 33.97 224.83 33.97 225.82 32.94 225.82 32.94 226.81 31.91 226.81 31.91 227.8 30.88 227.8 30.88 228.79 29.85 228.79 29.85 229.78 28.82 229.78 28.82 230.77 27.79 230.77 27.79 231.76 26.75 231.76 26.75 232.75 25.72 232.75 25.72 233.74 24.69 233.74 24.69 234.73 23.66 234.73 23.66 235.72 22.63 235.72 22.63 236.71 21.6 236.71 21.6 237.7 20.57 237.7 20.57 238.69 19.54 238.69 19.54 239.68 18.51 239.68 18.51 240.67 17.47 240.67 17.47 241.66 16.44 241.66 16.44 398.33 184.5 398.33 184.5 397.34 185.53 397.34 185.53 397.34"/>
          <g>
            <g>
              <rect class="cls-19" x="15.59" y="242.52" width="168.06" height="156.67"/>
              <rect class="cls-5" x="15.59" y="245.28" width="168.06" height="1.68"/>
              <rect class="cls-5" x="15.59" y="249.84" width="168.06" height="1.68"/>
              <rect class="cls-5" x="15.59" y="254.39" width="168.06" height="1.68"/>
              <rect class="cls-5" x="15.59" y="258.95" width="168.06" height="1.68"/>
              <rect class="cls-5" x="15.59" y="263.5" width="168.06" height="1.68"/>
              <rect class="cls-5" x="15.59" y="268.06" width="168.06" height="1.68"/>
              <rect class="cls-5" x="15.59" y="272.62" width="168.06" height="1.68"/>
              <rect class="cls-5" x="15.59" y="277.17" width="168.06" height="1.68"/>
              <rect class="cls-5" x="15.59" y="281.73" width="168.06" height="1.68"/>
              <rect class="cls-5" x="15.59" y="286.28" width="168.06" height="1.68"/>
              <rect class="cls-5" x="15.59" y="290.84" width="168.06" height="1.68"/>
              <rect class="cls-5" x="15.59" y="295.39" width="168.06" height="1.68"/>
              <rect class="cls-5" x="15.59" y="299.95" width="168.06" height="1.68"/>
              <rect class="cls-5" x="15.59" y="304.51" width="168.06" height="1.68"/>
              <rect class="cls-5" x="15.59" y="309.06" width="168.06" height="1.68"/>
              <rect class="cls-5" x="15.59" y="313.62" width="168.06" height="1.68"/>
              <rect class="cls-5" x="15.59" y="318.17" width="168.06" height="1.68"/>
              <rect class="cls-5" x="15.59" y="322.73" width="168.06" height="1.68"/>
              <rect class="cls-5" x="15.59" y="327.28" width="168.06" height="1.68"/>
              <rect class="cls-5" x="15.59" y="331.84" width="168.06" height="1.68"/>
              <rect class="cls-5" x="15.59" y="336.4" width="168.06" height="1.68"/>
              <rect class="cls-5" x="15.59" y="340.95" width="168.06" height="1.68"/>
              <rect class="cls-5" x="15.59" y="345.51" width="168.06" height="1.68"/>
              <rect class="cls-5" x="15.59" y="350.06" width="168.06" height="1.68"/>
              <rect class="cls-5" x="15.59" y="354.62" width="168.06" height="1.68"/>
              <rect class="cls-5" x="15.59" y="359.17" width="168.06" height="1.68"/>
              <rect class="cls-5" x="15.59" y="363.73" width="168.06" height="1.68"/>
              <rect class="cls-5" x="15.59" y="368.29" width="168.06" height="1.68"/>
              <rect class="cls-5" x="15.59" y="372.84" width="168.06" height="1.68"/>
              <rect class="cls-5" x="15.59" y="377.4" width="168.06" height="1.68"/>
              <rect class="cls-5" x="15.59" y="381.95" width="168.06" height="1.68"/>
              <rect class="cls-5" x="15.59" y="386.51" width="168.06" height="1.68"/>
              <rect class="cls-5" x="15.59" y="391.06" width="168.06" height="1.68"/>
              <rect class="cls-5" x="15.59" y="395.62" width="168.06" height="1.68"/>
              <rect class="cls-13" x="98.74" y="242.52" width="1.76" height="156.67"/>
            </g>
            <rect class="cls-13" x="87.42" y="242.52" width="24.39" height="156.67"/>
          </g>
          <polygon class="cls-7" points="102.93 232.69 102.93 231.7 103.96 231.7 103.96 230.71 104.99 230.71 104.99 229.72 106.02 229.72 106.02 228.73 107.06 228.73 107.06 227.74 108.09 227.74 108.09 226.75 109.12 226.75 109.12 225.76 110.15 225.76 110.15 224.77 111.18 224.77 111.18 223.78 112.21 223.78 112.21 222.79 113.24 222.79 113.24 221.8 114.27 221.8 114.27 220.81 115.3 220.81 115.3 219.82 116.33 219.82 116.33 218.82 117.37 218.82 117.37 217.83 118.4 217.83 118.4 216.84 119.43 216.84 119.43 215.85 120.46 215.85 120.46 214.86 121.49 214.86 121.49 213.87 122.52 213.87 122.52 212.88 123.55 212.88 123.55 44.83 35.11 44.83 35.11 45.82 34.08 45.82 34.08 46.81 33.04 46.81 33.04 47.8 32.01 47.8 32.01 48.79 30.98 48.79 30.98 49.78 29.95 49.78 29.95 50.77 28.92 50.77 28.92 51.76 27.89 51.76 27.89 52.75 26.86 52.75 26.86 53.74 25.83 53.74 25.83 54.73 24.8 54.73 24.8 55.72 23.76 55.72 23.76 56.71 22.73 56.71 22.73 57.7 21.7 57.7 21.7 58.69 20.67 58.69 20.67 59.68 19.64 59.68 19.64 60.67 18.61 60.67 18.61 61.66 17.58 61.66 17.58 62.65 16.55 62.65 16.55 63.64 15.52 63.64 15.52 64.63 14.49 64.63 14.49 65.62 13.45 65.62 13.45 137.46 13.27 137.46 13.27 161.84 13.45 161.84 13.45 233.68 101.9 233.68 101.9 232.69 102.93 232.69 102.93 232.69"/>
          <g>
            <rect class="cls-19" x="12.6" y="66.48" width="88.45" height="168.06"/>
            <rect class="cls-5" x="15.48" y="66.48" width="1.68" height="168.06"/>
            <rect class="cls-5" x="20.03" y="66.48" width="1.68" height="168.06"/>
            <rect class="cls-5" x="24.59" y="66.48" width="1.68" height="168.06"/>
            <rect class="cls-5" x="29.14" y="66.48" width="1.68" height="168.06"/>
            <rect class="cls-5" x="33.7" y="66.48" width="1.68" height="168.06"/>
            <rect class="cls-5" x="38.25" y="66.48" width="1.68" height="168.06"/>
            <rect class="cls-5" x="42.81" y="66.48" width="1.68" height="168.06"/>
            <rect class="cls-5" x="47.37" y="66.48" width="1.68" height="168.06"/>
            <rect class="cls-5" x="51.92" y="66.48" width="1.68" height="168.06"/>
            <rect class="cls-5" x="56.48" y="66.48" width="1.68" height="168.06"/>
            <rect class="cls-5" x="61.03" y="66.48" width="1.68" height="168.06"/>
            <rect class="cls-5" x="65.59" y="66.48" width="1.68" height="168.06"/>
            <rect class="cls-5" x="70.14" y="66.48" width="1.68" height="168.06"/>
            <rect class="cls-5" x="74.7" y="66.48" width="1.68" height="168.06"/>
            <rect class="cls-5" x="79.26" y="66.48" width="1.68" height="168.06"/>
            <rect class="cls-5" x="83.81" y="66.48" width="1.68" height="168.06"/>
            <rect class="cls-5" x="88.37" y="66.48" width="1.68" height="168.06"/>
            <rect class="cls-5" x="92.92" y="66.48" width="1.68" height="168.06"/>
            <rect class="cls-5" x="97.48" y="66.48" width="1.68" height="168.06"/>
            <rect class="cls-13" x="12.41" y="149.63" width="88.63" height="1.76"/>
            <rect class="cls-13" x="12.41" y="138.31" width="88.63" height="24.39"/>
          </g>
          <polygon class="cls-7" points="134.91 73.15 134.91 74.04 133.99 74.04 133.99 74.92 133.07 74.92 133.07 75.81 132.14 75.81 132.14 76.7 131.22 76.7 131.22 77.58 130.3 77.58 130.3 78.47 129.37 78.47 129.37 79.35 128.45 79.35 128.45 80.24 127.53 80.24 127.53 81.13 126.61 81.13 126.61 82.01 125.68 82.01 125.68 82.9 124.76 82.9 124.76 83.78 123.84 83.78 123.84 84.67 122.92 84.67 122.92 85.56 121.99 85.56 121.99 86.44 121.07 86.44 121.07 87.33 120.15 87.33 120.15 88.22 119.22 88.22 119.22 89.1 118.3 89.1 118.3 89.99 117.38 89.99 117.38 90.88 116.46 90.88 116.46 231.08 266.86 231.08 266.86 230.2 267.78 230.2 267.78 229.31 268.7 229.31 268.7 228.43 269.63 228.43 269.63 227.54 270.55 227.54 270.55 226.65 271.47 226.65 271.47 225.77 272.4 225.77 272.4 224.88 273.32 224.88 273.32 223.99 274.24 223.99 274.24 223.11 275.16 223.11 275.16 222.22 276.09 222.22 276.09 221.34 277.01 221.34 277.01 220.45 277.93 220.45 277.93 219.56 278.85 219.56 278.85 218.68 279.78 218.68 279.78 217.79 280.7 217.79 280.7 216.9 281.62 216.9 281.62 216.02 282.55 216.02 282.55 215.13 283.47 215.13 283.47 214.25 284.39 214.25 284.39 213.36 285.31 213.36 285.31 212.47 286.24 212.47 286.24 72.26 135.83 72.26 135.83 73.15 134.91 73.15 134.91 73.15"/>
          <g>
            <g>
              <rect class="cls-19" x="115.69" y="91.64" width="150.4" height="140.21"/>
              <rect class="cls-5" x="115.69" y="227.88" width="150.4" height="1.5"/>
              <rect class="cls-5" x="115.69" y="223.8" width="150.4" height="1.5"/>
              <rect class="cls-5" x="115.69" y="219.72" width="150.4" height="1.5"/>
              <rect class="cls-5" x="115.69" y="215.64" width="150.4" height="1.5"/>
              <rect class="cls-5" x="115.69" y="211.57" width="150.4" height="1.5"/>
              <rect class="cls-5" x="115.69" y="207.49" width="150.4" height="1.5"/>
              <rect class="cls-5" x="115.69" y="203.41" width="150.4" height="1.5"/>
              <rect class="cls-5" x="115.69" y="199.34" width="150.4" height="1.5"/>
              <rect class="cls-5" x="115.69" y="195.26" width="150.4" height="1.5"/>
              <rect class="cls-5" x="115.69" y="191.18" width="150.4" height="1.5"/>
              <rect class="cls-5" x="115.69" y="187.1" width="150.4" height="1.5"/>
              <rect class="cls-5" x="115.69" y="183.03" width="150.4" height="1.5"/>
              <rect class="cls-5" x="115.69" y="178.95" width="150.4" height="1.5"/>
              <rect class="cls-5" x="115.69" y="174.87" width="150.4" height="1.5"/>
              <rect class="cls-5" x="115.69" y="170.8" width="150.4" height="1.5"/>
              <rect class="cls-5" x="115.69" y="166.72" width="150.4" height="1.5"/>
              <rect class="cls-5" x="115.69" y="162.64" width="150.4" height="1.5"/>
              <rect class="cls-5" x="115.69" y="158.56" width="150.4" height="1.5"/>
              <rect class="cls-5" x="115.69" y="154.49" width="150.4" height="1.5"/>
              <rect class="cls-5" x="115.69" y="150.41" width="150.4" height="1.5"/>
              <rect class="cls-5" x="115.69" y="146.33" width="150.4" height="1.5"/>
              <rect class="cls-5" x="115.69" y="142.26" width="150.4" height="1.5"/>
              <rect class="cls-5" x="115.69" y="138.18" width="150.4" height="1.5"/>
              <rect class="cls-5" x="115.69" y="134.1" width="150.4" height="1.5"/>
              <rect class="cls-5" x="115.69" y="130.02" width="150.4" height="1.5"/>
              <rect class="cls-5" x="115.69" y="125.95" width="150.4" height="1.5"/>
              <rect class="cls-5" x="115.69" y="121.87" width="150.4" height="1.5"/>
              <rect class="cls-5" x="115.69" y="117.79" width="150.4" height="1.5"/>
              <rect class="cls-5" x="115.69" y="113.72" width="150.4" height="1.5"/>
              <rect class="cls-5" x="115.69" y="109.64" width="150.4" height="1.5"/>
              <rect class="cls-5" x="115.69" y="105.56" width="150.4" height="1.5"/>
              <rect class="cls-5" x="115.69" y="101.48" width="150.4" height="1.5"/>
              <rect class="cls-5" x="115.69" y="97.41" width="150.4" height="1.5"/>
              <rect class="cls-5" x="115.69" y="93.33" width="150.4" height="1.5"/>
              <rect class="cls-13" x="190.1" y="91.64" width="1.58" height="140.21"/>
            </g>
            <rect class="cls-15" x="179.98" y="91.64" width="21.83" height="140.21"/>
          </g>
          <polygon class="cls-7" points="208.67 248.25 208.67 249.09 207.8 249.09 207.8 249.92 206.93 249.92 206.93 250.76 206.06 250.76 206.06 251.6 205.19 251.6 205.19 252.43 204.32 252.43 204.32 253.27 203.45 253.27 203.45 254.1 202.58 254.1 202.58 254.94 201.7 254.94 201.7 255.78 200.83 255.78 200.83 256.61 199.96 256.61 199.96 257.45 199.09 257.45 199.09 258.29 198.22 258.29 198.22 259.12 197.35 259.12 197.35 259.96 196.48 259.96 196.48 260.8 195.61 260.8 195.61 261.63 194.74 261.63 194.74 262.47 193.87 262.47 193.87 263.31 193 263.31 193 264.14 192.12 264.14 192.12 264.98 191.25 264.98 191.25 406.93 265.96 406.93 265.96 406.1 266.83 406.1 266.83 405.26 267.7 405.26 267.7 404.42 268.57 404.42 268.57 403.59 269.45 403.59 269.45 402.75 270.32 402.75 270.32 401.91 271.19 401.91 271.19 401.08 272.06 401.08 272.06 400.24 272.93 400.24 272.93 399.41 273.8 399.41 273.8 398.57 274.67 398.57 274.67 397.73 275.54 397.73 275.54 396.9 276.41 396.9 276.41 396.06 277.28 396.06 277.28 395.22 278.16 395.22 278.16 394.39 279.03 394.39 279.03 393.55 279.9 393.55 279.9 392.71 280.77 392.71 280.77 391.88 281.64 391.88 281.64 391.04 282.51 391.04 282.51 390.2 283.38 390.2 283.38 389.37 284.25 389.37 284.25 328.69 284.41 328.69 284.41 308.09 284.25 308.09 284.25 247.41 209.54 247.41 209.54 248.25 208.67 248.25 208.67 248.25"/>
          <g>
            <rect class="cls-19" x="190.53" y="265.7" width="74.71" height="141.95"/>
            <rect class="cls-5" x="261.39" y="265.7" width="1.42" height="141.95"/>
            <rect class="cls-5" x="257.54" y="265.7" width="1.42" height="141.95"/>
            <rect class="cls-5" x="253.69" y="265.7" width="1.42" height="141.95"/>
            <rect class="cls-5" x="249.85" y="265.7" width="1.42" height="141.95"/>
            <rect class="cls-5" x="246" y="265.7" width="1.42" height="141.95"/>
            <rect class="cls-5" x="242.15" y="265.7" width="1.42" height="141.95"/>
            <rect class="cls-5" x="238.3" y="265.7" width="1.42" height="141.95"/>
            <rect class="cls-5" x="234.45" y="265.7" width="1.42" height="141.95"/>
            <rect class="cls-5" x="230.61" y="265.7" width="1.42" height="141.95"/>
            <rect class="cls-5" x="226.76" y="265.7" width="1.42" height="141.95"/>
            <rect class="cls-5" x="222.91" y="265.7" width="1.42" height="141.95"/>
            <rect class="cls-5" x="219.06" y="265.7" width="1.42" height="141.95"/>
            <rect class="cls-5" x="215.21" y="265.7" width="1.42" height="141.95"/>
            <rect class="cls-5" x="211.37" y="265.7" width="1.42" height="141.95"/>
            <rect class="cls-5" x="207.52" y="265.7" width="1.42" height="141.95"/>
            <rect class="cls-5" x="203.67" y="265.7" width="1.42" height="141.95"/>
            <rect class="cls-5" x="199.82" y="265.7" width="1.42" height="141.95"/>
            <rect class="cls-5" x="195.97" y="265.7" width="1.42" height="141.95"/>
            <rect class="cls-5" x="192.12" y="265.7" width="1.42" height="141.95"/>
            <rect class="cls-13" x="190.53" y="335.94" width="74.86" height="1.49"/>
            <rect class="cls-15" x="190.53" y="326.38" width="74.86" height="20.6"/>
          </g>
        </g>
      </g>
    </g>
  </g>
</svg>