<?xml version="1.0" encoding="UTF-8"?>
<svg xmlns="http://www.w3.org/2000/svg" xmlns:xlink="http://www.w3.org/1999/xlink" viewBox="0 0 725.26 445.48">
  <defs>
    <style>
      .cls-1 {
        fill: #ea6800;
      }

      .cls-1, .cls-2, .cls-3, .cls-4, .cls-5, .cls-6, .cls-7, .cls-8, .cls-9, .cls-10, .cls-11, .cls-12, .cls-13, .cls-14, .cls-15, .cls-16, .cls-17, .cls-18, .cls-19, .cls-20, .cls-21, .cls-22, .cls-23, .cls-24, .cls-25, .cls-26, .cls-27, .cls-28, .cls-29, .cls-30, .cls-31, .cls-32, .cls-33, .cls-34, .cls-35, .cls-36, .cls-37, .cls-38, .cls-39, .cls-40, .cls-41, .cls-42, .cls-43, .cls-44, .cls-45, .cls-46, .cls-47, .cls-48, .cls-49, .cls-50, .cls-51, .cls-52, .cls-53, .cls-54, .cls-55, .cls-56, .cls-57, .cls-58, .cls-59, .cls-60, .cls-61, .cls-62, .cls-63, .cls-64, .cls-65, .cls-66, .cls-67, .cls-68, .cls-69, .cls-70, .cls-71, .cls-72, .cls-73, .cls-74, .cls-75, .cls-76, .cls-77, .cls-78, .cls-79, .cls-80, .cls-81, .cls-82, .cls-83, .cls-84, .cls-85, .cls-86, .cls-87, .cls-88, .cls-89, .cls-90, .cls-91 {
        stroke-width: 0px;
      }

      .cls-2 {
        fill: url(#linear-gradient-12);
      }

      .cls-3 {
        fill: #fca100;
      }

      .cls-4 {
        fill: #343435;
      }

      .cls-5 {
        fill: #adadb1;
      }

      .cls-5, .cls-10, .cls-23, .cls-36, .cls-44, .cls-59, .cls-72, .cls-92 {
        mix-blend-mode: multiply;
      }

      .cls-6 {
        fill: #424243;
      }

      .cls-7 {
        fill: #434448;
      }

      .cls-8 {
        fill: #242427;
      }

      .cls-9 {
        fill: url(#linear-gradient);
      }

      .cls-10, .cls-46 {
        fill: #a1a1a1;
      }

      .cls-11 {
        fill: #de4300;
      }

      .cls-12 {
        fill: #535353;
      }

      .cls-13 {
        fill: #d47640;
      }

      .cls-14 {
        fill: url(#linear-gradient-6);
      }

      .cls-15 {
        fill: #171719;
      }

      .cls-16 {
        fill: #e96500;
      }

      .cls-17 {
        fill: #1a1b1b;
      }

      .cls-93 {
        isolation: isolate;
      }

      .cls-18 {
        opacity: .05;
      }

      .cls-18, .cls-68, .cls-86 {
        fill: #fff;
      }

      .cls-19, .cls-44 {
        fill: #ababae;
      }

      .cls-20 {
        fill: #f58d00;
      }

      .cls-21 {
        fill: #f07c00;
      }

      .cls-22 {
        fill: #e86100;
      }

      .cls-23 {
        fill: #a6a6a9;
      }

      .cls-24 {
        fill: #e14d00;
      }

      .cls-25 {
        fill: url(#linear-gradient-15);
      }

      .cls-26 {
        fill: url(#linear-gradient-11);
      }

      .cls-27 {
        fill: #e04a00;
      }

      .cls-28 {
        fill: #888b92;
      }

      .cls-29 {
        fill: #37383b;
      }

      .cls-30 {
        fill: #e45700;
      }

      .cls-31 {
        fill: url(#linear-gradient-5);
      }

      .cls-32 {
        fill: #ec6f00;
      }

      .cls-33 {
        fill: #f28300;
      }

      .cls-34 {
        fill: #747b31;
        opacity: .4;
      }

      .cls-35 {
        fill: #fea800;
      }

      .cls-36 {
        fill: #d9d9d9;
      }

      .cls-37 {
        fill: #fb9e00;
      }

      .cls-38 {
        fill: #e25000;
      }

      .cls-39 {
        fill: #dc9444;
      }

      .cls-40 {
        fill: #eb6b00;
      }

      .cls-41 {
        fill: url(#linear-gradient-13);
      }

      .cls-42 {
        fill: #fa9a00;
      }

      .cls-43 {
        fill: #484b51;
      }

      .cls-45 {
        fill: url(#linear-gradient-16);
      }

      .cls-47 {
        fill: #e55a00;
      }

      .cls-48 {
        fill: #f48900;
      }

      .cls-49 {
        fill: #f89400;
      }

      .cls-50 {
        fill: #353538;
      }

      .cls-51 {
        fill: url(#linear-gradient-14);
      }

      .cls-52 {
        fill: #ed7200;
      }

      .cls-53 {
        fill: url(#linear-gradient-2);
      }

      .cls-54 {
        fill: #6a431c;
      }

      .cls-55 {
        fill: #f17f00;
      }

      .cls-56 {
        fill: url(#linear-gradient-7);
      }

      .cls-57 {
        fill: url(#radial-gradient-2);
      }

      .cls-58 {
        fill: #ee7500;
      }

      .cls-59 {
        fill: #c8c8cc;
      }

      .cls-60 {
        fill: #fda400;
      }

      .cls-61 {
        fill: url(#linear-gradient-3);
      }

      .cls-62 {
        fill: #b0b2bb;
      }

      .cls-63 {
        fill: #2c2c2c;
      }

      .cls-64 {
        fill: #e35400;
      }

      .cls-65 {
        fill: #f38600;
      }

      .cls-66 {
        fill: #272727;
      }

      .cls-67 {
        fill: #ffab00;
      }

      .cls-68 {
        opacity: .1;
      }

      .cls-69 {
        fill: #1f1f1f;
      }

      .cls-70 {
        fill: url(#linear-gradient-9);
      }

      .cls-71 {
        fill: url(#radial-gradient);
      }

      .cls-72 {
        fill: url(#linear-gradient-10);
      }

      .cls-73 {
        fill: #1f1f21;
      }

      .cls-74 {
        fill: #f99700;
      }

      .cls-75 {
        fill: #434343;
      }

      .cls-76 {
        fill: #515257;
      }

      .cls-77 {
        fill: #353535;
      }

      .cls-78 {
        fill: url(#linear-gradient-8);
      }

      .cls-79 {
        fill: #38393b;
      }

      .cls-80 {
        fill: #56575c;
      }

      .cls-94 {
        filter: url(#luminosity-noclip);
      }

      .cls-95 {
        mask: url(#mask-1);
      }

      .cls-96 {
        mask: url(#mask);
      }

      .cls-81 {
        fill: #676a6f;
      }

      .cls-82 {
        fill: #df4600;
      }

      .cls-83 {
        fill: #f69000;
      }

      .cls-84 {
        fill: url(#linear-gradient-4);
      }

      .cls-85 {
        fill: #ef7900;
      }

      .cls-86 {
        opacity: .2;
      }

      .cls-87 {
        fill: #383838;
      }

      .cls-88 {
        fill: #242424;
      }

      .cls-89 {
        fill: #e75e00;
      }

      .cls-90 {
        fill: #1e1e1f;
      }

      .cls-91 {
        fill: #202021;
      }
    </style>
    <linearGradient id="linear-gradient" x1="271.08" y1="88.1" x2="281.51" y2="88.1" gradientUnits="userSpaceOnUse">
      <stop offset=".04" stop-color="#2a2a2a"/>
      <stop offset=".52" stop-color="#848484"/>
      <stop offset=".59" stop-color="#7f7f7f"/>
      <stop offset=".67" stop-color="#717171"/>
      <stop offset=".83" stop-color="#464646"/>
      <stop offset="1" stop-color="#171717"/>
    </linearGradient>
    <linearGradient id="linear-gradient-2" y1="95.68" y2="95.68" xlink:href="#linear-gradient"/>
    <linearGradient id="linear-gradient-3" x1="286.82" y1="247.39" x2="289.1" y2="240.4" gradientTransform="translate(-61.28 100.92) rotate(-18)" gradientUnits="userSpaceOnUse">
      <stop offset=".04" stop-color="#4c4c4c"/>
      <stop offset=".34" stop-color="#fff"/>
      <stop offset=".42" stop-color="#fafafa"/>
      <stop offset=".51" stop-color="#ebebeb"/>
      <stop offset=".61" stop-color="#d4d4d4"/>
      <stop offset=".64" stop-color="#cecece"/>
      <stop offset=".83" stop-color="#8c8c8c"/>
      <stop offset="1" stop-color="#434343"/>
    </linearGradient>
    <linearGradient id="linear-gradient-4" x1="310.92" y1="258.56" x2="315.14" y2="245.68" gradientTransform="translate(-62.57 109.07) rotate(-18)" gradientUnits="userSpaceOnUse">
      <stop offset=".04" stop-color="#2a2a2a"/>
      <stop offset=".52" stop-color="#848484"/>
      <stop offset=".59" stop-color="#7f7f7f"/>
      <stop offset=".67" stop-color="#717171"/>
      <stop offset=".83" stop-color="#464646"/>
      <stop offset="1" stop-color="#353535"/>
    </linearGradient>
    <linearGradient id="linear-gradient-5" x1="263.1" y1="241.5" x2="266.46" y2="231.23" gradientTransform="translate(-60.08 93.39) rotate(-18)" xlink:href="#linear-gradient-4"/>
    <linearGradient id="linear-gradient-6" x1="274.24" y1="245.79" x2="277.99" y2="234.31" gradientTransform="translate(-60.66 97.07) rotate(-18)" xlink:href="#linear-gradient-3"/>
    <linearGradient id="linear-gradient-7" x1="258.97" y1="240.81" x2="262.71" y2="229.36" gradientTransform="translate(-59.88 92.11) rotate(-18)" xlink:href="#linear-gradient-3"/>
    <linearGradient id="linear-gradient-8" x1="236.31" y1="271.42" x2="283.52" y2="271.42" gradientUnits="userSpaceOnUse">
      <stop offset="0" stop-color="#343435"/>
      <stop offset=".68" stop-color="#363637"/>
      <stop offset=".72" stop-color="#373738"/>
      <stop offset=".73" stop-color="#3e3e3f"/>
      <stop offset=".74" stop-color="#444445"/>
      <stop offset=".83" stop-color="#414143"/>
      <stop offset=".9" stop-color="#555556"/>
      <stop offset=".96" stop-color="#383839"/>
      <stop offset="1" stop-color="#272727"/>
    </linearGradient>
    <linearGradient id="linear-gradient-9" x1="288.49" y1="255.29" x2="320" y2="255.29" gradientUnits="userSpaceOnUse">
      <stop offset="0" stop-color="#965f13"/>
      <stop offset=".04" stop-color="#ce8835"/>
      <stop offset=".94" stop-color="#d18a37"/>
      <stop offset=".96" stop-color="#d28c3b"/>
      <stop offset=".97" stop-color="#d89547"/>
      <stop offset=".99" stop-color="#e2a45c"/>
      <stop offset="1" stop-color="#ecb370"/>
    </linearGradient>
    <filter id="luminosity-noclip" x="694.7" y="317.57" width="30.5" height="73.08" color-interpolation-filters="sRGB" filterUnits="userSpaceOnUse">
      <feFlood flood-color="#fff" result="bg"/>
      <feBlend in="SourceGraphic" in2="bg"/>
    </filter>
    <filter id="luminosity-noclip-2" x="694.7" y="-8605.53" width="30.5" height="32766" color-interpolation-filters="sRGB" filterUnits="userSpaceOnUse">
      <feFlood flood-color="#fff" result="bg"/>
      <feBlend in="SourceGraphic" in2="bg"/>
    </filter>
    <mask id="mask-1" x="694.7" y="-8605.53" width="30.5" height="32766" maskUnits="userSpaceOnUse"/>
    <linearGradient id="linear-gradient-10" x1="694.7" y1="354.11" x2="725.2" y2="354.11" gradientUnits="userSpaceOnUse">
      <stop offset="0" stop-color="#000"/>
      <stop offset=".34" stop-color="#0e0e0e"/>
      <stop offset="1" stop-color="#262626"/>
    </linearGradient>
    <mask id="mask" x="694.7" y="317.57" width="30.5" height="73.08" maskUnits="userSpaceOnUse">
      <g class="cls-94">
        <g class="cls-95">
          <path class="cls-72" d="m725.2,323.46l-2.4,52.75c-.11,2.48-1.14,4.82-2.88,6.58-4.38,4.42-11.54,7.75-11.77,7.85h0s0-35.56,0-35.56c0-15.37-6.2-24.85-13.44-30.67.76-.58,1.66-.89,2.73-.86,8.81.22,20.58-5.98,20.58-5.98.25.2.57.32.91.32.8,0,1.45.65,1.45,1.44v1.17c0,.8.65,1.45,1.45,1.45h1.93c.83,0,1.48.69,1.45,1.51Z"/>
        </g>
      </g>
    </mask>
    <linearGradient id="linear-gradient-11" x1="694.7" y1="354.11" x2="725.2" y2="354.11" gradientUnits="userSpaceOnUse">
      <stop offset="0" stop-color="#fff"/>
      <stop offset="1" stop-color="#fff"/>
    </linearGradient>
    <linearGradient id="linear-gradient-12" x1="671.77" y1="313.28" x2="671.77" y2="213.99" gradientUnits="userSpaceOnUse">
      <stop offset="0" stop-color="#9b6214"/>
      <stop offset=".03" stop-color="#d28b36"/>
      <stop offset=".94" stop-color="#d58d38"/>
      <stop offset=".96" stop-color="#d68f3c"/>
      <stop offset=".97" stop-color="#dc9848"/>
      <stop offset=".99" stop-color="#e6a75d"/>
      <stop offset="1" stop-color="#f0b672"/>
    </linearGradient>
    <linearGradient id="linear-gradient-13" x1="602.9" y1="37.14" x2="616.17" y2="37.14" gradientUnits="userSpaceOnUse">
      <stop offset=".04" stop-color="#4e4e4e"/>
      <stop offset=".34" stop-color="#b3b3b3"/>
      <stop offset=".47" stop-color="#aeaeae"/>
      <stop offset=".63" stop-color="#9f9f9f"/>
      <stop offset=".64" stop-color="#9f9f9f"/>
      <stop offset=".83" stop-color="#787878"/>
      <stop offset="1" stop-color="#4b4b4b"/>
    </linearGradient>
    <linearGradient id="linear-gradient-14" x1="602.9" y1="43.78" x2="616.17" y2="43.78" gradientUnits="userSpaceOnUse">
      <stop offset=".04" stop-color="#1a1a1a"/>
      <stop offset=".34" stop-color="#848484"/>
      <stop offset=".48" stop-color="#7f7f7f"/>
      <stop offset=".64" stop-color="#717171"/>
      <stop offset=".83" stop-color="#464646"/>
      <stop offset="1" stop-color="#171717"/>
    </linearGradient>
    <radialGradient id="radial-gradient" cx="311.06" cy="372.99" fx="311.06" fy="372.99" r="59.95" gradientTransform="translate(354.85 -110.7) rotate(45)" gradientUnits="userSpaceOnUse">
      <stop offset="0" stop-color="#343435"/>
      <stop offset=".67" stop-color="#343435"/>
      <stop offset=".68" stop-color="#272727"/>
      <stop offset=".69" stop-color="#2d2d2d"/>
      <stop offset=".7" stop-color="#3e3e3f"/>
      <stop offset=".71" stop-color="#505051"/>
      <stop offset=".73" stop-color="#3b3b3c"/>
      <stop offset=".74" stop-color="#343435"/>
      <stop offset=".75" stop-color="#343435"/>
      <stop offset=".8" stop-color="#343435"/>
      <stop offset=".83" stop-color="#272727"/>
      <stop offset=".84" stop-color="#2d2d2d"/>
      <stop offset=".85" stop-color="#3e3e3f"/>
      <stop offset=".85" stop-color="#505051"/>
      <stop offset=".87" stop-color="#3b3b3c"/>
      <stop offset=".87" stop-color="#343435"/>
      <stop offset=".88" stop-color="#343435"/>
      <stop offset=".94" stop-color="#343435"/>
      <stop offset=".97" stop-color="#272727"/>
      <stop offset=".99" stop-color="#424243"/>
      <stop offset="1" stop-color="#505051"/>
    </radialGradient>
    <radialGradient id="radial-gradient-2" cx="644.46" cy="385.6" fx="644.46" fy="385.6" r="48.37" gradientUnits="userSpaceOnUse">
      <stop offset="0" stop-color="#343435"/>
      <stop offset=".67" stop-color="#343435"/>
      <stop offset=".68" stop-color="#272727"/>
      <stop offset=".7" stop-color="#2d2d2d"/>
      <stop offset=".71" stop-color="#3e3e3f"/>
      <stop offset=".72" stop-color="#505051"/>
      <stop offset=".75" stop-color="#3b3b3c"/>
      <stop offset=".76" stop-color="#343435"/>
      <stop offset=".78" stop-color="#343435"/>
      <stop offset=".94" stop-color="#343435"/>
      <stop offset=".96" stop-color="#272727"/>
      <stop offset=".97" stop-color="#2e2e2e"/>
      <stop offset=".99" stop-color="#414142"/>
      <stop offset="1" stop-color="#505051"/>
    </radialGradient>
    <linearGradient id="linear-gradient-15" x1="503.36" y1="400.11" x2="503.36" y2="253.81" xlink:href="#linear-gradient-9"/>
    <linearGradient id="linear-gradient-16" x1="652.55" y1="313.28" x2="652.55" y2="213.99" gradientUnits="userSpaceOnUse">
      <stop offset="0" stop-color="#965f13"/>
      <stop offset=".03" stop-color="#ce8835"/>
      <stop offset=".94" stop-color="#d18a37"/>
      <stop offset=".96" stop-color="#d28c3b"/>
      <stop offset=".97" stop-color="#d89547"/>
      <stop offset=".99" stop-color="#e2a45c"/>
      <stop offset="1" stop-color="#ecb370"/>
    </linearGradient>
  </defs>
  <g class="cls-93">
    <g id="Layer_2" data-name="Layer 2">
      <g id="Layer_1-2" data-name="Layer 1">
        <g>
          <g>
            <rect class="cls-73" x="284.15" y="76.4" width="17.14" height="6.85"/>
            <rect class="cls-73" x="266.59" y="31.03" width="1.73" height="289.09"/>
            <path class="cls-15" d="m253.63,34.5v38.69h38.11v-.1c0-1.26-.72-2.42-1.85-2.98l-9.92-4.92c-3.84-1.91-6.27-5.82-6.27-10.11v-20.57h-20.07Z"/>
            <rect class="cls-73" x="272.54" y="31.03" width="7.51" height="52.22"/>
            <rect class="cls-73" x="212.93" y="330.82" width="27.35" height="22.03"/>
            <rect class="cls-59" x="216.53" y="330.82" width="8.34" height="22.03"/>
            <path class="cls-8" d="m.97,422.95l112.25,7.85c6.99.49,14,.73,21.01.73h78.66c2.97,0,5.37-2.41,5.37-5.37v-4.8H.54c-.3,0-.54.24-.54.54h0c0,.55.42,1,.97,1.04Z"/>
            <rect class="cls-87" x="205.13" y="210.18" width="16.46" height="216.28" rx=".97" ry=".97"/>
            <circle class="cls-59" cx="216.53" cy="402.89" r="3.61"/>
            <circle class="cls-28" cx="216.53" cy="402.89" r="2.96"/>
            <circle class="cls-59" cx="216.53" cy="343.32" r="3.61"/>
            <circle class="cls-28" cx="216.53" cy="343.32" r="2.96"/>
            <g>
              <circle class="cls-8" cx="277.45" cy="51.83" r="12.57"/>
              <circle class="cls-28" cx="277.45" cy="51.83" r="11.2" transform="translate(-4.41 66.68) rotate(-13.6)"/>
              <g>
                <g>
                  <path class="cls-4" d="m263.7,47.11c-.15.22-.23.47-.24.7-.03.44,0,.89-.12,1.32l-.07.28c-.08.43-.23.84-.42,1.25-.11.21-.11.47-.06.73.09.43.4.78.79.88.77.18,1.51-.37,1.54-1.04,0-.12,0-.23-.03-.34-.07-.36-.12-.75-.05-1.12l.06-.25c.1-.36.25-.71.49-1,.07-.09.13-.19.17-.3.2-.64-.17-1.42-.98-1.58-.4-.07-.86.1-1.09.47Z"/>
                  <g>
                    <path class="cls-90" d="m264.81,47.38c-.25-.1-.52.04-.61.3-.09.26.04.53.29.61.25.08.53-.06.61-.3.08-.24-.05-.51-.29-.61Z"/>
                    <path class="cls-90" d="m263.92,51.6c-.26-.01-.47-.24-.45-.52,0-.27.27-.47.53-.43.27.03.43.26.42.52-.01.25-.24.45-.5.44Z"/>
                  </g>
                </g>
                <g>
                  <path class="cls-4" d="m262.29,52.79c-.15.22-.23.47-.24.7-.03.44,0,.89-.12,1.32l-.07.28c-.08.43-.23.84-.42,1.25-.11.21-.11.47-.06.73.09.43.4.78.79.88.77.18,1.51-.37,1.54-1.04,0-.12,0-.23-.03-.34-.07-.36-.12-.75-.05-1.12l.06-.25c.1-.36.25-.71.49-1,.07-.09.13-.19.17-.3.2-.64-.17-1.42-.98-1.58-.4-.07-.86.1-1.09.47Z"/>
                  <g>
                    <path class="cls-90" d="m263.4,53.06c-.25-.1-.52.04-.61.3-.09.26.04.53.29.61.25.08.53-.06.61-.3.08-.24-.05-.51-.29-.61Z"/>
                    <path class="cls-90" d="m262.51,57.28c-.26-.01-.47-.24-.45-.52,0-.27.27-.47.53-.43.27.03.43.26.42.52-.01.25-.24.45-.5.44Z"/>
                  </g>
                </g>
                <g>
                  <path class="cls-4" d="m267.03,41.9c-.24.13-.41.32-.5.54-.09.2-.19.4-.3.59-.11.19-.23.37-.35.56l-.17.24c-.13.18-.27.34-.43.5-.16.16-.3.32-.47.47-.17.16-.3.38-.37.64-.09.43.07.88.38,1.14.32.25.7.31,1.03.24.33-.07.61-.27.79-.56.06-.1.1-.21.12-.32.04-.18.07-.38.14-.55.07-.17.16-.34.27-.49l.15-.21c.1-.16.24-.29.39-.4.15-.11.31-.22.47-.31.1-.05.19-.13.26-.22.48-.47.41-1.38-.24-1.83-.34-.23-.8-.23-1.19,0Z"/>
                  <g>
                    <path class="cls-90" d="m267.94,42.6c-.18-.19-.49-.19-.69,0-.18.21-.16.52.04.69.2.17.49.16.66-.04.18-.18.18-.47,0-.66Z"/>
                    <path class="cls-90" d="m265.38,46.08c-.24-.12-.32-.41-.18-.65.14-.24.43-.32.66-.18.22.14.3.43.18.65-.13.22-.42.3-.65.18Z"/>
                  </g>
                </g>
                <g>
                  <path class="cls-4" d="m272.19,38.5c-.27.04-.5.14-.68.29-.35.27-.67.59-1.06.79l-.26.14c-.38.22-.78.39-1.21.52-.23.06-.42.23-.59.44-.26.36-.32.81-.13,1.18.19.36.51.56.85.64.34.08.69.02.95-.19.09-.08.17-.16.24-.25.22-.3.47-.59.8-.78l.23-.12c.34-.17.69-.3,1.08-.3.11,0,.23-.03.33-.08.16-.07.29-.17.4-.3.11-.13.2-.26.25-.43.11-.32.09-.71-.12-1.05-.21-.34-.65-.57-1.08-.5Z"/>
                  <g>
                    <path class="cls-90" d="m272.73,39.5c-.09-.25-.37-.36-.62-.25-.25.11-.37.39-.26.63s.39.35.62.25c.23-.1.35-.38.26-.63Z"/>
                    <path class="cls-90" d="m268.99,41.65c-.17-.2-.13-.51.09-.68.21-.18.53-.11.68.11.15.22.09.5-.1.66-.2.16-.49.12-.66-.08Z"/>
                  </g>
                </g>
                <g>
                  <path class="cls-4" d="m278.3,37.5c-.26-.09-.51-.06-.74,0-.21.06-.43.12-.64.17-.11.02-.21.04-.32.05-.11.02-.22.04-.33.05l-.29.03c-.44.05-.88-.01-1.32-.03-.23-.02-.48.03-.72.15-.39.21-.61.64-.59,1.04.02.4.24.73.51.93.14.1.29.17.45.2.16.04.33.05.5.02.12-.02.22-.07.32-.13.32-.22.67-.34,1.05-.38l.26-.03c.09-.01.19-.02.28-.02.09,0,.19.02.28.04.19.04.37.09.54.15.11.04.22.06.34.06.17,0,.34-.04.49-.1.15-.06.29-.16.4-.29.23-.25.37-.61.32-1.01-.06-.4-.36-.76-.78-.91Z"/>
                  <g>
                    <path class="cls-90" d="m278.38,38.64c.02-.26-.19-.51-.47-.5-.27,0-.49.22-.49.48,0,.26.21.47.47.47.25-.01.47-.19.49-.46Z"/>
                    <path class="cls-90" d="m274.08,39.06c-.07-.25.09-.51.36-.57.27-.06.53.11.57.37s-.11.51-.36.57-.5-.11-.57-.37Z"/>
                  </g>
                </g>
                <g>
                  <path class="cls-4" d="m284.28,39.11c-.19-.2-.44-.27-.67-.31-.45-.05-.86-.16-1.29-.28l-.28-.09c-.42-.13-.8-.38-1.19-.57-.21-.11-.45-.17-.72-.15-.44,0-.82.33-.96.7-.27.77.21,1.48.86,1.64.12.02.23.03.34,0,.38-.07.75-.03,1.11.08l.25.08c.37.1.66.37.93.61.08.08.18.14.28.19.31.14.65.16.97.02.31-.14.6-.4.71-.79.12-.39-.02-.84-.34-1.15Z"/>
                  <g>
                    <path class="cls-90" d="m283.87,40.18c.12-.22.04-.55-.22-.65-.25-.11-.54,0-.65.24-.11.24,0,.52.23.62.24.09.5.03.63-.21Z"/>
                    <path class="cls-90" d="m279.79,38.8c.04-.26.29-.43.56-.37s.44.31.37.56c-.06.26-.32.42-.56.37-.25-.05-.42-.3-.37-.56Z"/>
                  </g>
                </g>
                <g>
                  <path class="cls-4" d="m289.05,43.04c-.1-.25-.27-.45-.47-.56-.39-.23-.74-.48-1.06-.78l-.22-.19c-.34-.28-.57-.67-.85-1.01-.14-.18-.34-.34-.6-.43-.21-.08-.42-.1-.62-.06-.21.05-.4.15-.54.29-.29.29-.39.66-.36.99.04.33.18.67.46.86.1.07.2.12.31.15.37.1.69.3.98.54l.2.17c.27.26.45.61.6.95.04.11.11.2.18.29.41.54,1.32.57,1.85-.03.26-.31.32-.77.15-1.18Z"/>
                  <g>
                    <path class="cls-90" d="m288.25,43.86c.21-.16.24-.47.07-.69-.18-.21-.5-.22-.69-.05-.2.18-.21.47-.04.66.15.2.45.23.66.07Z"/>
                    <path class="cls-90" d="m285.09,40.92c.15-.22.45-.27.67-.11s.27.46.11.66-.46.26-.67.11c-.21-.15-.26-.44-.11-.66Z"/>
                  </g>
                </g>
                <g>
                  <path class="cls-4" d="m291.84,48.54c0-.27-.06-.52-.2-.71-.27-.36-.51-.73-.66-1.14,0,0-.12-.27-.12-.27-.19-.4-.29-.83-.37-1.27-.06-.22-.19-.44-.38-.63-.32-.3-.76-.41-1.15-.26-.38.15-.61.44-.73.77-.12.33-.11.68.08.98.06.1.14.19.23.26.27.26.51.55.68.89,0,0,.12.23.11.24.13.36.18.74.18,1.11,0,.11.01.23.04.34.17.65,1,1.05,1.72.71.36-.18.59-.58.59-1.02Z"/>
                  <g>
                    <path class="cls-90" d="m290.78,48.97c.26-.07.41-.33.34-.6-.06-.27-.36-.4-.6-.32-.26.09-.36.34-.31.59.06.25.32.39.58.33Z"/>
                    <path class="cls-90" d="m289.07,45.02c.22-.14.52-.07.66.17.15.23.07.53-.17.65-.23.12-.51.04-.65-.17-.13-.22-.06-.51.16-.65Z"/>
                  </g>
                </g>
                <g>
                  <path class="cls-4" d="m292.41,54.55c.07-.24.06-.47,0-.68-.12-.4-.23-.8-.23-1.21v-.29c-.03-.44.05-.87.15-1.31.04-.23,0-.48-.1-.73-.18-.4-.55-.68-.95-.69-.8-.02-1.4.68-1.29,1.34.02.12.06.23.11.33.15.34.25.71.27,1.09v.26c.01.41-.08.8-.21,1.19-.04.12-.06.24-.06.37,0,.75.7,1.34,1.49,1.15.4-.1.72-.42.83-.81Z"/>
                  <g>
                    <path class="cls-90" d="m291.27,54.68c.26,0,.48-.21.48-.48s-.21-.48-.48-.48-.48.21-.48.48.21.48.48.48Z"/>
                    <path class="cls-90" d="m291.08,50.36c.26-.04.5.14.55.41.05.27-.15.51-.42.53-.26.02-.48-.17-.53-.42-.04-.25.14-.49.4-.53Z"/>
                  </g>
                </g>
                <g>
                  <path class="cls-4" d="m292.41,60.3c.07-.24.06-.47,0-.68-.12-.4-.23-.8-.23-1.21v-.27c0-.41.1-.82.23-1.21.06-.21.07-.44,0-.68-.11-.39-.44-.71-.83-.81-.78-.2-1.49.39-1.49,1.15,0,.13.02.25.06.37.13.38.22.78.22,1.18v.28c0,.41-.09.8-.22,1.19-.04.12-.06.24-.06.37,0,.75.7,1.34,1.49,1.15.4-.1.72-.42.83-.81Z"/>
                  <g>
                    <path class="cls-90" d="m291.27,60.44c.26,0,.48-.21.48-.48s-.21-.48-.48-.48-.48.21-.48.48.21.48.48.48Z"/>
                    <path class="cls-90" d="m291.27,56.11c.26,0,.48.21.48.48s-.21.48-.48.48-.48-.21-.48-.48.21-.48.48-.48Z"/>
                  </g>
                </g>
                <g>
                  <path class="cls-4" d="m292.41,66.06c.07-.24.06-.47,0-.68-.12-.4-.23-.8-.23-1.21v-.27c0-.41.1-.82.23-1.21.06-.21.07-.44,0-.68-.11-.39-.44-.71-.83-.81-.78-.2-1.49.39-1.49,1.15,0,.13.02.25.06.37.13.38.22.78.22,1.18v.28c0,.41-.09.8-.22,1.19-.04.12-.06.24-.06.37,0,.75.7,1.34,1.49,1.15.4-.1.72-.42.83-.81Z"/>
                  <g>
                    <path class="cls-90" d="m291.27,66.19c.26,0,.48-.21.48-.48s-.21-.48-.48-.48-.48.21-.48.48.21.48.48.48Z"/>
                    <path class="cls-90" d="m291.27,61.86c.26,0,.48.21.48.48s-.21.48-.48.48-.48-.21-.48-.48.21-.48.48-.48Z"/>
                  </g>
                </g>
              </g>
              <circle class="cls-8" cx="277.45" cy="51.83" r="3.52"/>
            </g>
            <rect class="cls-87" x="234.29" y="27.57" width="28.87" height="381.39"/>
            <path class="cls-44" d="m243.06,257.13h20.11v28.52l-1.98,1.54c-1.83,1.43-4.08,2.2-6.4,2.2h-11.73c-3.43,0-6.2-2.78-6.2-6.2v-19.85c0-3.43,2.78-6.21,6.2-6.21Z"/>
            <rect class="cls-59" x="242.37" y="73.91" width="20.79" height="11.69"/>
            <rect class="cls-73" x="272.54" y="84.3" width="7.51" height="231.49"/>
            <rect class="cls-44" x="272.54" y="257.13" width="7.51" height="22.3"/>
            <rect class="cls-9" x="271.08" y="85.06" width="10.43" height="6.08" rx=".61" ry=".61"/>
            <rect class="cls-53" x="271.08" y="92.64" width="10.43" height="6.08" rx=".61" ry=".61"/>
            <path class="cls-44" d="m242.16,212.89h9.82c1.23,0,2.24,1,2.24,2.24v30.31c0,1.23-1,2.24-2.24,2.24h-9.82c-1.23,0-2.24-1-2.24-2.24v-30.31c0-1.23,1-2.24,2.24-2.24Z"/>
            <path class="cls-4" d="m241.15,211.62h9.82c1.23,0,2.24,1,2.24,2.24v30.31c0,1.23-1,2.24-2.24,2.24h-9.82c-1.23,0-2.24-1-2.24-2.24v-30.31c0-1.23,1-2.24,2.24-2.24Z"/>
            <path class="cls-44" d="m260.3,229.98l2.87.93v12.65l-6.59-2.14s-9.87-1.23-9.97-1.25c-1.09-.23-2.08-.59-2.95-1.07-.88-.48-1.64-1.07-2.26-1.76-.23-.25-.44-.51-.63-.78-.02-.02-.03-.04-.04-.06-.08-.11-.15-.23-.23-.34-.02-.03-.03-.06-.05-.09-.07-.11-.13-.22-.19-.33-.02-.03-.03-.06-.05-.09-.06-.13-.13-.26-.19-.39,0-.01-.01-.03-.02-.04-.13-.29-.24-.6-.33-.91,0-.03-.02-.06-.03-.1-.03-.12-.06-.23-.09-.36,0-.04-.02-.09-.03-.13-.02-.11-.04-.23-.06-.34,0-.05-.02-.1-.02-.14-.02-.12-.03-.24-.04-.36,0-.03,0-.07-.01-.11-.03-.32-.03-.64-.01-.97,0-.05,0-.1,0-.15,0-.11.02-.23.03-.34,0-.06.01-.12.02-.18.02-.1.03-.21.05-.32,0-.06.02-.12.03-.18.02-.11.05-.23.08-.34.01-.05.02-.11.03-.16.04-.16.09-.33.15-.49h0c1.02-3.15,3.59-5.09,6.65-5.41.15-.02.3-.03.45-.03,1.48-.07,3.06.22,4.63.94.03.02,1.28.7,2.82,1.55.39.22.79.44,1.2.66.27.15.55.3.82.45.68.37,1.35.74,1.93,1.07.59.32,1.09.6,1.45.8.36.2.58.32.58.32Z"/>
            <polygon class="cls-44" points="280.05 236.4 280.05 249.05 272.54 246.61 272.54 233.96 280.05 236.4"/>
            <g>
              <rect class="cls-61" x="270.09" y="240.25" width="35.73" height="7.29" transform="translate(89.46 -77.05) rotate(18)"/>
              <rect class="cls-84" x="297.32" y="245.27" width="31.47" height="13.57" transform="translate(93.21 -84.4) rotate(18)"/>
              <rect class="cls-31" x="260.64" y="230.97" width="8.28" height="10.79" transform="translate(86 -70.25) rotate(18)"/>
              <rect class="cls-14" x="265.3" y="234.03" width="21.64" height="12.03" transform="translate(87.69 -73.57) rotate(18)"/>
              <rect class="cls-34" x="265.3" y="234.03" width="21.64" height="12.03" transform="translate(87.69 -73.57) rotate(18)"/>
              <path class="cls-62" d="m255.04,239.53l3.72-11.45s-8.71-4.81-8.8-4.85c-5.03-2.29-10.17-.29-11.73,4.5-1.56,4.79,1.42,9.44,6.84,10.54.09.02,9.97,1.25,9.97,1.25Z"/>
              <path class="cls-86" d="m239.15,228.96c1.56-4.79,6.7-6.8,11.73-4.5.07.03,5.33,2.93,7.68,4.23l.2-.61s-8.71-4.81-8.8-4.85c-5.03-2.29-10.17-.29-11.73,4.5-.93,2.86-.24,5.68,1.63,7.71-1.14-1.87-1.46-4.16-.7-6.48Z"/>
              <rect class="cls-56" x="256.7" y="229.07" width="8.28" height="12.03" transform="translate(85.41 -69.1) rotate(18)"/>
              <rect class="cls-34" x="256.7" y="229.07" width="8.28" height="12.03" transform="translate(85.41 -69.1) rotate(18)"/>
              <path class="cls-5" d="m249.8,231.5c.67-2.07-.46-4.29-2.53-4.97-2.07-.67-4.29.46-4.97,2.53-.67,2.07.46,4.29,2.53,4.97,2.07.67,4.29-.46,4.97-2.53Z"/>
              <path class="cls-62" d="m249.14,231.29c.55-1.71-.38-3.54-2.09-4.09-1.71-.55-3.54.38-4.09,2.09s.38,3.54,2.09,4.09c1.71.55,3.54-.38,4.09-2.09Z"/>
            </g>
            <rect class="cls-77" x="298.18" y="31.03" width="7.71" height="76.94"/>
            <rect class="cls-12" x="241.51" y="27.57" width="68.28" height="6.93"/>
            <rect class="cls-77" x="262.52" y="27.57" width="47.27" height="6.93"/>
            <rect class="cls-59" x="291.53" y="27.57" width="18.26" height="6.93"/>
            <rect class="cls-59" x="250.87" y="98.39" width="12.29" height="13.48"/>
            <path class="cls-77" d="m250.64,100.06h53.8c.88,0,1.6.72,1.6,1.6v6.94c0,.88-.72,1.6-1.6,1.6h-53.8v-10.14h0Z"/>
            <rect class="cls-77" x="250.64" y="75.35" width="35.52" height="8.95"/>
            <rect class="cls-59" x="274.9" y="75.35" width="11.25" height="8.95"/>
            <rect class="cls-12" x="250.64" y="75.35" width="3.13" height="8.95"/>
            <g>
              <path class="cls-78" d="m283.52,256.88c0-.88-.71-1.59-1.59-1.59h-39.41c-3.43,0-6.2,2.78-6.2,6.2v19.85c0,3.43,2.78,6.2,6.2,6.2h11.73c2.32,0,4.57-.77,6.4-2.2l9.95-7.76h11.34c.88,0,1.59-.71,1.59-1.59v-19.13Z"/>
              <circle class="cls-59" cx="251.11" cy="271.42" r="9.93" transform="translate(-57.34 67.5) rotate(-13.76)"/>
              <circle class="cls-4" cx="251.11" cy="271.42" r="8.59" transform="translate(-57.33 67.49) rotate(-13.75)"/>
            </g>
          </g>
          <g>
            <path class="cls-17" d="m543.04,186.02h9.94v17.15c0,1.16-.94,2.11-2.11,2.11h-7.83v-19.25h0Z"/>
            <path class="cls-17" d="m543.04,184.47h9.94s1.2-12.07,4.7-21.97,2.4-16.18,2.4-16.18h-13.93l-3.11,38.15Z"/>
            <g>
              <rect class="cls-17" x="477.89" y="169.54" width="4.95" height="1.75" rx=".48" ry=".48"/>
              <rect class="cls-17" x="484.3" y="169.54" width="4.95" height="1.75" rx=".48" ry=".48"/>
              <path class="cls-17" d="m536.56,170.34v15.06h-65.05c-1.46,0-2.64-1.18-2.64-2.64v-3.49c0-.24,0-.47.03-.7.35-4.61,4.2-8.23,8.9-8.23h58.77Z"/>
              <path class="cls-77" d="m536.56,180.12v5.28h-65.05c-1.46,0-2.64-1.18-2.64-2.64v-2.64h67.7Z"/>
              <path class="cls-77" d="m536.56,170.34v8.23h-67.67c.35-4.61,4.2-8.23,8.9-8.23h58.77Z"/>
              <path class="cls-17" d="m506.37,173.3c-1.83,0-3.35-1.26-3.77-2.96h-.97c.43,2.23,2.39,3.91,4.74,3.91h30.19v-.95h-30.19Z"/>
              <path class="cls-17" d="m499.67,177.01h-5.41c-.71,0-1.28-.57-1.28-1.28v-2.39c0-.71.57-1.28,1.28-1.28h5.41c.71,0,1.28.57,1.28,1.28v2.39c0,.71-.57,1.28-1.28,1.28Zm-5.41-4.48c-.45,0-.82.37-.82.82v2.39c0,.45.37.82.82.82h5.41c.45,0,.82-.37.82-.82v-2.39c0-.45-.37-.82-.82-.82h-5.41Z"/>
            </g>
            <path class="cls-17" d="m528.22,205.27l-6.83,6.83-.16,9.63h21.82l2.64-16.46h-17.47Zm8.5,14.87h-7.84c-.9,0-1.63-.73-1.63-1.63s.73-1.63,1.63-1.63h7.84c.9,0,1.63.73,1.63,1.63s-.73,1.63-1.63,1.63Z"/>
            <rect class="cls-17" x="461.3" y="235.84" width="81.67" height="4.93"/>
            <polygon class="cls-17" points="483.62 232.93 469.41 222.28 536.02 222.28 536.02 233.51 483.62 232.93"/>
            <path class="cls-77" d="m524.96,215.97v3.47c0,1.94-1.58,3.52-3.52,3.52h-53.74c-2.85,0-5.16-2.31-5.16-5.17v-4.25c0-2.85,2.31-5.17,5.16-5.17h49.66c4.19,0,7.6,3.4,7.6,7.6Z"/>
            <path class="cls-18" d="m465.91,221.91v-7.13c0-2.06,1.67-3.73,3.73-3.73h52.53c.36,0,.71.04,1.05.1-1.39-1.69-3.5-2.77-5.87-2.77h-49.66c-2.85,0-5.16,2.31-5.16,5.16v4.25c0,2.25,1.44,4.16,3.45,4.87-.05-.24-.08-.49-.08-.75Z"/>
            <path class="cls-77" d="m556.16,159c-4.41,9.67-9.67,41.41-10.67,47.53-.1.59-.61,1.03-1.21,1.03h-2.91l-2.93-.39-2.49-.33c-3.27-.42-6.05-2.66-7.09-5.79-.61-1.84-1.01-3.95-1.26-6.07-.05-.43-.1-.86-.14-1.29-.12-1.35-.19-2.7-.21-4.05-.09-5.76.75-11.5,2.39-17.04,1.43-4.86,3.65-10.84,6.96-16.17,6.82-10.96,12.43-17.48,17.34-16.32.2.04.4.1.6.17,5.05,1.87,5.67,6.6,5.67,6.6,0,0,.85,1.4-4.04,12.11Z"/>
            <path class="cls-18" d="m532.21,204.29c-.74-2.22-1.16-4.82-1.39-7.36-.65-7.1.16-14.25,2.17-21.09,1.43-4.86,3.65-10.84,6.96-16.16,6.82-10.97,12.43-17.49,17.34-16.33.2.04.4.1.6.18.46.17.88.36,1.27.57-.81-1.37-2.21-2.92-4.62-3.81-.2-.07-.4-.14-.6-.18-4.9-1.16-10.51,5.36-17.34,16.33-3.31,5.32-5.53,11.3-6.96,16.16-2.01,6.84-2.82,13.99-2.17,21.09.23,2.54.66,5.14,1.39,7.36.69,2.1,2.18,3.79,4.06,4.81-.29-.49-.53-1.02-.71-1.58Z"/>
            <path class="cls-66" d="m556.16,159c-4.41,9.66-9.68,41.41-10.67,47.53-.1.59-.61,1.03-1.21,1.03h-2.91s.88-4.71,2.38-13.62c3.21-19.1,7.44-34,9.47-42.7,1.05-4.53,1.01-8.43.72-11.12.2.04.4.1.6.18,5.04,1.86,5.67,6.6,5.67,6.6,0,0,.85,1.4-4.04,12.11Z"/>
            <path class="cls-10" d="m504.31,208.38l-2.71,5.27c.41.25.57.77.35,1.2l-3.6,6.99c-.16.32-.56.45-.88.29l-4.63-2.39c-.32-.17-.45-.56-.28-.88l3.59-6.99c.23-.45.79-.63,1.24-.4h.01s.06.04.06.04l1.62-3.14h5.24Z"/>
            <path class="cls-10" d="m543.05,205.95v4.34c0,.6-.49,1.09-1.1,1.09h-2.41c-.61,0-1.1-.49-1.1-1.09v-4.34s-.23-2.83-2.79-5.28c-.02-.02-.05-.04-.07-.07-2.37-2.25-5.07-4.13-7.98-5.62-.05-.43-.1-.86-.14-1.29-.12-1.35-.19-2.7-.21-4.05,1.82.88,4.42,2.17,5.72,2.93,4.11,2.39,10.07,6.34,10.07,13.37Z"/>
            <path class="cls-66" d="m532.35,191.9c-1.57-.91-5.03-2.6-6.72-3.42-7.75-3.76-16.92-.68-20.87,6.97l-9.84,19.11,4.14,2.13,9.84-19.11c2.76-5.35,9.28-7.53,14.7-4.91l2.75,1.33c3.15,1.52,6.07,3.51,8.61,5.92.02.02.05.04.07.07,2.56,2.45,2.79,5.28,2.79,5.28v4.33c0,.6.49,1.09,1.09,1.09h2.42c.6,0,1.09-.49,1.09-1.09v-4.33c0-7.03-5.97-10.98-10.07-13.37Z"/>
            <path class="cls-28" d="m541.86,208.38c0-.94-.76-1.71-1.71-1.71s-1.71.76-1.71,1.71.76,1.71,1.71,1.71,1.71-.76,1.71-1.71Z"/>
            <g class="cls-92">
              <path class="cls-46" d="m540.15,209.5c-.62,0-1.12-.5-1.12-1.12s.5-1.12,1.12-1.12,1.12.5,1.12,1.12-.5,1.12-1.12,1.12Zm0-1.97c-.47,0-.85.38-.85.85s.38.85.85.85.85-.38.85-.85-.38-.85-.85-.85Z"/>
            </g>
            <path class="cls-7" d="m474.34,231.61h62.84c.64,0,1.16.52,1.16,1.16v4h-65.17v-4c0-.64.52-1.16,1.16-1.16Z"/>
            <path class="cls-7" d="m500.92,212.93l-4.15-2.12h-.01c-.45-.24-1-.06-1.24.39l-3.6,6.98c-.17.32-.04.72.28.89l4.63,2.39c.32.17.72.04.88-.28l3.6-6.99c.23-.45.05-1.01-.4-1.24Z"/>
            <path class="cls-10" d="m498.19,217.24c0-.94-.76-1.71-1.71-1.71s-1.71.76-1.71,1.71.76,1.71,1.71,1.71,1.71-.76,1.71-1.71Z"/>
            <circle class="cls-28" cx="496.37" cy="217.03" r="1.71"/>
            <g class="cls-92">
              <path class="cls-46" d="m496.37,218.15c-.62,0-1.12-.5-1.12-1.12s.5-1.12,1.12-1.12,1.12.5,1.12,1.12-.5,1.12-1.12,1.12Zm0-1.97c-.47,0-.85.38-.85.85s.38.85.85.85.85-.38.85-.85-.38-.85-.85-.85Z"/>
            </g>
          </g>
          <polygon class="cls-17" points="456.37 291.94 456.37 298.44 552.61 298.44 597.63 223.64 587.74 224.73 583.58 224.73 456.37 291.94"/>
          <g>
            <path class="cls-75" d="m358.55,238.18c-.2.36-.4.73-.59,1.1-1.69,3.27-3.12,6.68-4.26,10.18-.57,1.74-1.36,3.71-1.55,5.54-.07.69-.14,4.38.17,4.67-.59-.57-1.11-1.21-1.62-1.86-4.42-5.68-7.04-12.73-7.48-19.91-.33-5.44,1.47-9.6,3.23-14.61,2.61-7.42,5.22-14.84,7.83-22.26l39.64-38.23c.36-.35.92-.37,1.3-.05l11.88,9.94c.33.28.39.77.13,1.12l-20.35,27.19c-4.33,5.78-24.13,29.62-28.34,37.18Z"/>
            <path class="cls-63" d="m355.64,235.74c-.2.36-.4.73-.59,1.1-1.69,3.27-3.12,6.68-4.26,10.18-.57,1.74-1.36,3.71-1.55,5.54-.07.69-.14,4.38.17,4.67-.59-.57-1.11-1.21-1.62-1.86-4.43-5.68-7.04-12.73-7.48-19.91-.33-5.44,1.47-9.6,3.23-14.61l7.83-22.26,39.64-38.23c.36-.35.92-.37,1.3-.05l12.48,10.44c-6.94,9.27-13.88,18.55-20.81,27.82-4.33,5.78-24.13,29.62-28.34,37.18Z"/>
            <g>
              <polygon class="cls-69" points="411.32 171.32 392.54 155.53 392.04 160.34 406.67 172.63 411.32 171.32"/>
              <path class="cls-63" d="m394.49,158.03h19.25c1.05,0,1.91.86,1.91,1.91v3.67h-23.07v-3.67c0-1.05.86-1.91,1.91-1.91Z" transform="translate(198.15 -222.27) rotate(40.04)"/>
              <path class="cls-77" d="m392.09,144.01l-.52,10.63c-.03.56.21,1.1.64,1.46l18.6,15.63c.43.36,1,.5,1.55.38l10.38-2.35-30.65-25.75Zm20.23,25.3l-17.98-15.1c-.23-.19-.36-.49-.34-.79l.34-6.89,25.55,21.47-6.73,1.52c-.29.07-.6,0-.84-.2Z"/>
              <path class="cls-69" d="m433.13,163.4l-1.85-1.56c-.96-.8-2.38-.68-3.18.28l-.15.18c-.4.48-.57,1.08-.51,1.66.08.81-.19,1.62-.71,2.24l-.47.56,2.91,2.44.47-.56c.52-.62,1.27-1.02,2.09-1.09.58-.04,1.14-.31,1.54-.79l.15-.18c.8-.96.68-2.38-.28-3.18Z"/>
              <path class="cls-63" d="m431.28,170.1l-41.62-34.97c-1.42-1.19-3.53-1.01-4.72.41h0c-1.19,1.42-1.01,3.53.41,4.72l41.62,34.97c1.42,1.19,3.53,1.01,4.72-.41h0c1.19-1.42,1.01-3.53-.41-4.72Z"/>
            </g>
            <path class="cls-75" d="m359.28,289.25l-7.1-41.2c-1.07-6.19.36-12.66,3.94-17.82,1.76-2.53,4-4.72,6.58-6.42,1.32-.87,2.73-1.6,4.19-2.19,1.22-.49,2.96-.66,3.97-1.53,1.28-1.1,2.63-2.95,3.5-4.38.9-1.46,1.45-3.21,1.16-4.9-.44-2.63-2.88-3.84-4.98-5.13-2.26-1.38-5.25-2.81-7.1-3.52-3.05-1.16-9.41-3.03-12.54-3.56-1.83-.31-.29.52-2.14.4-.56-.03-5.75-.41-5.85-.05l-18.62,71.7,34.99,18.6Z"/>
            <path class="cls-77" d="m354.23,287.89l-7.1-41.2c-2.1-12.19,5.37-23.99,17.28-27.3h0c2.78-.77,5.25-2.41,7.03-4.69.44-.56.87-1.15,1.24-1.74.69-1.08.52-2.5-.4-3.4-3.72-3.66-14.99-12.79-34.42-11.97l-18.62,71.7,34.99,18.6Z"/>
          </g>
          <polygon class="cls-36" points="319.24 269.29 353.98 286.43 359.28 289.25 358.14 282.65 354.77 280.57 321.63 260.09 319.24 269.29"/>
          <g>
            <path class="cls-54" d="m405.93,294.54v100.83h-122.64v-107.82l71.67-5.15,4.62,2.85c9.83,6.08,21.16,9.29,32.71,9.29h13.64Z"/>
            <path class="cls-79" d="m531.88,294.54l-36.96,31.77-24.59,21.14-15.14,13.01h-58.63l-5.03-13.88v-4.29s-9.63-22.16-20.56-31.32c-10.93-9.15-28.37-21.09-51.27-23.38l-5.05-.36-5.12-.37,11.6-25.38,33.83,20.9,4.62,2.85c9.83,6.08,21.16,9.29,32.71,9.29h139.6Z"/>
            <polygon class="cls-43" points="531.88 294.54 494.92 326.31 470.33 347.45 440.8 347.45 431.45 323.1 438.55 294.54 531.88 294.54"/>
            <polygon class="cls-7" points="523.5 294.54 488.79 327.19 456.17 344.2 447.36 323.15 456.72 294.54 523.5 294.54"/>
            <polygon class="cls-76" points="447.36 323.15 431.45 323.1 438.55 294.54 456.72 294.54 447.36 323.15"/>
          </g>
          <path class="cls-80" d="m584.31,223.64c-.51,3.1-1.05,6-1.56,8.07-2.1,8.4-12.3,18.45-18.16,23.66-2.47,2.2-30.58,26.59-42.88,36.56h-65.33l-2.62-2.15-.2-.17c-1.6-1.32-2.57-3.25-2.68-5.31l-1.27-25.24-.07-1.48c-.16-3.13.54-6.26,2.05-9.01,1.07-1.96,2.48-4.34,4.13-6.72,1.14-1.64,3.02-2.61,5.02-2.61h91.44l32.13-15.6Z"/>
          <path class="cls-7" d="m584.31,223.64c-.51,3.1-1.05,6-1.56,8.07-2.1,8.4-12.3,18.45-18.16,23.66-2.47,2.2-30.58,26.59-42.88,36.56h-39.12l-5.7-25.67s3.81-7.98,9.89-16.65c6.07-8.68,16.59-10.36,16.59-10.36h48.81l32.13-15.6Z"/>
          <path class="cls-43" d="m482.59,291.94h-26.22l-2.62-2.15-.2-.17c-1.6-1.32-2.57-3.25-2.68-5.31l-1.27-25.24,4.1-1.83c7.06.79,7.92.92,14.07,1.83,6.16.91,9.11,7.2,9.11,7.2l5.7,25.67Z"/>
          <path class="cls-18" d="m469.25,239.24c-4.51,1.04-10.53,9.35-13.88,14.48-1.64,2.53-2.48,5.5-2.39,8.51l.77,27.54-.2-.17c-1.6-1.32-2.57-3.25-2.68-5.31l-1.34-26.72c-.16-3.13.54-6.26,2.05-9.01,1.07-1.96,2.48-4.34,4.13-6.72,1.14-1.64,3.02-2.61,5.02-2.61h8.51Z"/>
          <polygon class="cls-70" points="320 223.03 288.49 287.55 308.9 287.55 320 223.03"/>
          <rect class="cls-17" x="607.27" y="211.37" width="23.67" height="52.26"/>
          <path class="cls-7" d="m717.36,232.7c-3.29-18.01-5.62-21.39-12.16-25.42-6.77-4.16-69.57-5.38-69.57-5.38h-22.21v13.1h9.46l65.93,25.24h9.45c9.55-.72,15.16-3.16,17.73-4.61,1.04-.59,1.59-1.76,1.38-2.93Z"/>
          <path class="cls-29" d="m697.24,240.24h-8.44l-65.93-25.24h-9.46v-5.73h31.4s9.81-.3,27.67.69c6.25.35,9.62,2.14,12.3,4.53,3.08,2.74,4.38,4.06,12.44,25.75Z"/>
          <polygon class="cls-54" points="708.15 390.65 693.13 385.1 572.91 385.1 572.91 256.31 685.24 256.31 709.95 300.26 708.15 390.65"/>
          <g>
            <path class="cls-29" d="m725.19,323.46l-2.4,52.75c-.11,2.48-1.14,4.82-2.88,6.58-4.37,4.42-11.54,7.75-11.77,7.85h0s0-35.56,0-35.56c0-15.37-6.2-24.85-13.44-30.67-5.61-4.51-11.85-6.83-16.32-8-.01,0-.02,0-.03,0-.03,0-.07-.02-.1-.03-.16-.04-.32-.09-.48-.13-.03,0-.06-.01-.08-.02-.16-.04-.32-.08-.48-.12-.1-.03-.21-.05-.31-.07-.08-.02-.16-.04-.24-.06-.14-.03-.28-.06-.41-.09-.25-.05-.48-.1-.71-.14-.23-.05-.44-.09-.65-.13-.32-.06-.6-.1-.87-.15-.13-.02-.25-.05-.37-.1-.03,0-.06-.02-.09-.03-.06-.02-.11-.04-.16-.07-.06-.03-.12-.06-.17-.1,0,0,0,0-.01,0-.06-.04-.11-.08-.16-.13-.06-.05-.12-.1-.17-.16-.05-.04-.09-.09-.13-.14-.04-.05-.08-.11-.12-.17-.01-.02-.03-.04-.05-.07-.02-.04-.04-.08-.06-.12-.01-.03-.03-.06-.05-.1-.02-.03-.03-.06-.04-.1,0-.01,0-.03-.01-.04-.03-.1-.06-.2-.08-.31,0-.04-.01-.09-.02-.13-.01-.06-.02-.13-.01-.19,0-.01,0-.03,0-.05v-2.29l8.53-1.82,36.06-7.72v9c0,2.74.35,4.88.61,6.1.07.33.25.62.5.82.25.2.57.32.91.32.8,0,1.45.65,1.45,1.44v1.16c0,.8.65,1.45,1.45,1.45h1.93c.83,0,1.49.69,1.45,1.51Z"/>
            <g class="cls-96">
              <path class="cls-26" d="m725.2,323.46l-2.4,52.75c-.11,2.48-1.14,4.82-2.88,6.58-4.38,4.42-11.54,7.75-11.77,7.85h0s0-35.56,0-35.56c0-15.37-6.2-24.85-13.44-30.67.76-.58,1.66-.89,2.73-.86,8.81.22,20.58-5.98,20.58-5.98.25.2.57.32.91.32.8,0,1.45.65,1.45,1.44v1.17c0,.8.65,1.45,1.45,1.45h1.93c.83,0,1.48.69,1.45,1.51Z"/>
            </g>
            <path class="cls-81" d="m711.74,346.15v34.31c0,2.91-.82,5.76-2.37,8.23l-1.23,1.96h0s0-35.56,0-35.56c0-32.07-26.98-38.46-34.11-39.59-.99-.16-1.71-1.01-1.71-2.01v-2.29l8.53-1.82,15.81,13.53s15.09,11.88,15.09,23.25Z"/>
          </g>
          <path class="cls-36" d="m716.91,301.65v9c-7.98,2.06-18.12,4.37-23.36,5.22-1.26.2-2.52.35-3.8.44-1,.07-1.99.11-2.99.11h-8.38s-.02,0-.03,0c-.03,0-.07-.02-.1-.03-.16-.04-.32-.09-.48-.13-.03,0-.06-.01-.08-.02-.16-.04-.32-.08-.48-.12-.02,0-.04,0-.06-.01-.08-.02-.16-.04-.25-.06-.08-.02-.16-.04-.24-.06-.01,0-.02,0-.03,0-.13-.03-.26-.06-.38-.08-.25-.05-.48-.1-.71-.14-.23-.05-.44-.09-.65-.13-.32-.06-.6-.1-.87-.15-.13-.02-.25-.05-.37-.1-.03,0-.06-.02-.09-.03-.06-.02-.11-.04-.16-.07-.06-.03-.12-.06-.17-.1,0,0,0,0-.01,0-.06-.04-.11-.08-.16-.13-.06-.05-.12-.1-.17-.16-.04-.04-.09-.09-.13-.14-.04-.05-.08-.11-.12-.17-.01-.02-.03-.04-.05-.07-.02-.04-.04-.08-.06-.12-.01-.03-.03-.06-.05-.1-.02-.03-.03-.06-.04-.1,0-.01,0-.03-.01-.04-.03-.1-.06-.2-.08-.31,0-.04-.01-.09-.02-.13,0-.05,0-.09,0-.14,0-.01,0-.03,0-.05,0-.01,0-.03,0-.05v-2.29l8.53-1.82,36.06-7.72Z"/>
          <path class="cls-2" d="m725.26,301.63c.01,1.37-.74,2.62-1.95,3.26-6.22,3.29-24.89,6.57-32.68,7.84-1.26.2-2.52.35-3.8.44-1,.07-1.99.11-2.99.11h-65.56v-59.46c2.44-9.54,3.21-23.66,3.45-32.27.07-2.63.1-4.75.1-6.06,0-.82.68-1.49,1.49-1.49h48.76c1.72,0,3.32.27,4.79.77,5.12,1.71,8.7,6.08,10.5,10.85l13.7,36.27c3.38,9.5,8.2,8.98,8.2,8.98h11.88c1.03,0,1.91.75,2.07,1.77,1.61,10.55,2,24.41,2.04,29Z"/>
          <path class="cls-50" d="m435.25,18.16l-45.97,10.76V10.54c0-1.15.93-2.08,2.08-2.08h43.89v9.71Z"/>
          <path class="cls-10" d="m435.25,17.33v-8.87h-10.92c-8.59,1.64-16.09,4.08-22.95,7.46-4.16,2.04-8.21,4.74-12.1,8.06v4.95l17.68-4.14c8.79-4.14,18.22-6.32,28.29-7.46Z"/>
          <g>
            <path class="cls-7" d="m335.25,46.94h6.46c3.3,0,6.6.36,9.8,1.16,1.32.33,2.67.74,3.89,1.26,2.35.99,3.87,3.29,3.87,5.84v28.51h-24.02v-36.78Z"/>
            <rect class="cls-63" x="334.17" y="46.21" width="2.15" height="38.76" rx=".44" ry=".44"/>
            <g>
              <rect class="cls-13" x="337.72" y="72.45" width="6.34" height="7.97"/>
              <path class="cls-17" d="m358.73,80.42l6.98-17.81-7.01-7.8c-1.22-1.35-2.95-2.13-4.77-2.12l-8.8.02c-.51,0-1.03.03-1.53.12-3.97.73-6.98,4.2-6.98,8.38,0,2.86,1.41,5.39,3.57,6.93h0s.08.06.08.06c.09.07.19.13.29.19l18.17,12.02Z"/>
              <circle class="cls-77" cx="345.15" cy="61.22" r="6.52"/>
            </g>
          </g>
          <path class="cls-73" d="m567.39,256.31s14.63-10.96,17.88-23.97c1.9-7.59,4-25.6,4-25.6,2.74-14.69,3.21-29.66,1.4-44.48l-15.9-144.95c-.09-.78-.77-1.35-1.55-1.31-21.64.98-122.94,5.55-131.34,6.22-13.5,1.07-23.94,3.6-32.85,7.97-5.55,2.72-10.95,7.16-16.06,13.18-5.86,6.91-10.47,14.97-13.69,23.96-14.08,39.3-32.73,98.95-40.73,130.26-5.65,22.1-20.9,89.33-21.05,90h-9.43l22.9-99.58,42.68-137.75,28.1-28.8,26.37-9.02,161-6.94,19.43,166.89v83.91h-41.17Z"/>
          <path class="cls-10" d="m614.56,236.77c-.08.47.29.91.77.91.13,0,.25.03.36.09l-.14.84h.56v17.7h-46.23l13.54-9.32c3.11-2.14,5.54-5.04,7.11-8.38.74-1.59,1.29-3.29,1.62-5.04l4.69-25.07c2.82-15.14,3.31-30.62,1.45-45.91l-18.08-147.76c-.13-1.08-.81-1.97-1.73-2.41-.44-.21-.94-.32-1.46-.3-18.89.85-125.6,5.66-134.36,6.36-12.45.98-23.97,3.25-34.54,8.44-7.03,3.45-12.94,8.9-17.57,14.36-6.37,7.5-11.21,16.15-14.53,25.41-13.58,37.93-32.46,97.83-40.86,130.68-5.73,22.42-21.08,90.13-21.08,90.13l-10.9.99.24-1.06.51-2.23c.63-2.78,15.44-68.11,21.14-90.41,8.09-31.65,26.93-91.92,41.15-131.61,3.83-10.7,9.35-20.33,16.39-28.63,6.47-7.63,13.51-13.33,20.92-16.97,10.67-5.24,22.84-8.25,38.31-9.47,9.68-.77,132.35-6.28,137.56-6.51l14.72-.66c.43-.02.84.06,1.21.23.24.34.4.74.46,1.18,0,0,16.39,117.17,21.63,156.26,2.02,15.12,4.17,32.2,0,60.99l-2.84,17.18Z"/>
          <g>
            <g>
              <path class="cls-11" d="m607.05,23.83h5.46c1.32,0,2.39,1.07,2.39,2.39v13.48h-10.73v-12.99c0-1.59,1.29-2.88,2.88-2.88Z"/>
              <path class="cls-82" d="m606.62,24.01h5.83c.36,0,.7.13,1.01.33.04.02.07.05.11.08.72.53,1.21,1.58,1.21,2.45v11.43s0,1.38-.01,1.38h-10.45s-.01-1.37-.01-1.38v-11.43c0-.86.47-1.87,1.16-2.41.04-.03.08-.06.11-.09.31-.22.67-.36,1.05-.36Z"/>
              <path class="cls-27" d="m606.69,24.19h5.7c.35,0,.69.13.98.34.04.03.07.05.1.08.7.52,1.17,1.58,1.17,2.43v11.28s0,1.36-.02,1.36h-10.17s-.02-1.33-.02-1.35v-11.28c0-.83.45-1.87,1.12-2.39.04-.03.07-.06.11-.09.31-.23.66-.37,1.03-.37Z"/>
              <path class="cls-24" d="m606.75,24.36h5.57c.35,0,.68.13.96.34.03.03.07.05.1.08.67.5,1.13,1.58,1.13,2.4v11.12s-.01,1.33-.03,1.33h-9.89s-.03-1.29-.03-1.33v-11.13c0-.8.44-1.86,1.08-2.36.03-.03.07-.06.11-.09.3-.23.64-.37,1-.37Z"/>
              <path class="cls-38" d="m606.81,24.54h5.45c.34,0,.66.14.94.35.03.03.07.05.1.08.65.48,1.09,1.58,1.09,2.37v10.96s-.02,1.31-.04,1.31h-9.61s-.04-1.26-.04-1.31v-10.97c0-.77.42-1.85,1.04-2.34.03-.03.07-.06.1-.09.29-.23.62-.38.98-.38Z"/>
              <path class="cls-64" d="m606.88,24.71h5.32c.33,0,.65.14.92.36.03.03.06.05.09.08.62.46,1.05,1.59,1.05,2.35v10.81c0,.06-.02,1.29-.05,1.29h-9.33s-.05-1.22-.05-1.28v-10.82c0-.74.4-1.84,1-2.31.03-.03.07-.06.1-.09.28-.23.61-.38.96-.38Z"/>
              <path class="cls-30" d="m606.94,24.89h5.19c.33,0,.63.14.89.36.03.03.06.05.09.08.6.44,1.01,1.59,1.01,2.32v10.65c0,.07-.03,1.26-.07,1.26h-9.05s-.07-1.19-.07-1.26v-10.66c0-.71.39-1.83.97-2.28.03-.03.06-.06.1-.09.27-.24.59-.39.93-.39Z"/>
              <path class="cls-47" d="m607,25.07h5.07c.32,0,.62.15.87.37.03.03.06.05.09.08.58.43.97,1.59.97,2.29v10.5c0,.08-.03,1.24-.08,1.24h-8.76s-.08-1.15-.08-1.24v-10.51c0-.69.37-1.82.93-2.26.03-.03.06-.06.09-.09.26-.24.57-.39.91-.39Z"/>
              <path class="cls-89" d="m607.07,25.24h4.94c.31,0,.61.15.85.38.03.03.06.05.08.08.55.41.93,1.59.93,2.27v10.34c0,.1-.04,1.22-.09,1.22h-8.48s-.09-1.12-.09-1.21v-10.35c0-.66.36-1.81.89-2.23.03-.03.06-.06.09-.09.25-.24.56-.4.88-.4Z"/>
              <path class="cls-22" d="m607.13,25.42h4.81c.31,0,.59.15.83.38.03.03.05.05.08.08.53.39.89,1.6.89,2.24v10.19c0,.11-.04,1.19-.1,1.19h-8.2c-.05,0-.1-1.08-.1-1.19v-10.2c0-.63.34-1.81.85-2.2.03-.03.06-.06.08-.08.24-.24.54-.41.86-.41Z"/>
              <path class="cls-16" d="m607.19,25.6h4.69c.3,0,.58.16.8.39.03.03.05.05.08.08.5.37.85,1.6.85,2.22v10.03c0,.12-.05,1.17-.11,1.17h-7.92c-.06,0-.11-1.05-.11-1.17v-10.04c0-.6.33-1.8.81-2.18.03-.03.05-.06.08-.08.23-.25.52-.41.84-.41Z"/>
              <path class="cls-1" d="m607.26,25.77h4.56c.29,0,.56.16.78.4.02.03.05.05.07.08.48.36.81,1.6.81,2.19v9.88c0,.13-.05,1.15-.12,1.15h-7.64c-.07,0-.12-1.01-.12-1.14v-9.89c0-.57.31-1.79.77-2.15.02-.03.05-.06.08-.08.22-.25.51-.42.81-.42Z"/>
              <path class="cls-40" d="m607.32,25.95h4.43c.29,0,.55.16.76.4.02.03.05.05.07.08.46.34.77,1.61.77,2.16v9.72c0,.15-.06,1.12-.13,1.12h-7.36c-.07,0-.13-.98-.13-1.12v-9.73c0-.54.3-1.78.73-2.12.02-.03.05-.06.07-.08.22-.25.49-.42.79-.42Z"/>
              <path class="cls-32" d="m607.38,26.13h4.3c.28,0,.54.17.74.41.02.03.05.05.07.08.43.32.73,1.61.73,2.14v9.56c0,.16-.06,1.1-.14,1.1h-7.08c-.08,0-.14-.94-.14-1.1v-9.58c0-.51.28-1.77.7-2.1.02-.03.05-.06.07-.08.21-.25.47-.43.76-.43Z"/>
              <path class="cls-52" d="m607.45,26.3h4.18c.27,0,.52.17.71.41.02.03.04.05.06.08.41.3.69,1.61.69,2.11v9.41c0,.17-.07,1.08-.15,1.08h-6.8c-.08,0-.15-.91-.15-1.07v-9.42c0-.49.26-1.76.66-2.07.02-.03.04-.06.07-.08.2-.26.46-.43.74-.43Z"/>
              <path class="cls-58" d="m607.51,26.48h4.05c.27,0,.51.17.69.42.02.03.04.05.06.08.38.28.65,1.61.65,2.08v9.25c0,.18-.07,1.05-.16,1.05h-6.51c-.09,0-.16-.87-.16-1.05v-9.27c0-.46.25-1.76.62-2.04.02-.03.04-.06.06-.08.19-.26.44-.44.71-.44Z"/>
              <path class="cls-85" d="m607.57,26.66h3.92c.26,0,.5.17.67.43.02.03.04.05.06.08.36.27.61,1.62.61,2.06v9.1c0,.19-.08,1.03-.18,1.03h-6.23c-.1,0-.18-.83-.18-1.03v-9.12c0-.43.23-1.75.58-2.02.02-.03.04-.06.06-.08.18-.26.42-.44.69-.44Z"/>
              <path class="cls-21" d="m607.64,26.83h3.8c.25,0,.48.18.65.43.02.03.04.05.05.08.34.25.56,1.62.56,2.03v8.94c0,.21-.08,1.01-.19,1.01h-5.95c-.1,0-.19-.8-.19-1.01v-8.96c0-.4.22-1.74.54-1.99.02-.03.04-.06.05-.08.17-.27.41-.45.67-.45Z"/>
              <path class="cls-55" d="m607.7,27.01h3.67c.25,0,.47.18.62.44.02.03.03.05.05.08.31.23.52,1.62.52,2v8.79c0,.22-.09.98-.2.98h-5.67c-.11,0-.2-.76-.2-.98v-8.81c0-.37.2-1.73.5-1.97.02-.03.03-.06.05-.08.16-.27.39-.45.64-.45Z"/>
              <path class="cls-33" d="m607.76,27.18h3.54c.24,0,.45.18.6.45.02.03.03.05.05.08.29.21.48,1.62.48,1.98v8.63c0,.23-.09.96-.21.96h-5.39c-.11,0-.21-.73-.21-.96v-8.65c0-.34.19-1.72.46-1.94.01-.03.03-.06.05-.08.15-.27.37-.46.62-.46Z"/>
              <path class="cls-65" d="m607.83,27.36h3.42c.23,0,.44.18.58.45.01.03.03.05.04.08.26.2.44,1.63.44,1.95v8.47c0,.24-.1.94-.22.94h-5.11c-.12,0-.22-.69-.22-.94v-8.5c0-.31.17-1.71.43-1.91.01-.03.03-.06.04-.08.14-.27.36-.46.59-.46Z"/>
              <path class="cls-48" d="m607.89,27.54h3.29c.23,0,.43.19.56.46.01.03.03.05.04.08.24.18.4,1.63.4,1.92v8.32c0,.25-.1.91-.23.91h-4.83c-.13,0-.23-.66-.23-.91v-8.34c0-.29.16-1.71.39-1.89.01-.03.03-.05.04-.08.13-.28.34-.47.57-.47Z"/>
              <path class="cls-20" d="m607.95,27.71h3.16c.22,0,.42.19.53.47.01.03.02.05.03.08.22.16.36,1.63.36,1.9v8.16c0,.27-.11.89-.24.89h-4.54c-.13,0-.24-.62-.24-.89v-8.19c0-.26.14-1.7.35-1.86.01-.03.02-.05.04-.08.12-.28.32-.47.55-.47Z"/>
              <path class="cls-83" d="m608.02,27.89h3.04c.21,0,.4.19.51.47.01.03.02.05.03.08.19.14.32,1.64.32,1.87v8.01c0,.28-.11.87-.25.87h-4.26c-.14,0-.25-.59-.25-.87v-8.03c0-.23.12-1.69.31-1.83,0-.03.02-.05.03-.08.11-.28.31-.48.52-.48Z"/>
              <path class="cls-49" d="m608.08,28.07h2.91c.2,0,.39.19.49.48,0,.03.02.05.03.08.17.12.28,1.64.28,1.84v7.85c0,.29-.12.84-.26.84h-3.98c-.15,0-.26-.55-.26-.84v-7.88c0-.2.11-1.68.27-1.81,0-.03.02-.05.03-.08.1-.29.29-.48.5-.48Z"/>
              <path class="cls-74" d="m608.14,28.24h2.78c.2,0,.38.2.47.48,0,.03.02.05.02.08.14.11.24,1.64.24,1.82v7.7c0,.3-.12.82-.27.82h-3.7c-.15,0-.27-.52-.27-.82v-7.72c0-.17.09-1.67.23-1.78,0-.03.02-.05.03-.08.09-.29.27-.49.47-.49Z"/>
              <path class="cls-42" d="m608.21,28.42h2.66c.19,0,.36.2.44.49,0,.03.02.05.02.08.12.09.2,1.64.2,1.79v7.54c0,.31-.13.8-.28.8h-3.42c-.16,0-.28-.48-.28-.8v-7.57c0-.14.08-1.66.19-1.75,0-.03.01-.05.02-.08.08-.29.26-.5.45-.5Z"/>
              <path class="cls-37" d="m608.27,28.6h2.53c.18,0,.35.2.42.5,0,.03.01.06.02.08.1.07.16,1.65.16,1.76v7.38c0,.33-.13.77-.3.77h-3.14c-.16,0-.3-.45-.3-.77v-7.41c0-.11.06-1.66.15-1.73,0-.03.01-.05.02-.08.07-.3.24-.5.43-.5Z"/>
              <path class="cls-3" d="m608.33,28.77h2.4c.18,0,.34.2.4.5,0,.03.01.06.01.08.07.05.12,1.65.12,1.74v7.23c0,.34-.14.75-.31.75h-2.86c-.17,0-.31-.41-.31-.75v-7.26c0-.09.05-1.65.12-1.7,0-.03,0-.05.01-.08.06-.3.22-.51.4-.51Z"/>
              <path class="cls-60" d="m608.4,28.95h2.28c.17,0,.33.21.38.51,0,.03,0,.06.01.08.05.04.08,1.65.08,1.71v7.07c0,.35-.14.73-.32.73h-2.57c-.18,0-.32-.37-.32-.73v-7.11c0-.06.03-1.64.08-1.68,0-.03,0-.05.01-.08.05-.3.21-.51.38-.51Z"/>
              <path class="cls-35" d="m608.46,29.12h2.15c.16,0,.32.21.35.52,0,.03,0,.06,0,.08.02.02.04,1.65.04,1.68v6.92c0,.36-.15.7-.33.7h-2.29c-.18,0-.33-.34-.33-.7v-6.95s.02-1.63.04-1.65c0-.03,0-.05,0-.08.04-.31.19-.52.35-.52Z"/>
              <path class="cls-67" d="m608.53,39c-.19,0-.34-.3-.34-.68v-8.42s0-.05,0-.08c.03-.31.17-.52.33-.52h2.02c.16,0,.3.21.33.52,0,.03,0,.06,0,.08v8.42c0,.38-.15.68-.34.68h-2.01Z"/>
            </g>
            <polygon class="cls-41" points="616.17 37.69 602.9 37.69 603.67 36.58 615.4 36.58 616.17 37.69"/>
            <rect class="cls-51" x="602.9" y="37.69" width="13.27" height="12.19"/>
            <path class="cls-17" d="m599.54,49.23h17.63c.09,0,.16.07.16.16v.99c0,.09-.07.16-.16.16h-17.63v-1.3h0Z"/>
          </g>
          <path class="cls-50" d="m614.56,236.77c-.08.47.29.91.77.91.13,0,.25.03.36.09.25.13.42.39.42.68v17.86h-48.72l14.9-10.25c3.1-2.14,5.54-5.04,7.11-8.38.74-1.59,1.29-3.29,1.62-5.04l4.68-25.07c2.83-15.14,3.32-30.62,1.45-45.91l-18.08-147.76c-.07-.55-.28-1.06-.6-1.48-.59-.79-1.55-1.27-2.6-1.23-18.89.85-125.6,5.66-134.36,6.36-12.46.98-23.97,3.25-34.54,8.44-7.03,3.45-12.94,8.9-17.57,14.36-6.36,7.5-11.21,16.16-14.53,25.42-13.58,37.93-32.46,97.83-40.86,130.67-5.73,22.42-21.08,90.13-21.08,90.13l-9.52.86-1.38.13.75-3.29c.62-2.78,15.44-68.11,21.14-90.41,8.09-31.65,26.93-91.92,41.15-131.61,3.84-10.7,9.35-20.33,16.39-28.63,6.46-7.63,13.5-13.33,20.92-16.97,10.67-5.24,22.84-8.25,38.31-9.47,9.67-.77,132.35-6.28,137.56-6.51L592.97,0c.96-.04,1.83.42,2.34,1.16.24.34.4.74.46,1.18,0,0,16.39,117.17,21.63,156.26,2.02,15.12,4.17,32.2,0,60.99l-2.84,17.18Z"/>
          <path class="cls-18" d="m616.11,238.45v17.86h-48.72l14.9-10.25c3.1-2.13,5.54-5.04,7.11-8.38h25.93c.43,0,.78.35.78.78Z"/>
          <g>
            <g>
              <g>
                <polygon class="cls-90" points="277.34 308.75 272.95 314.56 276.71 320.13 283.15 316.94 277.34 308.75"/>
                <polygon class="cls-90" points="261.86 319.67 259.13 326.41 264.2 330.82 269.6 326.07 261.86 319.67"/>
                <polygon class="cls-90" points="249.73 334.22 248.84 341.44 254.88 344.38 258.87 338.4 249.73 334.22"/>
                <polygon class="cls-90" points="241.79 351.41 242.79 358.61 249.39 359.89 251.69 353.09 241.79 351.41"/>
                <polygon class="cls-90" points="238.56 370.07 241.4 376.77 248.1 376.3 248.57 369.13 238.56 370.07"/>
                <polygon class="cls-90" points="251.1 392.48 244.75 394.67 240.28 388.93 249.7 385.44 251.1 392.48"/>
                <polygon class="cls-90" points="246.82 406.71 252.62 411.09 258.19 407.33 255.01 400.89 246.82 406.71"/>
                <polygon class="cls-90" points="257.73 422.19 264.47 424.92 268.88 419.84 264.14 414.45 257.73 422.19"/>
                <polygon class="cls-90" points="272.28 434.31 279.5 435.2 282.45 429.16 276.47 425.18 272.28 434.31"/>
                <polygon class="cls-90" points="289.48 442.26 296.68 441.25 297.96 434.65 291.15 432.35 289.48 442.26"/>
                <polygon class="cls-90" points="308.14 445.48 314.84 442.65 314.36 435.94 307.2 435.48 308.14 445.48"/>
                <polygon class="cls-90" points="327 443.77 332.74 439.29 330.54 432.94 323.5 434.35 327 443.77"/>
                <polygon class="cls-90" points="344.77 437.23 349.16 431.42 345.4 425.85 338.96 429.03 344.77 437.23"/>
                <polygon class="cls-90" points="360.25 426.31 362.98 419.57 357.91 415.16 352.51 419.9 360.25 426.31"/>
                <polygon class="cls-90" points="372.38 411.76 373.27 404.54 367.23 401.6 363.24 407.57 372.38 411.76"/>
                <polygon class="cls-90" points="380.32 394.57 379.32 387.36 372.72 386.09 370.42 392.89 380.32 394.57"/>
                <polygon class="cls-90" points="383.55 375.91 380.71 369.21 374.01 369.68 373.54 376.85 383.55 375.91"/>
                <polygon class="cls-90" points="381.83 357.04 377.36 351.31 371 353.5 372.41 360.54 381.83 357.04"/>
                <polygon class="cls-90" points="375.29 339.27 369.49 334.89 363.92 338.65 367.1 345.09 375.29 339.27"/>
                <polygon class="cls-90" points="364.38 323.79 357.64 321.06 353.23 326.14 357.97 331.53 364.38 323.79"/>
                <polygon class="cls-90" points="349.83 311.67 342.61 310.77 339.66 316.82 345.64 320.8 349.83 311.67"/>
                <polygon class="cls-90" points="332.64 303.72 325.43 304.73 324.15 311.33 330.96 313.63 332.64 303.72"/>
                <polygon class="cls-90" points="313.97 300.5 307.27 303.33 307.75 310.04 314.91 310.5 313.97 300.5"/>
                <polygon class="cls-90" points="295.11 302.21 289.37 306.68 291.57 313.04 298.61 311.63 295.11 302.21"/>
              </g>
              <path class="cls-4" d="m376.16,375.44l7.37.47c-.18,4.46-.75,8.81-1.7,13.03l-2.36-.48-4.89-.98c-.39-.08-.78.16-.89.55l-.87,3.26c-.1.39.11.79.49.92l7.02,2.36h0c-1.32,4.23-3.01,8.29-5.04,12.14l-2.16-1.07-4.47-2.22c-.36-.18-.8-.05-1,.3l-1.68,2.92c-.2.35-.1.79.24,1.02l6.16,4.1c-2.35,3.72-5.04,7.2-8,10.42l-1.8-1.58-3.75-3.3c-.3-.26-.76-.25-1.04.03l-2.38,2.38c-.29.29-.3.74-.03,1.05l4.88,5.54c-3.22,2.97-6.7,5.65-10.42,8.01l-1.33-2.01-2.76-4.15c-.23-.34-.67-.44-1.02-.24l-2.92,1.69c-.35.2-.48.64-.3,1l3.28,6.63c-3.85,2.03-7.91,3.72-12.13,5.04l-.77-2.29-1.6-4.73c-.13-.38-.53-.6-.92-.49l-3.25.87c-.39.1-.63.49-.55.89l1.46,7.26c-4.21.95-8.57,1.52-13.03,1.7l-.15-2.39-.32-4.98c-.02-.4-.36-.71-.76-.71h-3.37c-.4,0-.74.31-.76.71l-.47,7.38c-4.46-.18-8.81-.75-13.03-1.7l.48-2.36.98-4.89c.08-.39-.16-.78-.55-.89l-3.26-.87c-.39-.1-.79.11-.92.49l-2.36,7h0s0,.02,0,.02c-4.22-1.31-8.28-3.01-12.13-5.04l1.07-2.16,2.22-4.47c.18-.36.05-.8-.3-1l-2.92-1.69c-.35-.2-.8-.1-1.02.24l-4.1,6.16s0,0,0,0c-3.72-2.35-7.2-5.03-10.42-8l1.58-1.8,3.3-3.75c.26-.3.25-.76-.03-1.05l-2.38-2.38c-.29-.29-.74-.3-1.05-.03l-5.54,4.89c-2.97-3.22-5.65-6.7-8.01-10.42l2.01-1.33,4.15-2.76c.34-.23.44-.67.24-1.02l-1.68-2.92c-.2-.35-.64-.48-1-.3l-6.63,3.29c-2.03-3.85-3.72-7.91-5.03-12.14l2.29-.77,4.73-1.59c.38-.13.6-.53.49-.92l-.87-3.26c-.1-.39-.49-.63-.89-.55l-7.26,1.46h0c-.94-4.21-1.52-8.57-1.7-13.03l2.39-.15,4.98-.32c.4-.03.71-.36.71-.76v-3.37c0-.41-.31-.74-.71-.77l-7.38-.47c.18-4.46.75-8.81,1.7-13.03l2.36.48,4.89.98c.39.08.78-.16.89-.55l.87-3.25c.1-.39-.11-.8-.49-.92l-7-2.36h-.02c1.31-4.23,3.01-8.29,5.04-12.14l2.16,1.07,4.47,2.22c.36.18.8.05,1-.3l1.68-2.92c.2-.35.1-.79-.24-1.02l-6.15-4.09h0c2.36-3.72,5.04-7.21,8.01-10.42l1.8,1.58,3.75,3.3c.3.26.76.25,1.05-.03l2.38-2.38c.29-.29.3-.75.03-1.04l-4.88-5.55c3.22-2.97,6.7-5.65,10.42-8l1.33,2,2.76,4.16c.22.33.67.44,1.02.24l2.92-1.68c.35-.2.48-.64.3-1l-3.29-6.63c3.85-2.03,7.91-3.72,12.13-5.04l.78,2.3,1.59,4.73c.13.38.53.6.92.49l3.26-.87c.39-.1.63-.49.55-.89l-1.46-7.26c4.22-.94,8.57-1.52,13.03-1.7l.15,2.39.32,4.98c.03.4.36.71.76.71h3.37c.4,0,.74-.31.76-.71l.47-7.37c4.46.17,8.81.75,13.03,1.7l-.48,2.36-.98,4.89c-.08.39.16.78.55.89l3.25.87c.39.1.79-.11.92-.49l2.36-7.01h0s0-.02,0-.02c4.23,1.32,8.28,3.01,12.13,5.04l-1.07,2.16-2.21,4.47c-.18.36-.05.8.3,1l2.92,1.68c.35.2.8.1,1.02-.24l4.09-6.15h0c3.72,2.34,7.2,5.03,10.42,7.99l-1.59,1.8-3.3,3.75c-.27.3-.25.76.03,1.04l2.38,2.38c.29.29.74.3,1.04.03l5.55-4.88c2.97,3.21,5.65,6.7,8,10.42l-2,1.33-4.16,2.76c-.33.23-.44.67-.24,1.02l1.68,2.92c.2.35.64.48,1,.3l6.63-3.29c2.03,3.85,3.72,7.91,5.04,12.14l-2.29.77-4.73,1.6c-.38.13-.6.53-.49.92l.87,3.25c.1.39.49.63.89.55l7.25-1.46h0c.94,4.21,1.52,8.57,1.7,13.03l-2.39.15-4.98.32c-.4.03-.71.36-.71.77v3.37c0,.4.31.74.71.76Z"/>
              <circle class="cls-71" cx="311.06" cy="372.99" r="59.95" transform="translate(-172.64 329.2) rotate(-45)"/>
              <circle class="cls-44" cx="311.06" cy="372.99" r="40.42" transform="translate(-172.64 329.2) rotate(-45)"/>
              <circle class="cls-4" cx="311.06" cy="372.99" r="37.43" transform="translate(-172.64 329.2) rotate(-45)"/>
              <circle class="cls-59" cx="312.21" cy="374.17" r="32.51"/>
              <circle class="cls-6" cx="311.06" cy="372.99" r="32.51" transform="translate(-172.64 329.2) rotate(-45)"/>
              <path class="cls-91" d="m340.96,372.99c0,4.71-1.09,9.16-3.02,13.12-.61,1.26-1.31,2.47-2.1,3.61-5.37,7.95-14.47,13.18-24.79,13.18-16.52,0-29.91-13.39-29.91-29.91s13.39-29.9,29.91-29.9,29.91,13.39,29.91,29.9Z"/>
              <path class="cls-44" d="m337.94,386.1c-.61,1.26-1.31,2.47-2.1,3.61l-3.04-1.75c-1-.58-1.34-1.86-.76-2.86.38-.67,1.08-1.05,1.81-1.05.36,0,.72.09,1.05.28l3.05,1.77Z"/>
              <path class="cls-59" d="m283.76,374.99c0-16.52,13.39-29.9,29.9-29.9,6.24,0,12.04,1.92,16.84,5.19-5.23-4.48-12.02-7.19-19.44-7.19-16.52,0-29.9,13.39-29.9,29.9,0,10.27,5.18,19.33,13.07,24.71-6.4-5.48-10.46-13.62-10.46-22.71Z"/>
              <circle class="cls-44" cx="311.76" cy="373.97" r="16.18" transform="translate(-152.46 520.77) rotate(-67.73)"/>
              <circle class="cls-88" cx="311.06" cy="372.99" r="16.18" transform="translate(-172.64 329.2) rotate(-45)"/>
              <circle class="cls-44" cx="311.92" cy="374.21" r="11.31"/>
              <circle class="cls-4" cx="311.06" cy="372.99" r="11.31" transform="translate(-77.71 81.89) rotate(-13.35)"/>
              <path class="cls-68" d="m300.77,374.03c0-6.25,5.06-11.31,11.31-11.31,2.9,0,5.54,1.09,7.55,2.89-2.07-2.4-5.14-3.93-8.57-3.93-6.25,0-11.31,5.06-11.31,11.31,0,3.35,1.45,6.35,3.77,8.42-1.71-1.98-2.74-4.56-2.74-7.38Z"/>
              <path class="cls-44" d="m312.45,372.99c0-.77-.63-1.4-1.4-1.4s-1.4.63-1.4,1.4.63,1.4,1.4,1.4,1.4-.63,1.4-1.4Z"/>
              <g class="cls-92">
                <polygon class="cls-19" points="309.69 348.98 307.98 351.93 309.69 354.89 313.1 354.89 314.8 351.93 313.1 348.98 309.69 348.98"/>
                <polygon class="cls-19" points="295.18 354.99 292.77 357.4 293.65 360.7 296.94 361.58 299.36 359.17 298.47 355.87 295.18 354.99"/>
                <polygon class="cls-19" points="286.76 371.91 286.76 375.32 289.71 377.03 292.66 375.32 292.66 371.91 289.71 370.21 286.76 371.91"/>
                <polygon class="cls-19" points="293.65 386.54 292.77 389.83 295.18 392.24 298.47 391.36 299.36 388.06 296.94 385.65 293.65 386.54"/>
                <polygon class="cls-19" points="309.69 392.34 307.98 395.3 309.69 398.25 313.1 398.25 314.8 395.3 313.1 392.34 309.69 392.34"/>
                <polygon class="cls-19" points="325.84 385.65 323.43 388.06 324.31 391.36 327.61 392.24 330.02 389.83 329.14 386.54 325.84 385.65"/>
                <polygon class="cls-19" points="333.07 370.21 330.12 371.91 330.12 375.32 333.07 377.03 336.03 375.32 336.03 371.91 333.07 370.21"/>
                <polygon class="cls-19" points="324.31 355.87 323.43 359.17 325.84 361.58 329.14 360.7 330.02 357.4 327.61 354.99 324.31 355.87"/>
              </g>
              <g>
                <g>
                  <polygon class="cls-4" points="309.35 354.26 307.64 351.31 309.35 348.35 312.76 348.35 314.47 351.31 312.76 354.26 309.35 354.26"/>
                  <path class="cls-23" d="m312.83,351.31c0-.98-.79-1.77-1.77-1.77s-1.77.79-1.77,1.77.79,1.77,1.77,1.77,1.77-.79,1.77-1.77Z"/>
                  <path class="cls-4" d="m312.59,351.31c0-.85-.69-1.53-1.53-1.53s-1.53.69-1.53,1.53.69,1.53,1.53,1.53,1.53-.69,1.53-1.53Z"/>
                </g>
                <g>
                  <polygon class="cls-4" points="296.61 360.95 293.31 360.07 292.43 356.78 294.84 354.36 298.14 355.25 299.02 358.54 296.61 360.95"/>
                  <path class="cls-23" d="m296.98,356.4c-.69-.69-1.82-.69-2.51,0s-.69,1.82,0,2.51c.69.69,1.82.69,2.51,0,.69-.69.69-1.82,0-2.51Z"/>
                  <path class="cls-4" d="m296.81,356.57c-.6-.6-1.57-.6-2.17,0s-.6,1.57,0,2.17c.6.6,1.57.6,2.17,0,.6-.6.6-1.57,0-2.17Z"/>
                </g>
                <g>
                  <polygon class="cls-4" points="292.33 374.69 289.37 376.4 286.42 374.69 286.42 371.28 289.37 369.58 292.33 371.28 292.33 374.69"/>
                  <path class="cls-23" d="m289.37,371.21c-.98,0-1.77.79-1.77,1.77s.79,1.77,1.77,1.77,1.77-.79,1.77-1.77-.79-1.77-1.77-1.77Z"/>
                  <path class="cls-4" d="m289.37,371.46c-.85,0-1.53.69-1.53,1.53s.69,1.53,1.53,1.53,1.53-.69,1.53-1.53-.69-1.53-1.53-1.53Z"/>
                </g>
                <g>
                  <polygon class="cls-4" points="299.02 387.44 298.14 390.73 294.84 391.61 292.43 389.2 293.31 385.91 296.61 385.03 299.02 387.44"/>
                  <path class="cls-23" d="m294.47,387.07c-.69.69-.69,1.82,0,2.51s1.82.69,2.51,0c.69-.69.69-1.82,0-2.51-.69-.69-1.82-.69-2.51,0Z"/>
                  <path class="cls-4" d="m294.64,387.24c-.6.6-.6,1.57,0,2.17.6.6,1.57.6,2.17,0s.6-1.57,0-2.17c-.6-.6-1.57-.6-2.17,0Z"/>
                </g>
                <g>
                  <polygon class="cls-4" points="312.76 391.72 314.47 394.67 312.76 397.62 309.35 397.62 307.64 394.67 309.35 391.72 312.76 391.72"/>
                  <path class="cls-23" d="m309.28,394.67c0,.98.79,1.77,1.77,1.77s1.77-.79,1.77-1.77-.79-1.77-1.77-1.77-1.77.79-1.77,1.77Z"/>
                  <path class="cls-4" d="m309.52,394.67c0,.85.69,1.53,1.53,1.53s1.53-.69,1.53-1.53-.69-1.53-1.53-1.53-1.53.69-1.53,1.53Z"/>
                </g>
                <g>
                  <polygon class="cls-4" points="325.5 385.03 328.8 385.91 329.68 389.2 327.27 391.61 323.97 390.73 323.09 387.44 325.5 385.03"/>
                  <path class="cls-23" d="m325.13,389.57c.69.69,1.82.69,2.51,0s.69-1.82,0-2.51c-.69-.69-1.82-.69-2.51,0-.69.69-.69,1.82,0,2.51Z"/>
                  <path class="cls-4" d="m325.3,389.4c.6.6,1.57.6,2.17,0,.6-.6.6-1.57,0-2.17-.6-.6-1.57-.6-2.17,0-.6.6-.6,1.57,0,2.17Z"/>
                </g>
                <g>
                  <polygon class="cls-4" points="329.78 371.28 332.74 369.58 335.69 371.28 335.69 374.69 332.74 376.4 329.78 374.69 329.78 371.28"/>
                  <path class="cls-23" d="m332.74,374.76c.98,0,1.77-.79,1.77-1.77s-.79-1.77-1.77-1.77-1.77.79-1.77,1.77.79,1.77,1.77,1.77Z"/>
                  <path class="cls-4" d="m332.74,374.52c.85,0,1.53-.69,1.53-1.53s-.69-1.53-1.53-1.53-1.53.69-1.53,1.53.69,1.53,1.53,1.53Z"/>
                </g>
                <g>
                  <polygon class="cls-4" points="323.09 358.54 323.97 355.25 327.27 354.36 329.68 356.78 328.8 360.07 325.5 360.95 323.09 358.54"/>
                  <path class="cls-23" d="m327.64,358.91c.69-.69.69-1.82,0-2.51s-1.82-.69-2.51,0c-.69.69-.69,1.82,0,2.51.69.69,1.82.69,2.51,0Z"/>
                  <path class="cls-4" d="m327.47,358.74c.6-.6.6-1.57,0-2.17-.6-.6-1.57-.6-2.17,0-.6.6-.6,1.57,0,2.17.6.6,1.57.6,2.17,0Z"/>
                </g>
              </g>
            </g>
            <g>
              <g>
                <polygon class="cls-90" points="616.61 332.53 612.98 337.32 616.09 341.93 621.41 339.3 616.61 332.53"/>
                <polygon class="cls-90" points="603.82 341.55 601.56 347.11 605.76 350.76 610.21 346.84 603.82 341.55"/>
                <polygon class="cls-90" points="593.8 353.57 593.06 359.53 598.06 361.96 601.35 357.02 593.8 353.57"/>
                <polygon class="cls-90" points="587.24 367.77 588.07 373.72 593.52 374.78 595.42 369.16 587.24 367.77"/>
                <polygon class="cls-90" points="584.58 383.19 586.92 388.72 592.46 388.33 592.84 382.41 584.58 383.19"/>
                <polygon class="cls-90" points="585.99 398.77 589.69 403.51 594.94 401.7 593.77 395.88 585.99 398.77"/>
                <polygon class="cls-90" points="591.39 413.45 596.19 417.07 600.79 413.96 598.16 408.65 591.39 413.45"/>
                <polygon class="cls-90" points="600.41 426.24 605.98 428.49 609.62 424.3 605.7 419.84 600.41 426.24"/>
                <polygon class="cls-90" points="612.43 436.25 618.4 436.99 620.83 432 615.89 428.71 612.43 436.25"/>
                <polygon class="cls-90" points="626.63 442.82 632.59 441.99 633.64 436.53 628.02 434.63 626.63 442.82"/>
                <polygon class="cls-90" points="642.05 445.48 647.59 443.14 647.19 437.6 641.27 437.22 642.05 445.48"/>
                <polygon class="cls-90" points="657.63 444.06 662.37 440.37 660.56 435.12 654.74 436.28 657.63 444.06"/>
                <polygon class="cls-90" points="672.32 438.66 675.94 433.87 672.83 429.26 667.51 431.89 672.32 438.66"/>
                <polygon class="cls-90" points="685.1 429.64 687.36 424.08 683.17 420.43 678.71 424.35 685.1 429.64"/>
                <polygon class="cls-90" points="695.12 417.62 695.86 411.66 690.86 409.23 687.57 414.17 695.12 417.62"/>
                <polygon class="cls-90" points="701.68 403.42 700.85 397.47 695.4 396.41 693.5 402.03 701.68 403.42"/>
                <polygon class="cls-90" points="704.35 388 702 382.47 696.47 382.86 696.08 388.78 704.35 388"/>
                <polygon class="cls-90" points="702.93 372.42 699.24 367.68 693.99 369.49 695.15 375.31 702.93 372.42"/>
                <polygon class="cls-90" points="697.53 357.74 692.73 354.12 688.13 357.23 690.76 362.54 697.53 357.74"/>
                <polygon class="cls-90" points="688.51 344.95 682.94 342.7 679.3 346.89 683.22 351.35 688.51 344.95"/>
                <polygon class="cls-90" points="676.49 334.94 670.53 334.2 668.1 339.19 673.03 342.48 676.49 334.94"/>
                <polygon class="cls-90" points="662.29 328.37 656.34 329.2 655.28 334.66 660.9 336.56 662.29 328.37"/>
                <polygon class="cls-90" points="646.87 325.71 641.34 328.05 641.73 333.59 647.65 333.97 646.87 325.71"/>
                <polygon class="cls-90" points="631.29 327.13 626.55 330.82 628.36 336.07 634.18 334.91 631.29 327.13"/>
              </g>
              <path class="cls-4" d="m698.24,387.62l6.09.39c-.15,3.68-.62,7.28-1.4,10.76l-6-1.2c-.32-.06-.65.13-.73.45l-.72,2.69c-.09.32.1.65.41.76l5.8,1.96c-1.09,3.49-2.49,6.84-4.16,10.03l-5.48-2.72c-.3-.15-.66-.04-.83.25l-1.39,2.41c-.17.29-.08.66.19.84l5.09,3.38c-1.94,3.07-4.16,5.95-6.61,8.6l-4.58-4.03c-.25-.22-.63-.21-.86.03l-1.97,1.97c-.23.23-.25.62-.03.87l4.03,4.58c-2.66,2.46-5.54,4.67-8.61,6.61l-3.39-5.08c-.18-.28-.55-.36-.84-.2l-2.41,1.39c-.29.17-.4.53-.25.83l2.72,5.48c-3.18,1.68-6.53,3.08-10.03,4.16l-1.95-5.8c-.11-.32-.44-.49-.76-.41l-2.69.72c-.32.09-.52.41-.46.74l1.21,5.99c-3.48.78-7.08,1.26-10.77,1.4l-.39-6.09c-.02-.33-.29-.59-.63-.59h-2.78c-.33,0-.61.26-.63.59l-.39,6.09c-3.69-.14-7.28-.62-10.76-1.4l1.2-5.99c.06-.33-.13-.65-.45-.74l-2.69-.72c-.32-.09-.66.09-.76.41l-1.96,5.8c-3.49-1.08-6.84-2.49-10.03-4.16l2.72-5.48c.15-.29.04-.66-.25-.83l-2.41-1.39c-.29-.16-.65-.08-.84.2l-3.38,5.08c-3.07-1.94-5.95-4.16-8.61-6.61l4.04-4.58c.22-.25.21-.63-.03-.87l-1.97-1.97c-.24-.23-.61-.25-.87-.03l-4.58,4.03c-2.46-2.65-4.67-5.53-6.62-8.6l5.09-3.38c.28-.19.36-.55.2-.84l-1.39-2.41c-.16-.29-.53-.4-.83-.25l-5.48,2.72c-1.67-3.19-3.07-6.54-4.16-10.03l5.8-1.95c.32-.11.49-.44.41-.76l-.72-2.69c-.09-.32-.41-.52-.74-.45l-5.99,1.2c-.78-3.48-1.26-7.08-1.4-10.76l6.09-.39c.33-.02.59-.3.59-.63v-2.78c0-.33-.26-.61-.59-.63l-6.09-.39c.14-3.68.62-7.28,1.4-10.76l5.99,1.2c.33.07.65-.13.74-.45l.72-2.69c.09-.32-.09-.65-.41-.76l-5.8-1.96c1.09-3.49,2.49-6.84,4.16-10.03l5.48,2.72c.3.15.66.04.83-.25l1.39-2.41c.16-.29.08-.66-.2-.84l-5.09-3.39c1.94-3.07,4.16-5.95,6.62-8.61l4.58,4.03c.25.22.63.21.87-.03l1.97-1.97c.24-.23.25-.61.03-.86l-4.04-4.58c2.66-2.45,5.54-4.67,8.61-6.61l3.38,5.09c.19.28.55.36.84.19l2.41-1.39c.29-.17.4-.53.25-.83l-2.72-5.48c3.18-1.68,6.53-3.07,10.03-4.16l1.96,5.8c.1.32.44.49.76.41l2.69-.72c.32-.09.52-.41.45-.73l-1.2-6c3.48-.78,7.08-1.26,10.76-1.4l.39,6.09c.02.33.3.59.63.59h2.78c.33,0,.61-.26.63-.59l.39-6.09c3.69.15,7.28.62,10.77,1.4l-1.21,6c-.06.32.13.65.46.73l2.69.72c.32.08.65-.1.76-.41l1.95-5.8c3.49,1.09,6.84,2.49,10.03,4.16l-2.72,5.48c-.15.3-.03.66.25.83l2.41,1.39c.29.17.66.08.84-.19l3.39-5.09c3.07,1.94,5.95,4.16,8.61,6.61l-4.03,4.58c-.22.25-.21.63.03.86l1.97,1.97c.23.23.61.25.86.03l4.58-4.03c2.45,2.65,4.67,5.53,6.61,8.61l-5.09,3.39c-.28.18-.36.55-.19.84l1.39,2.41c.17.29.53.39.83.25l5.48-2.72c1.68,3.19,3.07,6.54,4.16,10.03l-5.8,1.96c-.31.11-.49.44-.41.76l.72,2.69c.09.32.41.52.73.45l6-1.2c.78,3.48,1.26,7.08,1.4,10.76l-6.09.39c-.33.02-.59.29-.59.63v2.78c0,.33.26.61.59.63Z"/>
              <circle class="cls-57" cx="644.46" cy="385.6" r="48.37"/>
              <circle class="cls-44" cx="644.46" cy="385.6" r="33.39"/>
              <circle class="cls-4" cx="644.46" cy="385.6" r="30.92"/>
              <circle class="cls-59" cx="645.42" cy="386.57" r="26.86" transform="translate(52.65 849.85) rotate(-68.93)"/>
              <circle class="cls-6" cx="644.46" cy="385.6" r="26.86"/>
              <path class="cls-91" d="m669.17,385.59c0,3.89-.9,7.56-2.5,10.83-.51,1.04-1.09,2.04-1.73,2.98-4.44,6.57-11.95,10.89-20.48,10.89-13.65,0-24.71-11.06-24.71-24.71s11.06-24.7,24.71-24.7,24.71,11.06,24.71,24.7Z"/>
              <path class="cls-44" d="m666.67,396.43c-.51,1.04-1.09,2.04-1.73,2.98l-2.51-1.45c-.83-.48-1.11-1.53-.63-2.36.32-.55.89-.87,1.49-.87.3,0,.59.08.87.23l2.52,1.46Z"/>
              <path class="cls-59" d="m621.91,387.25c0-13.64,11.06-24.7,24.7-24.7,5.16,0,9.95,1.58,13.91,4.29-4.32-3.7-9.93-5.94-16.06-5.94-13.64,0-24.7,11.06-24.7,24.7,0,8.48,4.28,15.97,10.79,20.42-5.29-4.53-8.64-11.25-8.64-18.76Z"/>
              <circle class="cls-44" cx="645.04" cy="386.41" r="13.37"/>
              <circle class="cls-88" cx="644.46" cy="385.6" r="13.37"/>
              <circle class="cls-44" cx="645.18" cy="386.61" r="9.34"/>
              <circle class="cls-4" cx="644.46" cy="385.6" r="9.34"/>
              <path class="cls-68" d="m635.96,386.46c0-5.16,4.18-9.34,9.34-9.34,2.4,0,4.58.9,6.23,2.38-1.71-1.99-4.25-3.25-7.08-3.25-5.16,0-9.34,4.18-9.34,9.34,0,2.76,1.2,5.25,3.11,6.96-1.41-1.64-2.27-3.77-2.27-6.1Z"/>
              <circle class="cls-44" cx="644.46" cy="385.6" r="1.16"/>
              <g class="cls-92">
                <polygon class="cls-19" points="643.33 365.76 641.92 368.2 643.33 370.64 646.15 370.64 647.56 368.2 646.15 365.76 643.33 365.76"/>
                <polygon class="cls-19" points="631.35 370.73 629.35 372.72 630.08 375.44 632.8 376.17 634.8 374.18 634.07 371.46 631.35 370.73"/>
                <polygon class="cls-19" points="624.39 384.7 624.39 387.52 626.83 388.93 629.27 387.52 629.27 384.7 626.83 383.3 624.39 384.7"/>
                <polygon class="cls-19" points="630.08 396.79 629.35 399.51 631.35 401.5 634.07 400.77 634.8 398.05 632.8 396.06 630.08 396.79"/>
                <polygon class="cls-19" points="643.33 401.58 641.92 404.02 643.33 406.46 646.15 406.46 647.56 404.02 646.15 401.58 643.33 401.58"/>
                <polygon class="cls-19" points="656.68 396.06 654.68 398.05 655.41 400.77 658.13 401.5 660.13 399.51 659.4 396.79 656.68 396.06"/>
                <polygon class="cls-19" points="662.65 383.3 660.21 384.7 660.21 387.52 662.65 388.93 665.09 387.52 665.09 384.7 662.65 383.3"/>
                <polygon class="cls-19" points="655.41 371.46 654.68 374.18 656.68 376.17 659.4 375.44 660.13 372.72 658.13 370.73 655.41 371.46"/>
              </g>
              <g>
                <g>
                  <polygon class="cls-4" points="643.05 370.12 641.64 367.68 643.05 365.24 645.87 365.24 647.28 367.68 645.87 370.12 643.05 370.12"/>
                  <circle class="cls-23" cx="644.46" cy="367.68" r="1.47"/>
                  <path class="cls-4" d="m645.73,367.68c0-.7-.57-1.27-1.27-1.27s-1.27.57-1.27,1.27.57,1.27,1.27,1.27,1.27-.57,1.27-1.27Z"/>
                </g>
                <g>
                  <polygon class="cls-4" points="632.53 375.65 629.8 374.92 629.07 372.2 631.07 370.21 633.79 370.94 634.52 373.66 632.53 375.65"/>
                  <path class="cls-23" d="m632.83,371.89c-.57-.57-1.5-.57-2.07,0-.57.57-.57,1.5,0,2.07.57.57,1.5.57,2.07,0,.57-.57.57-1.5,0-2.07Z"/>
                  <path class="cls-4" d="m632.69,372.03c-.49-.49-1.3-.49-1.79,0-.49.49-.49,1.3,0,1.79s1.3.49,1.79,0c.49-.49.49-1.3,0-1.79Z"/>
                </g>
                <g>
                  <polygon class="cls-4" points="628.99 387 626.55 388.41 624.11 387 624.11 384.19 626.55 382.78 628.99 384.19 628.99 387"/>
                  <path class="cls-23" d="m626.55,384.13c-.81,0-1.47.66-1.47,1.47s.66,1.47,1.47,1.47,1.47-.66,1.47-1.47-.66-1.47-1.47-1.47Z"/>
                  <path class="cls-4" d="m626.55,384.33c-.7,0-1.27.57-1.27,1.27s.57,1.27,1.27,1.27,1.27-.57,1.27-1.27-.57-1.27-1.27-1.27Z"/>
                </g>
                <g>
                  <polygon class="cls-4" points="634.52 397.53 633.79 400.25 631.07 400.98 629.07 398.99 629.8 396.27 632.53 395.54 634.52 397.53"/>
                  <path class="cls-23" d="m630.76,397.22c-.57.57-.57,1.5,0,2.07.57.57,1.5.57,2.07,0,.57-.57.57-1.5,0-2.07-.57-.57-1.5-.57-2.07,0Z"/>
                  <path class="cls-4" d="m630.9,397.36c-.49.49-.49,1.3,0,1.79s1.3.49,1.79,0c.49-.49.49-1.3,0-1.79-.49-.49-1.3-.49-1.79,0Z"/>
                </g>
                <g>
                  <polygon class="cls-4" points="645.87 401.07 647.28 403.51 645.87 405.95 643.05 405.95 641.64 403.51 643.05 401.07 645.87 401.07"/>
                  <circle class="cls-23" cx="644.46" cy="403.51" r="1.47"/>
                  <path class="cls-4" d="m643.19,403.51c0,.7.57,1.27,1.27,1.27s1.27-.57,1.27-1.27-.57-1.27-1.27-1.27-1.27.57-1.27,1.27Z"/>
                </g>
                <g>
                  <polygon class="cls-4" points="656.4 395.54 659.12 396.27 659.85 398.99 657.86 400.98 655.13 400.25 654.4 397.53 656.4 395.54"/>
                  <path class="cls-23" d="m656.09,399.3c.57.57,1.5.57,2.07,0s.57-1.5,0-2.07-1.5-.57-2.07,0c-.57.57-.57,1.5,0,2.07Z"/>
                  <path class="cls-4" d="m656.23,399.16c.49.49,1.3.49,1.79,0,.49-.49.49-1.3,0-1.79-.49-.49-1.3-.49-1.79,0-.49.49-.49,1.3,0,1.79Z"/>
                </g>
                <g>
                  <polygon class="cls-4" points="659.93 384.19 662.37 382.78 664.81 384.19 664.81 387 662.37 388.41 659.93 387 659.93 384.19"/>
                  <circle class="cls-23" cx="662.37" cy="385.6" r="1.47"/>
                  <path class="cls-4" d="m662.37,386.86c.7,0,1.27-.57,1.27-1.27s-.57-1.27-1.27-1.27-1.27.57-1.27,1.27.57,1.27,1.27,1.27Z"/>
                </g>
                <g>
                  <polygon class="cls-4" points="654.4 373.66 655.13 370.94 657.86 370.21 659.85 372.2 659.12 374.92 656.4 375.65 654.4 373.66"/>
                  <path class="cls-23" d="m658.16,373.97c.57-.57.57-1.5,0-2.07-.57-.57-1.5-.57-2.07,0-.57.57-.57,1.5,0,2.07.57.57,1.5.57,2.07,0Z"/>
                  <path class="cls-4" d="m658.02,373.83c.49-.49.49-1.3,0-1.79-.49-.49-1.3-.49-1.79,0s-.49,1.3,0,1.79c.49.49,1.3.49,1.79,0Z"/>
                </g>
              </g>
            </g>
          </g>
          <path class="cls-25" d="m616.11,313.01c-34.94,16.9-39.03,69.86-39.5,83.74-.06,1.87-1.6,3.36-3.47,3.36h-176.15c-1.92,0-3.47-1.55-3.47-3.47v-31.01c0-4.44-.51-8.86-1.53-13.18l-1.38-5.86h39.72c11.41,0,22.61-3.09,32.39-8.96,18.29-10.98,51.93-34.09,103.04-80.02,1.16-1.04,2.44-1.95,3.84-2.63.03-.01.06-.03.09-.04,1.58-.76,3.32-1.12,5.07-1.12h41.34v59.2Z"/>
          <path class="cls-39" d="m393.52,343.31c-.07-.6-.22-1.2-.45-1.76-6.83-17.49-18.43-31.83-33.59-41.51-15.1-9.64-33.83-14.73-54.18-14.73h-26.01v3.12h26.01c40.77,0,71.8,20.01,85.11,54.9h3.11s0,0,0-.02Z"/>
          <path class="cls-45" d="m683.33,268.69c-.52-5.51-1.13-10.45-1.78-14.88l-4.68-39.05c-1.47-.49-3.07-.77-4.79-.77h-48.76c-.82,0-1.49.66-1.49,1.49,0,1.32-.03,3.43-.1,6.06-.24,8.61-1.01,22.72-3.45,32.27v59.46h65.56c1,0,1.99-.04,2.99-.11-.43-7.77-1.41-22.41-3.49-44.48Z"/>
          <path class="cls-18" d="m681.56,253.81h-63.28c2.44-9.54,3.21-23.66,3.45-32.27.07-2.63.1-4.75.1-6.06,0-.82.68-1.49,1.49-1.49h48.76c1.72,0,3.32.27,4.79.77l4.68,39.05Z"/>
        </g>
      </g>
    </g>
  </g>
</svg>