<?xml version="1.0" encoding="UTF-8"?>
<svg xmlns="http://www.w3.org/2000/svg" viewBox="0 0 224.18 647.34">
  <defs>
    <style>
      .cls-1 {
        fill: #f5a833;
      }

      .cls-1, .cls-2, .cls-3, .cls-4, .cls-5, .cls-6, .cls-7, .cls-8, .cls-9, .cls-10, .cls-11, .cls-12, .cls-13, .cls-14, .cls-15, .cls-16, .cls-17, .cls-18, .cls-19, .cls-20, .cls-21, .cls-22, .cls-23, .cls-24, .cls-25, .cls-26, .cls-27 {
        stroke-width: 0px;
      }

      .cls-2, .cls-20 {
        fill: #7b6a58;
      }

      .cls-3 {
        fill: #6aa1bd;
      }

      .cls-4 {
        fill: #458aad;
      }

      .cls-5 {
        fill: #eca400;
      }

      .cls-28 {
        isolation: isolate;
      }

      .cls-6 {
        fill: #3d7a99;
      }

      .cls-7 {
        fill: #336680;
      }

      .cls-8 {
        fill: #f0ae2b;
      }

      .cls-9 {
        fill: #e08d23;
      }

      .cls-10, .cls-19 {
        fill: #d6a373;
      }

      .cls-11 {
        fill: #c6c6c6;
      }

      .cls-11, .cls-19 {
        mix-blend-mode: multiply;
      }

      .cls-12 {
        fill: #3c3c3b;
      }

      .cls-13 {
        fill: #f39200;
      }

      .cls-29 {
        fill: #edcca1;
      }

      .cls-29, .cls-30 {
        stroke: #cf9457;
        stroke-miterlimit: 10;
        stroke-width: 3px;
      }

      .cls-14 {
        fill: #f7c443;
      }

      .cls-15 {
        fill: #706f6f;
      }

      .cls-16 {
        fill: #878787;
      }

      .cls-17 {
        fill: #ffd66e;
      }

      .cls-18 {
        fill: #8fb9ce;
      }

      .cls-20 {
        mix-blend-mode: screen;
      }

      .cls-21 {
        fill: #17b6f2;
      }

      .cls-22 {
        fill: #f8be66;
      }

      .cls-30 {
        fill: #ebb878;
      }

      .cls-23 {
        fill: #ffcdc2;
      }

      .cls-24 {
        fill: #ffcd00;
      }

      .cls-25 {
        fill: #de9322;
      }

      .cls-26 {
        fill: #575756;
      }

      .cls-27 {
        fill: #f2b982;
      }
    </style>
  </defs>
  <g class="cls-28">
    <g id="Layer_2" data-name="Layer 2">
      <g id="_Ñëîé_1" data-name="Ñëîé 1">
        <polygon class="cls-11" points="112.06 30.23 112.06 30.86 112.72 30.86 112.72 31.48 113.37 31.48 113.37 32.11 114.02 32.11 114.02 32.74 114.67 32.74 114.67 33.36 115.33 33.36 115.33 33.99 115.98 33.99 115.98 34.62 116.63 34.62 116.63 35.24 117.28 35.24 117.28 35.87 117.94 35.87 117.94 36.5 118.59 36.5 118.59 37.12 119.24 37.12 119.24 37.75 119.9 37.75 119.9 38.38 120.55 38.38 120.55 39 121.2 39 121.2 39.63 121.85 39.63 121.85 40.26 122.51 40.26 122.51 40.89 123.16 40.89 123.16 41.51 123.81 41.51 123.81 42.14 124.46 42.14 124.46 42.77 125.12 42.77 125.12 141.94 18.73 141.94 18.73 141.32 18.08 141.32 18.08 140.69 17.42 140.69 17.42 140.06 16.77 140.06 16.77 139.43 16.12 139.43 16.12 138.81 15.47 138.81 15.47 138.18 14.81 138.18 14.81 137.55 14.16 137.55 14.16 136.93 13.51 136.93 13.51 136.3 12.86 136.3 12.86 135.67 12.2 135.67 12.2 135.05 11.55 135.05 11.55 134.42 10.9 134.42 10.9 133.79 10.25 133.79 10.25 133.17 9.59 133.17 9.59 132.54 8.94 132.54 8.94 131.91 8.29 131.91 8.29 131.28 7.63 131.28 7.63 130.66 6.98 130.66 6.98 130.03 6.33 130.03 6.33 129.4 5.68 129.4 5.68 128.78 5.02 128.78 5.02 29.6 111.41 29.6 111.41 30.23 112.06 30.23 112.06 30.23"/>
        <g>
          <g>
            <rect class="cls-27" x="4.48" y="29.06" width="106.39" height="99.18"/>
            <rect class="cls-10" x="4.48" y="125.42" width="106.39" height="1.06"/>
            <rect class="cls-10" x="4.48" y="122.54" width="106.39" height="1.06"/>
            <rect class="cls-10" x="4.48" y="119.66" width="106.39" height="1.06"/>
            <rect class="cls-10" x="4.48" y="116.77" width="106.39" height="1.06"/>
            <rect class="cls-10" x="4.48" y="113.89" width="106.39" height="1.06"/>
            <rect class="cls-10" x="4.48" y="111" width="106.39" height="1.06"/>
            <rect class="cls-10" x="4.48" y="108.12" width="106.39" height="1.06"/>
            <rect class="cls-10" x="4.48" y="105.24" width="106.39" height="1.06"/>
            <rect class="cls-10" x="4.48" y="102.35" width="106.39" height="1.06"/>
            <rect class="cls-10" x="4.48" y="99.47" width="106.39" height="1.06"/>
            <rect class="cls-10" x="4.48" y="96.58" width="106.39" height="1.06"/>
            <rect class="cls-10" x="4.48" y="93.7" width="106.39" height="1.06"/>
            <rect class="cls-10" x="4.48" y="90.82" width="106.39" height="1.06"/>
            <rect class="cls-10" x="4.48" y="87.93" width="106.39" height="1.06"/>
            <rect class="cls-10" x="4.48" y="85.05" width="106.39" height="1.06"/>
            <rect class="cls-10" x="4.48" y="82.16" width="106.39" height="1.06"/>
            <rect class="cls-10" x="4.48" y="79.28" width="106.39" height="1.06"/>
            <rect class="cls-10" x="4.48" y="76.4" width="106.39" height="1.06"/>
            <rect class="cls-10" x="4.48" y="73.51" width="106.39" height="1.06"/>
            <rect class="cls-10" x="4.48" y="70.63" width="106.39" height="1.06"/>
            <rect class="cls-10" x="4.48" y="67.75" width="106.39" height="1.06"/>
            <rect class="cls-10" x="4.48" y="64.86" width="106.39" height="1.06"/>
            <rect class="cls-10" x="4.48" y="61.98" width="106.39" height="1.06"/>
            <rect class="cls-10" x="4.48" y="59.09" width="106.39" height="1.06"/>
            <rect class="cls-10" x="4.48" y="56.21" width="106.39" height="1.06"/>
            <rect class="cls-10" x="4.48" y="53.33" width="106.39" height="1.06"/>
            <rect class="cls-10" x="4.48" y="50.44" width="106.39" height="1.06"/>
            <rect class="cls-10" x="4.48" y="47.56" width="106.39" height="1.06"/>
            <rect class="cls-10" x="4.48" y="44.67" width="106.39" height="1.06"/>
            <rect class="cls-10" x="4.48" y="41.79" width="106.39" height="1.06"/>
            <rect class="cls-10" x="4.48" y="38.91" width="106.39" height="1.06"/>
            <rect class="cls-10" x="4.48" y="36.02" width="106.39" height="1.06"/>
            <rect class="cls-10" x="4.48" y="33.14" width="106.39" height="1.06"/>
            <rect class="cls-10" x="4.48" y="30.25" width="106.39" height="1.06"/>
            <rect class="cls-19" x="57.12" y="29.06" width="1.12" height="99.18"/>
          </g>
          <rect class="cls-19" x="49.96" y="29.06" width="15.44" height="99.18"/>
        </g>
        <g>
          <g>
            <rect class="cls-27" x="115.83" y="27.54" width="95.47" height="102.41"/>
            <rect class="cls-10" x="208.59" y="27.54" width="1.02" height="102.41"/>
            <rect class="cls-10" x="205.81" y="27.54" width="1.02" height="102.41"/>
            <rect class="cls-10" x="203.04" y="27.54" width="1.02" height="102.41"/>
            <rect class="cls-10" x="200.26" y="27.54" width="1.02" height="102.41"/>
            <rect class="cls-10" x="197.48" y="27.54" width="1.02" height="102.41"/>
            <rect class="cls-10" x="194.71" y="27.54" width="1.02" height="102.41"/>
            <rect class="cls-10" x="191.93" y="27.54" width="1.02" height="102.41"/>
            <rect class="cls-10" x="189.16" y="27.54" width="1.02" height="102.41"/>
            <rect class="cls-10" x="186.38" y="27.54" width="1.02" height="102.41"/>
            <rect class="cls-10" x="183.6" y="27.54" width="1.02" height="102.41"/>
            <rect class="cls-10" x="180.83" y="27.54" width="1.02" height="102.41"/>
            <rect class="cls-10" x="178.05" y="27.54" width="1.02" height="102.41"/>
            <rect class="cls-10" x="175.28" y="27.54" width="1.02" height="102.41"/>
            <rect class="cls-10" x="172.5" y="27.54" width="1.02" height="102.41"/>
            <rect class="cls-10" x="169.72" y="27.54" width="1.02" height="102.41"/>
            <rect class="cls-10" x="166.95" y="27.54" width="1.02" height="102.41"/>
            <rect class="cls-10" x="164.17" y="27.54" width="1.02" height="102.41"/>
            <rect class="cls-10" x="161.39" y="27.54" width="1.02" height="102.41"/>
            <rect class="cls-10" x="158.62" y="27.54" width="1.02" height="102.41"/>
            <rect class="cls-10" x="155.84" y="27.54" width="1.02" height="102.41"/>
            <rect class="cls-10" x="153.07" y="27.54" width="1.02" height="102.41"/>
            <rect class="cls-10" x="150.29" y="27.54" width="1.02" height="102.41"/>
            <rect class="cls-10" x="147.51" y="27.54" width="1.02" height="102.41"/>
            <rect class="cls-10" x="144.74" y="27.54" width="1.02" height="102.41"/>
            <rect class="cls-10" x="141.96" y="27.54" width="1.02" height="102.41"/>
            <rect class="cls-10" x="139.19" y="27.54" width="1.02" height="102.41"/>
            <rect class="cls-10" x="136.41" y="27.54" width="1.02" height="102.41"/>
            <rect class="cls-10" x="133.63" y="27.54" width="1.02" height="102.41"/>
            <rect class="cls-10" x="130.86" y="27.54" width="1.02" height="102.41"/>
            <rect class="cls-10" x="128.08" y="27.54" width="1.02" height="102.41"/>
            <rect class="cls-10" x="125.3" y="27.54" width="1.02" height="102.41"/>
            <rect class="cls-10" x="122.53" y="27.54" width="1.02" height="102.41"/>
            <rect class="cls-10" x="119.75" y="27.54" width="1.02" height="102.41"/>
            <rect class="cls-10" x="116.98" y="27.54" width="1.02" height="102.41"/>
            <rect class="cls-19" x="115.83" y="78.21" width="95.47" height="1.07"/>
          </g>
          <rect class="cls-20" x="115.83" y="71.32" width="95.47" height="14.86"/>
        </g>
        <path class="cls-11" d="m224.18,320.83V17.62h-51.92v6.95h-29.7v-6.95h-47.07v6.95h-29.54v-7.86H15.64v303.2h48.75v11.98h-.13v64.06h36.29v-16.39h0v16.39h.5l7.25,24.96c-.24.62.22,1.28.88,1.28h11.28c.31,0,.6.15.78.41l10.03,14.7c.18.26.47.41.78.41h3.2c.43,0,.8.29.91.7l10.08,37.18c.16.61-.3,1.2-.92,1.19-7.48-.15-18.25.19-23.3,2.97-.92.51-2.22,1.16-3.73,1.92-11.47,5.77-18.23,9.63-15.42,14.61,1.38,2.45,4.18,3.63,7.58,4.19-1.4,2.88-1.07,5.62-1.72,6.22-.58.5-1.11.99-1.62,1.47-7.95,5.79-20.32,19.6-28.38,30.72-2.4,3.31-4.16,6.02-5.39,8.25-4.6,3.7-8.92,10.54-12.2,21.73-1.56,5.34-2.49,10.33-2.84,14.69-2.23,1.89-3.75,3.86-4.41,5.85-3.33,10,14.22,22.13,42.49,24.54.12.09.23.18.35.27,3.46,2.7,8.24,4.16,13.99,3.91,5.37-.23,10.87-1.91,15.96-4.63,0,0,.02,0,.03-.01.47,3.43,1.49,6.24,3.01,8.19,0,0,0,0,0,0-.71,1.09-1.36,2.24-1.92,3.45-1.84,3.97-2.36,8.78-1.66,12.27-.64,1.11-1.38,2.35-2.23,3.74-.44.65-.73,1.34-.85,2.04-.45,2.76,2.13,4.58,5.76,4.06,3.53-.51,6.75-3.05,7.34-5.73,0,0,.01,0,.01,0,.55-1.62,1.13-3.04,1.73-4.31,3.3-3.29,6.52-7.7,8.23-11.4.75-1.62,1.14-3.16,1.26-4.57.05-.13.11-.26.16-.4.01-.16-.04-.29-.12-.42,0-.79-.08-1.54-.24-2.23,3.02-3.26,5.87-7.57,8.23-12.49,9.42-3.37,17.5-7.39,23.37-11.44,1.47-.83,3.01-2.04,4.59-3.58,1.74-1.56,3.1-3.09,4.05-4.57,4.6-5.89,9.14-14.05,12.5-23.07,4.19-11.23,4.38-17.9,2.14-21.31.24-2.19.26-4.83.03-8.03-.77-10.76-4.17-23.9-8.43-29.18-.2-.45-.41-.91-.67-1.38-.13-.27.33-1.1.89-2.2h4.03c6.46,0,12.45-.57,12.54-4.67.1-4.98-8.75-8.84-23.35-14.61-1.92-.76-3.57-1.41-4.77-1.92-6.71-2.84-18.02-3.13-25.41-2.96-.44.01-.82-.28-.93-.7l-10.09-37.19c-.16-.6.29-1.19.91-1.19h4.16c.5,0,.91-.39.94-.89l.84-13.75c.03-.5.44-.89.94-.89h10.97c.39,0,.74-.24.88-.61l-6.99-25.63h36.79v-64.06h-.13v-11.07h28.92Zm-117.45,211.92c-2.84,2.41-5.6,5.62-7.18,8.43-1.08,1.91-1.48,3.74-1.42,5.36-3.96,5.65-7.24,13.17-9.02,21.37-.59.38-1.16.76-1.7,1.15.24-.75.48-1.51.7-2.28,1.92-6.56,2.57-11.5,2.25-15.1,1.97-2.13,4.13-4.8,6.54-8.12,4.21-5.81,8.36-12.48,11.61-18.61-.4,2.33-.71,4.66-1.78,7.81Zm7.21-20.11c.02-.05.03-.1.05-.16.02-.01.04-.02.05-.03.08-.05.16-.1.25-.14-.12.11-.24.22-.35.33Zm45.36-28.87c7.44-.15,16.42.28,20.62,2.06,1.33.56,3.05,1.24,5.04,2.03,3.4,1.34,10.09,3.99,14.23,6.07-.84.05-1.87.08-3.14.08h-.87c-1.01-2.13-4.21-3.7-12.02-3.37-2.31.1-4.78,1.91-4.87,3.37h-16.69c-.43,0-.8-.29-.91-.7l-2.26-8.35c-.16-.59.27-1.18.89-1.19Zm-2.56,17.2h20.49c-.24.2-.47.39-.68.53-1.45,1.08-3.91-1.57-5.73,1.4-.74,2.09-1.9,2.96-1.02,3.88,1.83,2.14,5.5,2.68,7.12,2.82,2.47.21,5.57-1.28,6.77-.07.01.01.02.02.03.03-2.86,7.89-4.13,20.6-3.43,30.5.23,3.21.65,5.78,1.24,7.8-2.75,3.72-5.43,8.75-7.88,15.33-.74,1.97-1.38,3.9-1.95,5.78-.73-.2-1.48-.39-2.25-.57-.78-2.41-2.92-4.56-6.15-6.33l.06-.19c-2.25-1.2-5.02-2.21-8.2-3.02-2.58-7.73-10.36-12.6-21.23-12.01-3.53.19-7.09.94-10.56,2.15-1.01-5.41-3.2-9.45-6.29-11.39.1-.64.16-1.27.18-1.89,2.73-9.39,4.47-10.28,8.43-14.6,1.05-.95,2.01-2.03,2.82-3.21.09-.13.17-.27.26-.4.03-.03.05-.06.07-.09,1.02-1.3,1.52-2.25,1.65-2.95,1.44-3.04,1.99-5.98.78-7.49.14-.6.14-1.34.48-2.43.13-2.9-4.19.03-4.95-.95-.49-.55-.88-1.58-1.04-2.62h30.97Zm-8.07-16.49l2.26,8.33c.16.6-.29,1.19-.91,1.19h-20.02c-.49-.64-1.42-1.08-2.63-1.03-3.05.13-5.56.5-7.64,1.03h-3.68c-.96,0-1.3-1.28-.47-1.76,2.86-1.67,6.27-3.39,8.25-4.39,1.56-.79,2.91-1.47,3.94-2.03,3.31-1.82,12.39-2.22,20.02-2.05.42,0,.78.3.89.7Zm6.46-152.58h-50.6v-11.07h38.04v-7.86h12.56v18.93Z"/>
        <path class="cls-23" d="m166.43,528.74c6.01,15.54,2.73,18.38-2.9,20.56-5.62,2.17-11.1.72-17.11-14.82s-9.7-37.37-4.08-39.55c5.62-2.17,18.07,18.27,24.09,33.81Z"/>
        <path class="cls-13" d="m147.49,558.69c.73-18.69,6.96-25.07,14.32-24.78,7.36.29,13.07,7.14,12.34,25.82-.73,18.69-7.29,33.6-14.65,33.31-7.36-.29-12.74-15.67-12-34.36Z"/>
        <g>
          <path class="cls-21" d="m80.94,533.41c-1.03,2.97-4.6,4.54-7.98,3.51-3.38-1.04-5.29-4.29-4.27-7.26,1.02-2.97,4.59-4.54,7.97-3.51,3.38,1.04,5.29,4.29,4.27,7.26Z"/>
          <path class="cls-2" d="m86.33,508.71c-1.82,5.29-7.14,8.4-11.88,6.95-4.74-1.45-7.2-4.23-6.15-9.7,1.24-6.45,9.42-10.56,14.57-9.91,4.92.62,5.29,7.37,3.46,12.66Z"/>
          <path class="cls-2" d="m74.9,505.7s-5.91-.94-6.7.89c-1.23,8.85,2.43,11.63.41,23.32,0,0,11.24,1.78,12.57,1.42-1.23-16.78,1.2-13.98,5.32-23.12,4.21-9.32-11.6-2.51-11.6-2.51Z"/>
        </g>
        <g>
          <path class="cls-2" d="m123.21,641.21c.48,2.91,3.71,4.95,7.22,4.56,3.51-.39,5.97-3.07,5.49-5.98-.48-2.9-3.71-4.95-7.22-4.56-3.51.39-5.97,3.07-5.49,5.97Z"/>
          <path class="cls-2" d="m134.07,616.69s5.98.11,6.44,1.93c-.36,8.35-4.46,10.3-4.55,21.4,0,0-11.37-.23-12.63-.78,4.19-15.24,1.3-13.07-1.13-22.17-2.48-9.28,11.87-.38,11.87-.38Z"/>
        </g>
        <path class="cls-7" d="m64.78,532.07c1.31-5.8,6.88-13.08,10.9-12.17,4.02.91,6.99,9.65,5.68,15.45-1.31,5.8-5.63,9.76-9.65,8.85-4.02-.91-8.24-6.33-6.93-12.13Z"/>
        <path class="cls-7" d="m140.76,623.82c-.93,7.29-6.48,17.03-11.06,16.52-4.58-.51-8.72-10.76-7.79-18.04.93-7.29,5.39-12.78,9.97-12.27,4.58.51,9.81,6.51,8.88,13.8Z"/>
        <path class="cls-4" d="m63.49,562.04c-2.67-18.49,2.72-33.95,12.03-34.51,9.31-.57,19.02,13.97,21.69,32.46,2.67,18.49-2.72,33.95-12.03,34.51-9.31.57-19.02-13.97-21.69-32.46Z"/>
        <path class="cls-6" d="m112.49,591.78c-1.33-17.23,4.59-31.54,13.22-31.95,8.63-.42,16.7,13.21,18.03,30.44s-4.59,31.54-13.22,31.95c-8.63.42-16.7-13.21-18.03-30.44Z"/>
        <path class="cls-1" d="m34.76,581.17c0,12.26,30.19,28.91,67.44,28.91s67.44-16.65,67.44-28.91c0-6.91-9.6-13.08-24.64-17.15-4.97-8.01-22.22-13.92-42.79-13.92s-37.82,5.92-42.79,13.92c-15.05,4.07-24.64,10.24-24.64,17.15Z"/>
        <ellipse class="cls-22" cx="103.58" cy="582.11" rx="54.79" ry="20.7"/>
        <path class="cls-23" d="m97.11,563.38c0-4.84,2.28-8.76,5.08-8.76s5.08,3.92,5.08,8.76-2.28,8.76-5.08,8.76-5.08-3.92-5.08-8.76Z"/>
        <path class="cls-26" d="m107.71,562.79c.21-.37,4.44.02,8.25,2.25,3.81,2.22,5.76,5.44,5.55,5.81-.21.37-2.51-2.26-6.32-4.48-3.81-2.22-7.69-3.21-7.47-3.58Z"/>
        <circle class="cls-23" cx="102.2" cy="586.46" r="27.66" transform="translate(-492.06 551.18) rotate(-76.72)"/>
        <path class="cls-3" d="m102.58,602.81c-12.86,0-24.67-1.68-34.02-4.48v6.98c9.99,2.92,21.61,4.77,34.02,4.77s24.03-1.85,34.02-4.77v-6.98c-9.35,2.8-21.16,4.48-34.02,4.48Z"/>
        <path class="cls-3" d="m102.58,561.4c12.86,0,24.67,1.68,34.02,4.48v-9.05c-8.11-4.11-20.32-6.74-34.02-6.74s-25.91,2.62-34.02,6.74v9.05c9.35-2.8,21.16-4.48,34.02-4.48Z"/>
        <path class="cls-18" d="m136.6,598.33v-32.45c-9.35-2.8-21.16-4.48-34.02-4.48s-24.67,1.68-34.02,4.48v32.45c9.35,2.8,21.16,4.48,34.02,4.48s24.67-1.68,34.02-4.48Z"/>
        <g>
          <path class="cls-8" d="m131.5,567.55c.2,15.65-12.84,28.5-29.13,28.71-16.29.21-29.67-12.3-29.87-27.94-.2-15.64,12.84-28.5,29.13-28.71,16.29-.21,29.67,12.3,29.87,27.94Z"/>
          <path class="cls-25" d="m132.59,580.77c.24,18.11-13.19,32.97-29.99,33.19-16.8.22-30.62-14.29-30.85-32.4-.24-18.11,13.19-32.97,29.99-33.19,16.8-.22,30.62,14.29,30.85,32.4Z"/>
          <path class="cls-8" d="m127.46,580.26c.21,15.64-10.96,28.48-24.93,28.66-13.97.18-25.46-12.35-25.67-28-.2-15.64,10.96-28.48,24.93-28.66,13.97-.18,25.46,12.35,25.67,28Z"/>
          <path class="cls-14" d="m120.18,581.05c.16,11.93-7.78,21.7-17.73,21.83-9.95.13-18.14-9.43-18.3-21.36-.16-11.93,7.78-21.7,17.73-21.83,9.95-.13,18.14,9.43,18.3,21.36Z"/>
          <path class="cls-17" d="m113.14,570.64c.28,21.06-4.48,38.2-10.61,38.28-6.14.08-11.33-16.93-11.61-37.99-.28-21.06,4.72-19.32,10.86-19.4,6.14-.08,11.09-1.95,11.36,19.11Z"/>
        </g>
        <g>
          <polygon class="cls-12" points="117.77 430.23 97.46 430.23 87.71 406.51 125.66 406.51 117.77 430.23"/>
          <g>
            <rect class="cls-26" x="77.92" y="386.4" width="15.25" height="28.3"/>
            <rect class="cls-26" x="120.19" y="386.4" width="15.25" height="28.3"/>
          </g>
          <g>
            <g>
              <path class="cls-15" d="m61.52,348.09h-.4c-10.97,0-19.86-7.5-19.86-16.76V121.99c0-9.25,8.89-31.39,19.86-31.39h.4c10.97,0,19.86,22.13,19.86,31.39v209.35c0,9.25-8.89,16.76-19.86,16.76Z"/>
              <ellipse class="cls-24" cx="60.71" cy="121.46" rx="9.21" ry="7.77"/>
            </g>
            <g>
              <path class="cls-15" d="m152.25,348.09h-.4c-10.97,0-19.86-7.5-19.86-16.76V121.99c0-9.25,8.89-31.39,19.86-31.39h.4c10.97,0,19.86,22.13,19.86,31.39v209.35c0,9.25-8.89,16.76-19.86,16.76Z"/>
              <ellipse class="cls-24" cx="151.44" cy="121.46" rx="9.2" ry="7.77"/>
            </g>
          </g>
          <rect class="cls-26" x="41.13" y="322.71" width="131.11" height="10.07"/>
          <rect class="cls-16" x="41.13" y="332.63" width="131.11" height="16.28"/>
          <polygon class="cls-5" points="135.73 369.64 77.64 369.64 41.13 348.91 41.13 386.78 77.42 386.78 77.42 370.39 135.95 370.39 135.95 386.78 172.24 386.78 172.24 348.91 135.73 369.64"/>
          <polygon class="cls-9" points="135.73 369.64 172.24 348.91 41.13 348.91 77.64 369.64 135.73 369.64"/>
          <rect class="cls-24" x="77.42" y="370.39" width="58.53" height="16.39"/>
          <rect class="cls-24" x="92.85" y="370.39" width="27.66" height="32.02"/>
          <rect class="cls-16" x="82.4" y="400.9" width="48.56" height="9.7"/>
          <rect class="cls-12" x="101.88" y="415.25" width="9.61" height="74.74"/>
          <g>
            <path class="cls-12" d="m107.89,493.47h-41.19c-6.46,0-12.61-.57-13.8-4.67-1.45-4.98,6.35-8.84,19.38-14.61,1.71-.76,3.19-1.41,4.25-1.92,8.83-4.23,29.42-2.8,31.74-2.63l-.74,6.94c-7.77-.59-21.95-.64-26.92,1.75-1.18.56-2.71,1.24-4.49,2.03-3.03,1.34-9.01,3.99-12.58,6.07.85.05,1.9.08,3.16.08h41.19v6.96Z"/>
            <path class="cls-12" d="m105.48,493.47h41.19c6.46,0,12.61-.57,13.8-4.67,1.45-4.98-6.35-8.84-19.38-14.61-1.71-.76-3.19-1.41-4.25-1.92-8.83-4.23-29.42-2.8-31.74-2.63l.74,6.94c7.77-.59,21.95-.64,26.92,1.75,1.18.56,2.71,1.24,4.49,2.03,3.03,1.34,9.01,3.99,12.58,6.07-.85.05-1.9.08-3.16.08h-41.19v6.96Z"/>
          </g>
        </g>
        <g>
          <g>
            <rect class="cls-30" x="81.36" y="2.4" width="47.07" height="303.2"/>
            <rect class="cls-30" x="158.12" y="2.4" width="51.92" height="303.2"/>
            <rect class="cls-30" x="1.5" y="1.5" width="50.32" height="303.2"/>
          </g>
          <g>
            <rect class="cls-29" x="7.65" y="9.36" width="39.25" height="288.39"/>
            <rect class="cls-29" x="46.9" y="9.36" width="39.25" height="288.39"/>
            <rect class="cls-29" x="86.14" y="9.36" width="39.25" height="288.39"/>
            <rect class="cls-29" x="125.39" y="9.36" width="39.25" height="288.39"/>
            <rect class="cls-29" x="164.64" y="9.36" width="39.25" height="288.39"/>
          </g>
        </g>
        <polygon class="cls-11" points="205.03 215.2 205.03 214.66 204.47 214.66 204.47 214.12 203.9 214.12 203.9 213.57 203.34 213.57 203.34 213.03 203.29 213.03 203.29 127.64 202.72 127.64 202.72 127.1 202.16 127.1 202.16 126.55 201.59 126.55 201.59 126.01 201.03 126.01 201.03 125.47 200.46 125.47 200.46 124.93 199.9 124.93 199.9 124.38 199.33 124.38 199.33 123.84 198.77 123.84 198.77 123.44 203.29 123.44 203.29 37.59 202.72 37.59 202.72 37.05 202.16 37.05 202.16 36.51 201.59 36.51 201.59 35.96 201.03 35.96 201.03 35.42 200.46 35.42 200.46 34.88 199.9 34.88 199.9 34.34 199.33 34.34 199.33 33.79 198.77 33.79 198.77 33.25 198.2 33.25 198.2 32.71 197.64 32.71 197.64 32.16 197.07 32.16 197.07 31.62 196.51 31.62 196.51 31.08 195.94 31.08 195.94 30.54 195.38 30.54 195.38 29.99 194.81 29.99 194.81 29.45 194.25 29.45 194.25 28.91 193.68 28.91 193.68 28.37 193.12 28.37 193.12 27.82 192.55 27.82 192.55 27.28 191.99 27.28 191.99 26.74 191.42 26.74 191.42 26.2 99.34 26.2 99.34 112.04 99.9 112.04 99.9 112.58 100.47 112.58 100.47 113.13 101.03 113.13 101.03 113.67 101.6 113.67 101.6 114.21 102.16 114.21 102.16 114.75 102.73 114.75 102.73 115.3 103.29 115.3 103.29 115.84 103.86 115.84 103.86 116.25 99.76 116.25 99.76 115.85 99.23 115.85 99.23 115.34 98.69 115.34 98.69 114.82 98.15 114.82 98.15 114.3 10.45 114.3 10.45 196.05 10.99 196.05 10.99 196.57 11.53 196.57 11.53 197.09 12.07 197.09 12.07 197.6 12.61 197.6 12.61 198.12 13.14 198.12 13.14 198.64 13.68 198.64 13.68 199.15 14.22 199.15 14.22 199.67 14.76 199.67 14.76 200.19 15.3 200.19 15.3 200.71 15.83 200.71 15.83 201.22 16.37 201.22 16.37 201.74 16.91 201.74 16.91 202.07 4.67 202.07 4.67 291.25 5.26 291.25 5.26 291.81 5.84 291.81 5.84 292.37 6.43 292.37 6.43 292.94 7.02 292.94 7.02 293.5 7.6 293.5 7.6 294.07 8.19 294.07 8.19 294.63 8.78 294.63 8.78 295.19 9.36 295.19 9.36 295.76 9.95 295.76 9.95 296.32 10.54 296.32 10.54 296.88 11.12 296.88 11.12 297.45 11.71 297.45 11.71 298.01 12.3 298.01 12.3 298.57 12.88 298.57 12.88 299.14 13.47 299.14 13.47 299.7 14.06 299.7 14.06 300.27 14.65 300.27 14.65 300.83 15.23 300.83 15.23 301.39 15.82 301.39 15.82 301.96 16.41 301.96 16.41 302.52 16.99 302.52 16.99 303.08 112.65 303.08 112.65 299.96 112.95 299.96 112.95 300.5 113.51 300.5 113.51 301.05 205.6 301.05 205.6 215.2 205.03 215.2"/>
        <g>
          <g>
            <rect class="cls-27" x="7.42" y="110.78" width="89.18" height="95.66"/>
            <rect class="cls-10" x="9" y="110.78" width=".95" height="95.66"/>
            <rect class="cls-10" x="11.59" y="110.78" width=".95" height="95.66"/>
            <rect class="cls-10" x="14.18" y="110.78" width=".95" height="95.66"/>
            <rect class="cls-10" x="16.78" y="110.78" width=".95" height="95.66"/>
            <rect class="cls-10" x="19.37" y="110.78" width=".95" height="95.66"/>
            <rect class="cls-10" x="21.96" y="110.78" width=".95" height="95.66"/>
            <rect class="cls-10" x="24.55" y="110.78" width=".95" height="95.66"/>
            <rect class="cls-10" x="27.15" y="110.78" width=".95" height="95.66"/>
            <rect class="cls-10" x="29.74" y="110.78" width=".95" height="95.66"/>
            <rect class="cls-10" x="32.33" y="110.78" width=".95" height="95.66"/>
            <rect class="cls-10" x="34.93" y="110.78" width=".95" height="95.66"/>
            <rect class="cls-10" x="37.52" y="110.78" width=".95" height="95.66"/>
            <rect class="cls-10" x="40.11" y="110.78" width=".95" height="95.66"/>
            <rect class="cls-10" x="42.71" y="110.78" width=".95" height="95.66"/>
            <rect class="cls-10" x="45.3" y="110.78" width=".95" height="95.66"/>
            <rect class="cls-10" x="47.89" y="110.78" width=".95" height="95.66"/>
            <rect class="cls-10" x="50.49" y="110.78" width=".95" height="95.66"/>
            <rect class="cls-10" x="53.08" y="110.78" width=".95" height="95.66"/>
            <rect class="cls-10" x="55.67" y="110.78" width=".95" height="95.66"/>
            <rect class="cls-10" x="58.27" y="110.78" width=".95" height="95.66"/>
            <rect class="cls-10" x="60.86" y="110.78" width=".95" height="95.66"/>
            <rect class="cls-10" x="63.45" y="110.78" width=".95" height="95.66"/>
            <rect class="cls-10" x="66.05" y="110.78" width=".95" height="95.66"/>
            <rect class="cls-10" x="68.64" y="110.78" width=".95" height="95.66"/>
            <rect class="cls-10" x="71.23" y="110.78" width=".95" height="95.66"/>
            <rect class="cls-10" x="73.83" y="110.78" width=".95" height="95.66"/>
            <rect class="cls-10" x="76.42" y="110.78" width=".95" height="95.66"/>
            <rect class="cls-10" x="79.01" y="110.78" width=".95" height="95.66"/>
            <rect class="cls-10" x="81.6" y="110.78" width=".95" height="95.66"/>
            <rect class="cls-10" x="84.2" y="110.78" width=".95" height="95.66"/>
            <rect class="cls-10" x="86.79" y="110.78" width=".95" height="95.66"/>
            <rect class="cls-10" x="89.38" y="110.78" width=".95" height="95.66"/>
            <rect class="cls-10" x="91.98" y="110.78" width=".95" height="95.66"/>
            <rect class="cls-10" x="94.57" y="110.78" width=".96" height="95.66"/>
            <rect class="cls-19" x="7.42" y="158.11" width="89.18" height="1"/>
          </g>
          <rect class="cls-19" x="7.42" y="151.67" width="89.18" height="13.88"/>
        </g>
        <g>
          <g>
            <rect class="cls-27" x="104.3" y="112.66" width="85.84" height="92.09"/>
            <rect class="cls-10" x="187.71" y="112.66" width=".92" height="92.09"/>
            <rect class="cls-10" x="185.21" y="112.66" width=".92" height="92.09"/>
            <rect class="cls-10" x="182.72" y="112.66" width=".92" height="92.09"/>
            <rect class="cls-10" x="180.22" y="112.66" width=".92" height="92.09"/>
            <rect class="cls-10" x="177.73" y="112.66" width=".92" height="92.09"/>
            <rect class="cls-10" x="175.23" y="112.66" width=".92" height="92.09"/>
            <rect class="cls-10" x="172.73" y="112.66" width=".92" height="92.09"/>
            <rect class="cls-10" x="170.24" y="112.66" width=".92" height="92.09"/>
            <rect class="cls-10" x="167.74" y="112.66" width=".92" height="92.09"/>
            <rect class="cls-10" x="165.24" y="112.66" width=".92" height="92.09"/>
            <rect class="cls-10" x="162.75" y="112.66" width=".92" height="92.09"/>
            <rect class="cls-10" x="160.25" y="112.66" width=".92" height="92.09"/>
            <rect class="cls-10" x="157.76" y="112.66" width=".92" height="92.09"/>
            <rect class="cls-10" x="155.26" y="112.66" width=".92" height="92.09"/>
            <rect class="cls-10" x="152.76" y="112.66" width=".92" height="92.09"/>
            <rect class="cls-10" x="150.27" y="112.66" width=".92" height="92.09"/>
            <rect class="cls-10" x="147.77" y="112.66" width=".92" height="92.09"/>
            <rect class="cls-10" x="145.27" y="112.66" width=".92" height="92.09"/>
            <rect class="cls-10" x="142.78" y="112.66" width=".92" height="92.09"/>
            <rect class="cls-10" x="140.28" y="112.66" width=".92" height="92.09"/>
            <rect class="cls-10" x="137.79" y="112.66" width=".92" height="92.09"/>
            <rect class="cls-10" x="135.29" y="112.66" width=".92" height="92.09"/>
            <rect class="cls-10" x="132.79" y="112.66" width=".92" height="92.09"/>
            <rect class="cls-10" x="130.3" y="112.66" width=".92" height="92.09"/>
            <rect class="cls-10" x="127.8" y="112.66" width=".92" height="92.09"/>
            <rect class="cls-10" x="125.3" y="112.66" width=".92" height="92.09"/>
            <rect class="cls-10" x="122.81" y="112.66" width=".92" height="92.09"/>
            <rect class="cls-10" x="120.31" y="112.66" width=".92" height="92.09"/>
            <rect class="cls-10" x="117.82" y="112.66" width=".92" height="92.09"/>
            <rect class="cls-10" x="115.32" y="112.66" width=".92" height="92.09"/>
            <rect class="cls-10" x="112.82" y="112.66" width=".92" height="92.09"/>
            <rect class="cls-10" x="110.33" y="112.66" width=".92" height="92.09"/>
            <rect class="cls-10" x="107.83" y="112.66" width=".92" height="92.09"/>
            <rect class="cls-10" x="105.33" y="112.66" width=".92" height="92.09"/>
            <rect class="cls-19" x="104.3" y="158.22" width="85.84" height=".97"/>
          </g>
          <rect class="cls-20" x="104.3" y="152.02" width="85.84" height="13.36"/>
        </g>
        <g>
          <g>
            <rect class="cls-27" x="4.18" y="201.58" width="95.66" height="89.18"/>
            <rect class="cls-10" x="4.18" y="288.23" width="95.66" height=".95"/>
            <rect class="cls-10" x="4.18" y="285.64" width="95.66" height=".95"/>
            <rect class="cls-10" x="4.18" y="283.04" width="95.66" height=".95"/>
            <rect class="cls-10" x="4.18" y="280.45" width="95.66" height=".95"/>
            <rect class="cls-10" x="4.18" y="277.86" width="95.66" height=".95"/>
            <rect class="cls-10" x="4.18" y="275.27" width="95.66" height=".95"/>
            <rect class="cls-10" x="4.18" y="272.67" width="95.66" height=".95"/>
            <rect class="cls-10" x="4.18" y="270.08" width="95.66" height=".95"/>
            <rect class="cls-10" x="4.18" y="267.49" width="95.66" height=".95"/>
            <rect class="cls-10" x="4.18" y="264.89" width="95.66" height=".95"/>
            <rect class="cls-10" x="4.18" y="262.3" width="95.66" height=".95"/>
            <rect class="cls-10" x="4.18" y="259.71" width="95.66" height=".95"/>
            <rect class="cls-10" x="4.18" y="257.11" width="95.66" height=".95"/>
            <rect class="cls-10" x="4.18" y="254.52" width="95.66" height=".95"/>
            <rect class="cls-10" x="4.18" y="251.93" width="95.66" height=".95"/>
            <rect class="cls-10" x="4.18" y="249.33" width="95.66" height=".95"/>
            <rect class="cls-10" x="4.18" y="246.74" width="95.66" height=".95"/>
            <rect class="cls-10" x="4.18" y="244.15" width="95.66" height=".95"/>
            <rect class="cls-10" x="4.18" y="241.55" width="95.66" height=".95"/>
            <rect class="cls-10" x="4.18" y="238.96" width="95.66" height=".95"/>
            <rect class="cls-10" x="4.18" y="236.37" width="95.66" height=".95"/>
            <rect class="cls-10" x="4.18" y="233.77" width="95.66" height=".95"/>
            <rect class="cls-10" x="4.18" y="231.18" width="95.66" height=".95"/>
            <rect class="cls-10" x="4.18" y="228.59" width="95.66" height=".95"/>
            <rect class="cls-10" x="4.18" y="225.99" width="95.66" height=".95"/>
            <rect class="cls-10" x="4.18" y="223.4" width="95.66" height=".95"/>
            <rect class="cls-10" x="4.18" y="220.81" width="95.66" height=".95"/>
            <rect class="cls-10" x="4.18" y="218.22" width="95.66" height=".95"/>
            <rect class="cls-10" x="4.18" y="215.62" width="95.66" height=".95"/>
            <rect class="cls-10" x="4.18" y="213.03" width="95.66" height=".95"/>
            <rect class="cls-10" x="4.18" y="210.44" width="95.66" height=".95"/>
            <rect class="cls-10" x="4.18" y="207.84" width="95.66" height=".96"/>
            <rect class="cls-10" x="4.18" y="205.25" width="95.66" height=".95"/>
            <rect class="cls-10" x="4.18" y="202.66" width="95.66" height=".95"/>
            <rect class="cls-19" x="51.51" y="201.58" width="1" height="89.18"/>
          </g>
          <rect class="cls-19" x="45.07" y="201.58" width="13.88" height="89.18"/>
        </g>
        <g>
          <g>
            <rect class="cls-27" x="101.18" y="203.34" width="92.09" height="85.84"/>
            <rect class="cls-10" x="101.18" y="204.85" width="92.09" height=".92"/>
            <rect class="cls-10" x="101.18" y="207.35" width="92.09" height=".92"/>
            <rect class="cls-10" x="101.18" y="209.84" width="92.09" height=".92"/>
            <rect class="cls-10" x="101.18" y="212.34" width="92.09" height=".92"/>
            <rect class="cls-10" x="101.18" y="214.84" width="92.09" height=".92"/>
            <rect class="cls-10" x="101.18" y="217.33" width="92.09" height=".92"/>
            <rect class="cls-10" x="101.18" y="219.83" width="92.09" height=".92"/>
            <rect class="cls-10" x="101.18" y="222.33" width="92.09" height=".92"/>
            <rect class="cls-10" x="101.18" y="224.82" width="92.09" height=".92"/>
            <rect class="cls-10" x="101.18" y="227.32" width="92.09" height=".92"/>
            <rect class="cls-10" x="101.18" y="229.82" width="92.09" height=".92"/>
            <rect class="cls-10" x="101.18" y="232.31" width="92.09" height=".92"/>
            <rect class="cls-10" x="101.18" y="234.81" width="92.09" height=".92"/>
            <rect class="cls-10" x="101.18" y="237.3" width="92.09" height=".92"/>
            <rect class="cls-10" x="101.18" y="239.8" width="92.09" height=".92"/>
            <rect class="cls-10" x="101.18" y="242.3" width="92.09" height=".92"/>
            <rect class="cls-10" x="101.18" y="244.79" width="92.09" height=".92"/>
            <rect class="cls-10" x="101.18" y="247.29" width="92.09" height=".92"/>
            <rect class="cls-10" x="101.18" y="249.79" width="92.09" height=".92"/>
            <rect class="cls-10" x="101.18" y="252.28" width="92.09" height=".92"/>
            <rect class="cls-10" x="101.18" y="254.78" width="92.09" height=".92"/>
            <rect class="cls-10" x="101.18" y="257.27" width="92.09" height=".92"/>
            <rect class="cls-10" x="101.18" y="259.77" width="92.09" height=".92"/>
            <rect class="cls-10" x="101.18" y="262.27" width="92.09" height=".92"/>
            <rect class="cls-10" x="101.18" y="264.76" width="92.09" height=".92"/>
            <rect class="cls-10" x="101.18" y="267.26" width="92.09" height=".92"/>
            <rect class="cls-10" x="101.18" y="269.76" width="92.09" height=".92"/>
            <rect class="cls-10" x="101.18" y="272.25" width="92.09" height=".92"/>
            <rect class="cls-10" x="101.18" y="274.75" width="92.09" height=".92"/>
            <rect class="cls-10" x="101.18" y="277.24" width="92.09" height=".92"/>
            <rect class="cls-10" x="101.18" y="279.74" width="92.09" height=".92"/>
            <rect class="cls-10" x="101.18" y="282.24" width="92.09" height=".92"/>
            <rect class="cls-10" x="101.18" y="284.73" width="92.09" height=".92"/>
            <rect class="cls-10" x="101.18" y="287.23" width="92.09" height=".92"/>
            <rect class="cls-19" x="146.74" y="203.34" width=".97" height="85.84"/>
          </g>
          <rect class="cls-20" x="140.54" y="203.34" width="13.36" height="85.84"/>
        </g>
        <g>
          <polygon class="cls-11" points="188.92 126.73 188.92 48.03 188.41 48.03 188.41 47.53 187.89 47.53 187.89 47.04 187.37 47.04 187.37 46.54 186.85 46.54 186.85 46.04 186.33 46.04 186.33 45.54 185.82 45.54 185.82 45.05 185.3 45.05 185.3 44.55 184.78 44.55 184.78 44.05 184.26 44.05 184.26 43.55 183.74 43.55 183.74 43.06 183.23 43.06 183.23 42.56 182.71 42.56 182.71 42.06 182.19 42.06 182.19 41.56 181.67 41.56 181.67 41.07 181.15 41.07 181.15 40.57 180.64 40.57 180.64 40.07 180.12 40.07 180.12 39.57 179.6 39.57 179.6 39.08 179.08 39.08 179.08 38.58 178.56 38.58 178.56 38.08 178.05 38.08 178.05 37.58 98.77 37.58 98.77 30.94 98.27 30.94 98.27 30.39 97.78 30.39 97.78 29.83 97.28 29.83 97.28 29.27 96.78 29.27 96.78 28.72 96.28 28.72 96.28 28.16 95.78 28.16 95.78 27.61 95.28 27.61 95.28 27.05 94.79 27.05 94.79 26.49 94.29 26.49 94.29 25.94 93.79 25.94 93.79 25.38 93.29 25.38 93.29 24.82 92.79 24.82 92.79 24.27 92.29 24.27 92.29 23.71 91.8 23.71 91.8 23.16 91.3 23.16 91.3 22.6 90.8 22.6 90.8 22.04 90.3 22.04 90.3 21.49 89.8 21.49 89.8 20.93 89.3 20.93 89.3 20.37 88.81 20.37 88.81 19.82 88.31 19.82 88.31 19.26 7.09 19.26 7.09 107.27 7.59 107.27 7.59 107.83 8.09 107.83 8.09 108.39 8.59 108.39 8.59 108.94 9.09 108.94 9.09 109.5 9.58 109.5 9.58 110.06 10.08 110.06 10.08 110.61 10.58 110.61 10.58 111.17 11.08 111.17 11.08 111.72 11.58 111.72 11.58 112.28 12.07 112.28 12.07 112.84 12.57 112.84 12.57 113.39 13.07 113.39 13.07 113.95 13.57 113.95 13.57 114.51 14.07 114.51 14.07 115.06 14.57 115.06 14.57 115.62 15.06 115.62 15.06 116.18 15.56 116.18 15.56 116.73 16.06 116.73 16.06 117.29 16.56 117.29 16.56 117.84 17.06 117.84 17.06 118.4 17.56 118.4 17.56 118.96 93.63 118.96 93.63 196.71 94.15 196.71 94.15 197.21 94.66 197.21 94.66 197.71 95.18 197.71 95.18 198.21 95.7 198.21 95.7 198.29 94.03 198.29 94.03 198.25 93.5 198.25 93.5 197.73 92.96 197.73 92.96 197.21 92.42 197.21 92.42 196.7 4.72 196.7 4.72 278.45 5.26 278.45 5.26 278.96 5.8 278.96 5.8 279.48 6.34 279.48 6.34 280 6.88 280 6.88 280.51 7.41 280.51 7.41 281.03 7.95 281.03 7.95 281.55 8.49 281.55 8.49 282.06 9.03 282.06 9.03 282.58 9.57 282.58 9.57 283.1 10.1 283.1 10.1 283.61 10.64 283.61 10.64 284.13 11.18 284.13 11.18 284.65 11.72 284.65 11.72 285.17 12.26 285.17 12.26 285.68 12.79 285.68 12.79 286.2 13.33 286.2 13.33 286.72 13.87 286.72 13.87 287.23 14.41 287.23 14.41 287.75 14.95 287.75 14.95 288.27 15.48 288.27 15.48 288.78 16.02 288.78 16.02 289.3 103.72 289.3 103.72 286.44 103.99 286.44 103.99 286.93 104.5 286.93 104.5 287.43 188.92 287.43 188.92 208.73 188.41 208.73 188.41 208.24 187.89 208.24 187.89 207.74 187.37 207.74 187.37 207.24 186.85 207.24 186.85 207.16 188.92 207.16 188.92 128.46 188.41 128.46 188.41 127.97 187.89 127.97 187.89 127.47 187.37 127.47 187.37 126.97 186.85 126.97 186.85 126.73 188.92 126.73"/>
          <polygon class="cls-11" points="101.22 117.49 101.22 118.05 101.81 118.05 101.81 118.62 102.39 118.62 102.39 119.18 102.98 119.18 102.98 119.75 103.57 119.75 103.57 120.31 104.16 120.31 104.16 120.87 104.74 120.87 104.74 121.44 105.33 121.44 105.33 122 105.92 122 105.92 122.56 106.5 122.56 106.5 123.13 107.09 123.13 107.09 123.69 107.68 123.69 107.68 124.26 108.26 124.26 108.26 124.82 108.85 124.82 108.85 125.38 109.44 125.38 109.44 125.95 110.02 125.95 110.02 126.51 110.61 126.51 110.61 127.07 111.2 127.07 111.2 127.64 111.79 127.64 111.79 128.2 112.37 128.2 112.37 128.76 112.96 128.76 112.96 217.94 17.3 217.94 17.3 217.38 16.71 217.38 16.71 216.81 16.12 216.81 16.12 216.25 15.54 216.25 15.54 215.69 14.95 215.69 14.95 215.12 14.36 215.12 14.36 214.56 13.78 214.56 13.78 214 13.19 214 13.19 213.43 12.6 213.43 12.6 212.87 12.02 212.87 12.02 212.31 11.43 212.31 11.43 211.74 10.84 211.74 10.84 211.18 10.26 211.18 10.26 210.61 9.67 210.61 9.67 210.05 9.08 210.05 9.08 209.49 8.49 209.49 8.49 208.92 7.91 208.92 7.91 208.36 7.32 208.36 7.32 207.8 6.73 207.8 6.73 207.23 6.15 207.23 6.15 206.67 5.56 206.67 5.56 206.1 4.97 206.1 4.97 116.93 100.63 116.93 100.63 117.49 101.22 117.49 101.22 117.49"/>
          <g>
            <g>
              <rect class="cls-27" x="6.73" y="19.34" width="81.75" height="87.7"/>
              <rect class="cls-10" x="8.17" y="19.34" width=".88" height="87.7"/>
              <rect class="cls-10" x="10.55" y="19.34" width=".88" height="87.7"/>
              <rect class="cls-10" x="12.92" y="19.34" width=".88" height="87.7"/>
              <rect class="cls-10" x="15.3" y="19.34" width=".88" height="87.7"/>
              <rect class="cls-10" x="17.68" y="19.34" width=".88" height="87.7"/>
              <rect class="cls-10" x="20.05" y="19.34" width=".88" height="87.7"/>
              <rect class="cls-10" x="22.43" y="19.34" width=".88" height="87.7"/>
              <rect class="cls-10" x="24.81" y="19.34" width=".88" height="87.7"/>
              <rect class="cls-10" x="27.19" y="19.34" width=".88" height="87.7"/>
              <rect class="cls-10" x="29.56" y="19.34" width=".88" height="87.7"/>
              <rect class="cls-10" x="31.94" y="19.34" width=".88" height="87.7"/>
              <rect class="cls-10" x="34.32" y="19.34" width=".88" height="87.7"/>
              <rect class="cls-10" x="36.7" y="19.34" width=".88" height="87.7"/>
              <rect class="cls-10" x="39.07" y="19.34" width=".88" height="87.7"/>
              <rect class="cls-10" x="41.45" y="19.34" width=".88" height="87.7"/>
              <rect class="cls-10" x="43.83" y="19.34" width=".88" height="87.7"/>
              <rect class="cls-10" x="46.2" y="19.34" width=".88" height="87.7"/>
              <rect class="cls-10" x="48.58" y="19.34" width=".88" height="87.7"/>
              <rect class="cls-10" x="50.96" y="19.34" width=".88" height="87.7"/>
              <rect class="cls-10" x="53.34" y="19.34" width=".88" height="87.7"/>
              <rect class="cls-10" x="55.71" y="19.34" width=".88" height="87.7"/>
              <rect class="cls-10" x="58.09" y="19.34" width=".88" height="87.7"/>
              <rect class="cls-10" x="60.47" y="19.34" width=".88" height="87.7"/>
              <rect class="cls-10" x="62.85" y="19.34" width=".88" height="87.7"/>
              <rect class="cls-10" x="65.22" y="19.34" width=".88" height="87.7"/>
              <rect class="cls-10" x="67.6" y="19.34" width=".88" height="87.7"/>
              <rect class="cls-10" x="69.98" y="19.34" width=".88" height="87.7"/>
              <rect class="cls-10" x="72.35" y="19.34" width=".88" height="87.7"/>
              <rect class="cls-10" x="74.73" y="19.34" width=".88" height="87.7"/>
              <rect class="cls-10" x="77.11" y="19.34" width=".88" height="87.7"/>
              <rect class="cls-10" x="79.49" y="19.34" width=".88" height="87.7"/>
              <rect class="cls-10" x="81.86" y="19.34" width=".88" height="87.7"/>
              <rect class="cls-10" x="84.24" y="19.34" width=".88" height="87.7"/>
              <rect class="cls-10" x="86.62" y="19.34" width=".88" height="87.7"/>
              <rect class="cls-19" x="6.73" y="62.73" width="81.75" height=".92"/>
            </g>
            <rect class="cls-19" x="6.73" y="56.83" width="81.75" height="12.73"/>
          </g>
          <g>
            <g>
              <rect class="cls-27" x="93.2" y="37.15" width="84.42" height="78.7"/>
              <rect class="cls-10" x="93.2" y="113.62" width="84.42" height=".84"/>
              <rect class="cls-10" x="93.2" y="111.33" width="84.42" height=".84"/>
              <rect class="cls-10" x="93.2" y="109.04" width="84.42" height=".84"/>
              <rect class="cls-10" x="93.2" y="106.75" width="84.42" height=".84"/>
              <rect class="cls-10" x="93.2" y="104.47" width="84.42" height=".84"/>
              <rect class="cls-10" x="93.2" y="102.18" width="84.42" height=".84"/>
              <rect class="cls-10" x="93.2" y="99.89" width="84.42" height=".84"/>
              <rect class="cls-10" x="93.2" y="97.6" width="84.42" height=".84"/>
              <rect class="cls-10" x="93.2" y="95.31" width="84.42" height=".84"/>
              <rect class="cls-10" x="93.2" y="93.02" width="84.42" height=".84"/>
              <rect class="cls-10" x="93.2" y="90.74" width="84.42" height=".84"/>
              <rect class="cls-10" x="93.2" y="88.45" width="84.42" height=".84"/>
              <rect class="cls-10" x="93.2" y="86.16" width="84.42" height=".84"/>
              <rect class="cls-10" x="93.2" y="83.87" width="84.42" height=".84"/>
              <rect class="cls-10" x="93.2" y="81.58" width="84.42" height=".84"/>
              <rect class="cls-10" x="93.2" y="79.29" width="84.42" height=".84"/>
              <rect class="cls-10" x="93.2" y="77" width="84.42" height=".84"/>
              <rect class="cls-10" x="93.2" y="74.72" width="84.42" height=".84"/>
              <rect class="cls-10" x="93.2" y="72.43" width="84.42" height=".84"/>
              <rect class="cls-10" x="93.2" y="70.14" width="84.42" height=".84"/>
              <rect class="cls-10" x="93.2" y="67.85" width="84.42" height=".84"/>
              <rect class="cls-10" x="93.2" y="65.56" width="84.42" height=".84"/>
              <rect class="cls-10" x="93.2" y="63.27" width="84.42" height=".84"/>
              <rect class="cls-10" x="93.2" y="60.99" width="84.42" height=".84"/>
              <rect class="cls-10" x="93.2" y="58.7" width="84.42" height=".84"/>
              <rect class="cls-10" x="93.2" y="56.41" width="84.42" height=".84"/>
              <rect class="cls-10" x="93.2" y="54.12" width="84.42" height=".84"/>
              <rect class="cls-10" x="93.2" y="51.83" width="84.42" height=".84"/>
              <rect class="cls-10" x="93.2" y="49.54" width="84.42" height=".84"/>
              <rect class="cls-10" x="93.2" y="47.26" width="84.42" height=".84"/>
              <rect class="cls-10" x="93.2" y="44.97" width="84.42" height=".84"/>
              <rect class="cls-10" x="93.2" y="42.68" width="84.42" height=".84"/>
              <rect class="cls-10" x="93.2" y="40.39" width="84.42" height=".84"/>
              <rect class="cls-10" x="93.2" y="38.1" width="84.42" height=".84"/>
              <rect class="cls-19" x="134.96" y="37.15" width=".88" height="78.7"/>
            </g>
            <rect class="cls-20" x="129.28" y="37.15" width="12.25" height="78.7"/>
          </g>
          <g>
            <g>
              <rect class="cls-27" x="7.25" y="113.01" width="81.75" height="87.7"/>
              <rect class="cls-10" x="86.68" y="113.01" width=".88" height="87.7"/>
              <rect class="cls-10" x="84.31" y="113.01" width=".88" height="87.7"/>
              <rect class="cls-10" x="81.93" y="113.01" width=".88" height="87.7"/>
              <rect class="cls-10" x="79.55" y="113.01" width=".88" height="87.7"/>
              <rect class="cls-10" x="77.17" y="113.01" width=".88" height="87.7"/>
              <rect class="cls-10" x="74.8" y="113.01" width=".88" height="87.7"/>
              <rect class="cls-10" x="72.42" y="113.01" width=".88" height="87.7"/>
              <rect class="cls-10" x="70.04" y="113.01" width=".88" height="87.7"/>
              <rect class="cls-10" x="67.66" y="113.01" width=".88" height="87.7"/>
              <rect class="cls-10" x="65.29" y="113.01" width=".88" height="87.7"/>
              <rect class="cls-10" x="62.91" y="113.01" width=".88" height="87.7"/>
              <rect class="cls-10" x="60.53" y="113.01" width=".88" height="87.7"/>
              <rect class="cls-10" x="58.16" y="113.01" width=".88" height="87.7"/>
              <rect class="cls-10" x="55.78" y="113.01" width=".88" height="87.7"/>
              <rect class="cls-10" x="53.4" y="113.01" width=".88" height="87.7"/>
              <rect class="cls-10" x="51.02" y="113.01" width=".88" height="87.7"/>
              <rect class="cls-10" x="48.65" y="113.01" width=".88" height="87.7"/>
              <rect class="cls-10" x="46.27" y="113.01" width=".88" height="87.7"/>
              <rect class="cls-10" x="43.89" y="113.01" width=".88" height="87.7"/>
              <rect class="cls-10" x="41.52" y="113.01" width=".88" height="87.7"/>
              <rect class="cls-10" x="39.14" y="113.01" width=".88" height="87.7"/>
              <rect class="cls-10" x="36.76" y="113.01" width=".88" height="87.7"/>
              <rect class="cls-10" x="34.38" y="113.01" width=".88" height="87.7"/>
              <rect class="cls-10" x="32.01" y="113.01" width=".88" height="87.7"/>
              <rect class="cls-10" x="29.63" y="113.01" width=".88" height="87.7"/>
              <rect class="cls-10" x="27.25" y="113.01" width=".88" height="87.7"/>
              <rect class="cls-10" x="24.87" y="113.01" width=".88" height="87.7"/>
              <rect class="cls-10" x="22.5" y="113.01" width=".88" height="87.7"/>
              <rect class="cls-10" x="20.12" y="113.01" width=".88" height="87.7"/>
              <rect class="cls-10" x="17.74" y="113.01" width=".88" height="87.7"/>
              <rect class="cls-10" x="15.37" y="113.01" width=".88" height="87.7"/>
              <rect class="cls-10" x="12.99" y="113.01" width=".88" height="87.7"/>
              <rect class="cls-10" x="10.61" y="113.01" width=".88" height="87.7"/>
              <rect class="cls-10" x="8.23" y="113.01" width=".88" height="87.7"/>
              <rect class="cls-19" x="7.25" y="156.39" width="81.75" height=".92"/>
            </g>
            <rect class="cls-19" x="7.25" y="150.49" width="81.75" height="12.73"/>
          </g>
          <g>
            <g>
              <rect class="cls-27" x="93.2" y="117.59" width="84.42" height="78.7"/>
              <rect class="cls-10" x="93.2" y="194.05" width="84.42" height=".84"/>
              <rect class="cls-10" x="93.2" y="191.76" width="84.42" height=".84"/>
              <rect class="cls-10" x="93.2" y="189.48" width="84.42" height=".84"/>
              <rect class="cls-10" x="93.2" y="187.19" width="84.42" height=".84"/>
              <rect class="cls-10" x="93.2" y="184.9" width="84.42" height=".84"/>
              <rect class="cls-10" x="93.2" y="182.61" width="84.42" height=".84"/>
              <rect class="cls-10" x="93.2" y="180.32" width="84.42" height=".84"/>
              <rect class="cls-10" x="93.2" y="178.03" width="84.42" height=".84"/>
              <rect class="cls-10" x="93.2" y="175.75" width="84.42" height=".84"/>
              <rect class="cls-10" x="93.2" y="173.46" width="84.42" height=".84"/>
              <rect class="cls-10" x="93.2" y="171.17" width="84.42" height=".84"/>
              <rect class="cls-10" x="93.2" y="168.88" width="84.42" height=".84"/>
              <rect class="cls-10" x="93.2" y="166.59" width="84.42" height=".84"/>
              <rect class="cls-10" x="93.2" y="164.3" width="84.42" height=".84"/>
              <rect class="cls-10" x="93.2" y="162.02" width="84.42" height=".84"/>
              <rect class="cls-10" x="93.2" y="159.73" width="84.42" height=".84"/>
              <rect class="cls-10" x="93.2" y="157.44" width="84.42" height=".84"/>
              <rect class="cls-10" x="93.2" y="155.15" width="84.42" height=".84"/>
              <rect class="cls-10" x="93.2" y="152.86" width="84.42" height=".84"/>
              <rect class="cls-10" x="93.2" y="150.57" width="84.42" height=".84"/>
              <rect class="cls-10" x="93.2" y="148.28" width="84.42" height=".84"/>
              <rect class="cls-10" x="93.2" y="146" width="84.42" height=".84"/>
              <rect class="cls-10" x="93.2" y="143.71" width="84.42" height=".84"/>
              <rect class="cls-10" x="93.2" y="141.42" width="84.42" height=".84"/>
              <rect class="cls-10" x="93.2" y="139.13" width="84.42" height=".84"/>
              <rect class="cls-10" x="93.2" y="136.84" width="84.42" height=".84"/>
              <rect class="cls-10" x="93.2" y="134.55" width="84.42" height=".84"/>
              <rect class="cls-10" x="93.2" y="132.27" width="84.42" height=".84"/>
              <rect class="cls-10" x="93.2" y="129.98" width="84.42" height=".84"/>
              <rect class="cls-10" x="93.2" y="127.69" width="84.42" height=".84"/>
              <rect class="cls-10" x="93.2" y="125.4" width="84.42" height=".84"/>
              <rect class="cls-10" x="93.2" y="123.11" width="84.42" height=".84"/>
              <rect class="cls-10" x="93.2" y="120.82" width="84.42" height=".84"/>
              <rect class="cls-10" x="93.2" y="118.54" width="84.42" height=".84"/>
              <rect class="cls-19" x="134.96" y="117.59" width=".88" height="78.7"/>
            </g>
            <rect class="cls-20" x="129.28" y="117.59" width="12.25" height="78.7"/>
          </g>
          <g>
            <g>
              <rect class="cls-27" x="4.28" y="196.25" width="87.7" height="81.75"/>
              <rect class="cls-10" x="4.28" y="275.68" width="87.7" height=".88"/>
              <rect class="cls-10" x="4.28" y="273.31" width="87.7" height=".88"/>
              <rect class="cls-10" x="4.28" y="270.93" width="87.7" height=".88"/>
              <rect class="cls-10" x="4.28" y="268.55" width="87.7" height=".88"/>
              <rect class="cls-10" x="4.28" y="266.17" width="87.7" height=".88"/>
              <rect class="cls-10" x="4.28" y="263.8" width="87.7" height=".88"/>
              <rect class="cls-10" x="4.28" y="261.42" width="87.7" height=".88"/>
              <rect class="cls-10" x="4.28" y="259.04" width="87.7" height=".88"/>
              <rect class="cls-10" x="4.28" y="256.66" width="87.7" height=".88"/>
              <rect class="cls-10" x="4.28" y="254.29" width="87.7" height=".88"/>
              <rect class="cls-10" x="4.28" y="251.91" width="87.7" height=".88"/>
              <rect class="cls-10" x="4.28" y="249.53" width="87.7" height=".88"/>
              <rect class="cls-10" x="4.28" y="247.16" width="87.7" height=".88"/>
              <rect class="cls-10" x="4.28" y="244.78" width="87.7" height=".88"/>
              <rect class="cls-10" x="4.28" y="242.4" width="87.7" height=".88"/>
              <rect class="cls-10" x="4.28" y="240.02" width="87.7" height=".88"/>
              <rect class="cls-10" x="4.28" y="237.65" width="87.7" height=".88"/>
              <rect class="cls-10" x="4.28" y="235.27" width="87.7" height=".88"/>
              <rect class="cls-10" x="4.28" y="232.89" width="87.7" height=".88"/>
              <rect class="cls-10" x="4.28" y="230.52" width="87.7" height=".88"/>
              <rect class="cls-10" x="4.28" y="228.14" width="87.7" height=".88"/>
              <rect class="cls-10" x="4.28" y="225.76" width="87.7" height=".88"/>
              <rect class="cls-10" x="4.28" y="223.38" width="87.7" height=".88"/>
              <rect class="cls-10" x="4.28" y="221.01" width="87.7" height=".88"/>
              <rect class="cls-10" x="4.28" y="218.63" width="87.7" height=".88"/>
              <rect class="cls-10" x="4.28" y="216.25" width="87.7" height=".88"/>
              <rect class="cls-10" x="4.28" y="213.87" width="87.7" height=".88"/>
              <rect class="cls-10" x="4.28" y="211.5" width="87.7" height=".88"/>
              <rect class="cls-10" x="4.28" y="209.12" width="87.7" height=".88"/>
              <rect class="cls-10" x="4.28" y="206.74" width="87.7" height=".88"/>
              <rect class="cls-10" x="4.28" y="204.37" width="87.7" height=".88"/>
              <rect class="cls-10" x="4.28" y="201.99" width="87.7" height=".88"/>
              <rect class="cls-10" x="4.28" y="199.61" width="87.7" height=".88"/>
              <rect class="cls-10" x="4.28" y="197.23" width="87.7" height=".88"/>
              <rect class="cls-19" x="47.66" y="196.25" width=".92" height="81.75"/>
            </g>
            <rect class="cls-19" x="41.76" y="196.25" width="12.73" height="81.75"/>
          </g>
          <g>
            <g>
              <rect class="cls-27" x="93.2" y="197.86" width="84.42" height="78.7"/>
              <rect class="cls-10" x="93.2" y="199.25" width="84.42" height=".84"/>
              <rect class="cls-10" x="93.2" y="201.54" width="84.42" height=".84"/>
              <rect class="cls-10" x="93.2" y="203.82" width="84.42" height=".84"/>
              <rect class="cls-10" x="93.2" y="206.11" width="84.42" height=".84"/>
              <rect class="cls-10" x="93.2" y="208.4" width="84.42" height=".84"/>
              <rect class="cls-10" x="93.2" y="210.69" width="84.42" height=".84"/>
              <rect class="cls-10" x="93.2" y="212.98" width="84.42" height=".84"/>
              <rect class="cls-10" x="93.2" y="215.27" width="84.42" height=".84"/>
              <rect class="cls-10" x="93.2" y="217.55" width="84.42" height=".84"/>
              <rect class="cls-10" x="93.2" y="219.84" width="84.42" height=".84"/>
              <rect class="cls-10" x="93.2" y="222.13" width="84.42" height=".84"/>
              <rect class="cls-10" x="93.2" y="224.42" width="84.42" height=".84"/>
              <rect class="cls-10" x="93.2" y="226.71" width="84.42" height=".84"/>
              <rect class="cls-10" x="93.2" y="229" width="84.42" height=".84"/>
              <rect class="cls-10" x="93.2" y="231.28" width="84.42" height=".84"/>
              <rect class="cls-10" x="93.2" y="233.57" width="84.42" height=".84"/>
              <rect class="cls-10" x="93.2" y="235.86" width="84.42" height=".84"/>
              <rect class="cls-10" x="93.2" y="238.15" width="84.42" height=".84"/>
              <rect class="cls-10" x="93.2" y="240.44" width="84.42" height=".84"/>
              <rect class="cls-10" x="93.2" y="242.73" width="84.42" height=".84"/>
              <rect class="cls-10" x="93.2" y="245.02" width="84.42" height=".84"/>
              <rect class="cls-10" x="93.2" y="247.3" width="84.42" height=".84"/>
              <rect class="cls-10" x="93.2" y="249.59" width="84.42" height=".84"/>
              <rect class="cls-10" x="93.2" y="251.88" width="84.42" height=".84"/>
              <rect class="cls-10" x="93.2" y="254.17" width="84.42" height=".84"/>
              <rect class="cls-10" x="93.2" y="256.46" width="84.42" height=".84"/>
              <rect class="cls-10" x="93.2" y="258.75" width="84.42" height=".84"/>
              <rect class="cls-10" x="93.2" y="261.03" width="84.42" height=".84"/>
              <rect class="cls-10" x="93.2" y="263.32" width="84.42" height=".84"/>
              <rect class="cls-10" x="93.2" y="265.61" width="84.42" height=".84"/>
              <rect class="cls-10" x="93.2" y="267.9" width="84.42" height=".84"/>
              <rect class="cls-10" x="93.2" y="270.19" width="84.42" height=".84"/>
              <rect class="cls-10" x="93.2" y="272.48" width="84.42" height=".84"/>
              <rect class="cls-10" x="93.2" y="274.76" width="84.42" height=".84"/>
              <rect class="cls-19" x="134.96" y="197.86" width=".88" height="78.7"/>
            </g>
            <rect class="cls-20" x="129.28" y="197.86" width="12.25" height="78.7"/>
          </g>
        </g>
        <path class="cls-23" d="m146.85,495.96c-1.02-1.32,6.27-13.72-14.26-13.72-3.54,0-6.11,4.26-.92,5.28,1.42.28-.5,4.53-2.11,5.94-1.11,1.08-4.51-1.84-5.35,1.23-.04,2.18-.92,3.05.28,4.06,2.59,2.34,6.5,3.09,8.19,3.3,2.58.33,5.23-1.1,6.85.23,11.81,9.7,15.39,3.6,7.32-6.32Z"/>
        <path class="cls-23" d="m42.89,528.74c-6.01,15.54-2.73,18.38,2.9,20.56,5.62,2.17,11.1.72,17.11-14.82s9.7-37.37,4.08-39.55c-5.62-2.17-18.07,18.27-24.09,33.81Z"/>
        <path class="cls-13" d="m61.83,558.69c-.73-18.69-6.96-25.07-14.32-24.78-7.36.29-13.07,7.14-12.34,25.82.73,18.69,7.29,33.6,14.65,33.31,7.36-.29,12.74-15.67,12-34.36Z"/>
        <path class="cls-23" d="m62.47,495.96c1.02-1.32-6.27-13.72,14.26-13.72,3.54,0,6.11,4.26.92,5.28-1.42.28.5,4.53,2.11,5.94,1.11,1.08,4.51-1.84,5.35,1.23.04,2.18.92,3.05-.28,4.06-2.59,2.34-6.5,3.09-8.19,3.3-2.58.33-5.23-1.1-6.85.23-11.81,9.7-15.39,3.6-7.32-6.32Z"/>
      </g>
    </g>
  </g>
</svg>