<?xml version="1.0" encoding="UTF-8"?>
<svg xmlns="http://www.w3.org/2000/svg" viewBox="0 0 305.51 437.22">
  <defs>
    <style>
      .cls-1 {
        isolation: isolate;
      }

      .cls-2, .cls-3, .cls-4, .cls-5, .cls-6 {
        stroke-width: 0px;
      }

      .cls-2, .cls-4 {
        fill: #d6a373;
      }

      .cls-3 {
        fill: #c6c6c6;
      }

      .cls-3, .cls-4 {
        mix-blend-mode: multiply;
      }

      .cls-5 {
        fill: #7b6a58;
        mix-blend-mode: screen;
      }

      .cls-7 {
        fill: #ebb878;
      }

      .cls-7, .cls-8 {
        stroke: #cf9457;
        stroke-miterlimit: 10;
        stroke-width: 4.08px;
      }

      .cls-8 {
        fill: #edcca1;
      }

      .cls-6 {
        fill: #f2b982;
      }
    </style>
  </defs>
  <g class="cls-1">
    <g id="Layer_2" data-name="Layer 2">
      <g id="Layer_1-2" data-name="Layer 1">
        <g>
          <polygon class="cls-3" points="194.29 0 130.15 0 130.15 10.71 89.89 10.71 89.89 1.23 21.32 1.23 21.32 414.43 89.89 414.43 89.89 403.72 130.15 403.72 130.15 413.2 194.29 413.2 194.29 403.72 234.76 403.72 234.76 413.2 305.51 413.2 305.51 0 234.76 0 234.76 10.71 194.29 10.71 194.29 0"/>
          <g>
            <g>
              <rect class="cls-7" x="110.87" y="20.75" width="64.14" height="413.2"/>
              <rect class="cls-7" x="215.49" y="20.75" width="70.75" height="413.2"/>
              <rect class="cls-7" x="2.04" y="21.98" width="68.57" height="413.2"/>
            </g>
            <g>
              <rect class="cls-8" x="10.42" y="31.45" width="53.49" height="393.02"/>
              <rect class="cls-8" x="63.91" y="31.45" width="53.49" height="393.02"/>
              <rect class="cls-8" x="117.4" y="31.45" width="53.49" height="393.02"/>
              <rect class="cls-8" x="170.88" y="31.45" width="53.49" height="393.02"/>
              <rect class="cls-8" x="224.37" y="31.45" width="53.49" height="393.02"/>
            </g>
          </g>
          <polygon class="cls-3" points="185.53 397.34 185.53 396.35 186.56 396.35 186.56 395.36 187.59 395.36 187.59 394.37 188.63 394.37 188.63 393.38 189.66 393.38 189.66 392.39 190.69 392.39 190.69 391.4 191.72 391.4 191.72 390.41 192.75 390.41 192.75 389.42 193.78 389.42 193.78 388.43 194.81 388.43 194.81 387.44 195.84 387.44 195.84 386.45 196.87 386.45 196.87 385.46 197.91 385.46 197.91 384.47 198.94 384.47 198.94 383.47 199.97 383.47 199.97 382.48 201 382.48 201 381.49 202.03 381.49 202.03 380.5 203.06 380.5 203.06 379.51 204.09 379.51 204.09 378.52 205.12 378.52 205.12 377.53 206.15 377.53 206.15 220.87 38.1 220.87 38.1 221.86 37.07 221.86 37.07 222.85 36.03 222.85 36.03 223.84 35 223.84 35 224.83 33.97 224.83 33.97 225.82 32.94 225.82 32.94 226.81 31.91 226.81 31.91 227.8 30.88 227.8 30.88 228.79 29.85 228.79 29.85 229.78 28.82 229.78 28.82 230.77 27.79 230.77 27.79 231.76 26.75 231.76 26.75 232.75 25.72 232.75 25.72 233.74 24.69 233.74 24.69 234.73 23.66 234.73 23.66 235.72 22.63 235.72 22.63 236.71 21.6 236.71 21.6 237.7 20.57 237.7 20.57 238.69 19.54 238.69 19.54 239.68 18.51 239.68 18.51 240.67 17.47 240.67 17.47 241.66 16.44 241.66 16.44 398.33 184.5 398.33 184.5 397.34 185.53 397.34 185.53 397.34"/>
          <g>
            <g>
              <rect class="cls-6" x="15.59" y="242.52" width="168.06" height="156.67"/>
              <rect class="cls-2" x="15.59" y="245.28" width="168.06" height="1.68"/>
              <rect class="cls-2" x="15.59" y="249.84" width="168.06" height="1.68"/>
              <rect class="cls-2" x="15.59" y="254.39" width="168.06" height="1.68"/>
              <rect class="cls-2" x="15.59" y="258.95" width="168.06" height="1.68"/>
              <rect class="cls-2" x="15.59" y="263.5" width="168.06" height="1.68"/>
              <rect class="cls-2" x="15.59" y="268.06" width="168.06" height="1.68"/>
              <rect class="cls-2" x="15.59" y="272.62" width="168.06" height="1.68"/>
              <rect class="cls-2" x="15.59" y="277.17" width="168.06" height="1.68"/>
              <rect class="cls-2" x="15.59" y="281.73" width="168.06" height="1.68"/>
              <rect class="cls-2" x="15.59" y="286.28" width="168.06" height="1.68"/>
              <rect class="cls-2" x="15.59" y="290.84" width="168.06" height="1.68"/>
              <rect class="cls-2" x="15.59" y="295.39" width="168.06" height="1.68"/>
              <rect class="cls-2" x="15.59" y="299.95" width="168.06" height="1.68"/>
              <rect class="cls-2" x="15.59" y="304.51" width="168.06" height="1.68"/>
              <rect class="cls-2" x="15.59" y="309.06" width="168.06" height="1.68"/>
              <rect class="cls-2" x="15.59" y="313.62" width="168.06" height="1.68"/>
              <rect class="cls-2" x="15.59" y="318.17" width="168.06" height="1.68"/>
              <rect class="cls-2" x="15.59" y="322.73" width="168.06" height="1.68"/>
              <rect class="cls-2" x="15.59" y="327.28" width="168.06" height="1.68"/>
              <rect class="cls-2" x="15.59" y="331.84" width="168.06" height="1.68"/>
              <rect class="cls-2" x="15.59" y="336.4" width="168.06" height="1.68"/>
              <rect class="cls-2" x="15.59" y="340.95" width="168.06" height="1.68"/>
              <rect class="cls-2" x="15.59" y="345.51" width="168.06" height="1.68"/>
              <rect class="cls-2" x="15.59" y="350.06" width="168.06" height="1.68"/>
              <rect class="cls-2" x="15.59" y="354.62" width="168.06" height="1.68"/>
              <rect class="cls-2" x="15.59" y="359.17" width="168.06" height="1.68"/>
              <rect class="cls-2" x="15.59" y="363.73" width="168.06" height="1.68"/>
              <rect class="cls-2" x="15.59" y="368.29" width="168.06" height="1.68"/>
              <rect class="cls-2" x="15.59" y="372.84" width="168.06" height="1.68"/>
              <rect class="cls-2" x="15.59" y="377.4" width="168.06" height="1.68"/>
              <rect class="cls-2" x="15.59" y="381.95" width="168.06" height="1.68"/>
              <rect class="cls-2" x="15.59" y="386.51" width="168.06" height="1.68"/>
              <rect class="cls-2" x="15.59" y="391.06" width="168.06" height="1.68"/>
              <rect class="cls-2" x="15.59" y="395.62" width="168.06" height="1.68"/>
              <rect class="cls-4" x="98.74" y="242.52" width="1.76" height="156.67"/>
            </g>
            <rect class="cls-4" x="87.42" y="242.52" width="24.39" height="156.67"/>
          </g>
          <polygon class="cls-3" points="102.93 232.69 102.93 231.7 103.96 231.7 103.96 230.71 104.99 230.71 104.99 229.72 106.02 229.72 106.02 228.73 107.06 228.73 107.06 227.74 108.09 227.74 108.09 226.75 109.12 226.75 109.12 225.76 110.15 225.76 110.15 224.77 111.18 224.77 111.18 223.78 112.21 223.78 112.21 222.79 113.24 222.79 113.24 221.8 114.27 221.8 114.27 220.81 115.3 220.81 115.3 219.82 116.33 219.82 116.33 218.82 117.37 218.82 117.37 217.83 118.4 217.83 118.4 216.84 119.43 216.84 119.43 215.85 120.46 215.85 120.46 214.86 121.49 214.86 121.49 213.87 122.52 213.87 122.52 212.88 123.55 212.88 123.55 44.83 35.11 44.83 35.11 45.82 34.08 45.82 34.08 46.81 33.04 46.81 33.04 47.8 32.01 47.8 32.01 48.79 30.98 48.79 30.98 49.78 29.95 49.78 29.95 50.77 28.92 50.77 28.92 51.76 27.89 51.76 27.89 52.75 26.86 52.75 26.86 53.74 25.83 53.74 25.83 54.73 24.8 54.73 24.8 55.72 23.76 55.72 23.76 56.71 22.73 56.71 22.73 57.7 21.7 57.7 21.7 58.69 20.67 58.69 20.67 59.68 19.64 59.68 19.64 60.67 18.61 60.67 18.61 61.66 17.58 61.66 17.58 62.65 16.55 62.65 16.55 63.64 15.52 63.64 15.52 64.63 14.49 64.63 14.49 65.62 13.45 65.62 13.45 137.46 13.27 137.46 13.27 161.84 13.45 161.84 13.45 233.68 101.9 233.68 101.9 232.69 102.93 232.69 102.93 232.69"/>
          <g>
            <rect class="cls-6" x="12.6" y="66.48" width="88.45" height="168.06"/>
            <rect class="cls-2" x="15.48" y="66.48" width="1.68" height="168.06"/>
            <rect class="cls-2" x="20.03" y="66.48" width="1.68" height="168.06"/>
            <rect class="cls-2" x="24.59" y="66.48" width="1.68" height="168.06"/>
            <rect class="cls-2" x="29.14" y="66.48" width="1.68" height="168.06"/>
            <rect class="cls-2" x="33.7" y="66.48" width="1.68" height="168.06"/>
            <rect class="cls-2" x="38.25" y="66.48" width="1.68" height="168.06"/>
            <rect class="cls-2" x="42.81" y="66.48" width="1.68" height="168.06"/>
            <rect class="cls-2" x="47.37" y="66.48" width="1.68" height="168.06"/>
            <rect class="cls-2" x="51.92" y="66.48" width="1.68" height="168.06"/>
            <rect class="cls-2" x="56.48" y="66.48" width="1.68" height="168.06"/>
            <rect class="cls-2" x="61.03" y="66.48" width="1.68" height="168.06"/>
            <rect class="cls-2" x="65.59" y="66.48" width="1.68" height="168.06"/>
            <rect class="cls-2" x="70.14" y="66.48" width="1.68" height="168.06"/>
            <rect class="cls-2" x="74.7" y="66.48" width="1.68" height="168.06"/>
            <rect class="cls-2" x="79.26" y="66.48" width="1.68" height="168.06"/>
            <rect class="cls-2" x="83.81" y="66.48" width="1.68" height="168.06"/>
            <rect class="cls-2" x="88.37" y="66.48" width="1.68" height="168.06"/>
            <rect class="cls-2" x="92.92" y="66.48" width="1.68" height="168.06"/>
            <rect class="cls-2" x="97.48" y="66.48" width="1.68" height="168.06"/>
            <rect class="cls-4" x="12.41" y="149.63" width="88.63" height="1.76"/>
            <rect class="cls-4" x="12.41" y="138.31" width="88.63" height="24.39"/>
          </g>
          <polygon class="cls-3" points="134.91 73.15 134.91 74.04 133.99 74.04 133.99 74.92 133.07 74.92 133.07 75.81 132.14 75.81 132.14 76.7 131.22 76.7 131.22 77.58 130.3 77.58 130.3 78.47 129.37 78.47 129.37 79.35 128.45 79.35 128.45 80.24 127.53 80.24 127.53 81.13 126.61 81.13 126.61 82.01 125.68 82.01 125.68 82.9 124.76 82.9 124.76 83.78 123.84 83.78 123.84 84.67 122.92 84.67 122.92 85.56 121.99 85.56 121.99 86.44 121.07 86.44 121.07 87.33 120.15 87.33 120.15 88.22 119.22 88.22 119.22 89.1 118.3 89.1 118.3 89.99 117.38 89.99 117.38 90.88 116.46 90.88 116.46 231.08 266.86 231.08 266.86 230.2 267.78 230.2 267.78 229.31 268.7 229.31 268.7 228.43 269.63 228.43 269.63 227.54 270.55 227.54 270.55 226.65 271.47 226.65 271.47 225.77 272.4 225.77 272.4 224.88 273.32 224.88 273.32 223.99 274.24 223.99 274.24 223.11 275.16 223.11 275.16 222.22 276.09 222.22 276.09 221.34 277.01 221.34 277.01 220.45 277.93 220.45 277.93 219.56 278.85 219.56 278.85 218.68 279.78 218.68 279.78 217.79 280.7 217.79 280.7 216.9 281.62 216.9 281.62 216.02 282.55 216.02 282.55 215.13 283.47 215.13 283.47 214.25 284.39 214.25 284.39 213.36 285.31 213.36 285.31 212.47 286.24 212.47 286.24 72.26 135.83 72.26 135.83 73.15 134.91 73.15 134.91 73.15"/>
          <g>
            <g>
              <rect class="cls-6" x="115.69" y="91.64" width="150.4" height="140.21"/>
              <rect class="cls-2" x="115.69" y="227.88" width="150.4" height="1.5"/>
              <rect class="cls-2" x="115.69" y="223.8" width="150.4" height="1.5"/>
              <rect class="cls-2" x="115.69" y="219.72" width="150.4" height="1.5"/>
              <rect class="cls-2" x="115.69" y="215.64" width="150.4" height="1.5"/>
              <rect class="cls-2" x="115.69" y="211.57" width="150.4" height="1.5"/>
              <rect class="cls-2" x="115.69" y="207.49" width="150.4" height="1.5"/>
              <rect class="cls-2" x="115.69" y="203.41" width="150.4" height="1.5"/>
              <rect class="cls-2" x="115.69" y="199.34" width="150.4" height="1.5"/>
              <rect class="cls-2" x="115.69" y="195.26" width="150.4" height="1.5"/>
              <rect class="cls-2" x="115.69" y="191.18" width="150.4" height="1.5"/>
              <rect class="cls-2" x="115.69" y="187.1" width="150.4" height="1.5"/>
              <rect class="cls-2" x="115.69" y="183.03" width="150.4" height="1.5"/>
              <rect class="cls-2" x="115.69" y="178.95" width="150.4" height="1.5"/>
              <rect class="cls-2" x="115.69" y="174.87" width="150.4" height="1.5"/>
              <rect class="cls-2" x="115.69" y="170.8" width="150.4" height="1.5"/>
              <rect class="cls-2" x="115.69" y="166.72" width="150.4" height="1.5"/>
              <rect class="cls-2" x="115.69" y="162.64" width="150.4" height="1.5"/>
              <rect class="cls-2" x="115.69" y="158.56" width="150.4" height="1.5"/>
              <rect class="cls-2" x="115.69" y="154.49" width="150.4" height="1.5"/>
              <rect class="cls-2" x="115.69" y="150.41" width="150.4" height="1.5"/>
              <rect class="cls-2" x="115.69" y="146.33" width="150.4" height="1.5"/>
              <rect class="cls-2" x="115.69" y="142.26" width="150.4" height="1.5"/>
              <rect class="cls-2" x="115.69" y="138.18" width="150.4" height="1.5"/>
              <rect class="cls-2" x="115.69" y="134.1" width="150.4" height="1.5"/>
              <rect class="cls-2" x="115.69" y="130.02" width="150.4" height="1.5"/>
              <rect class="cls-2" x="115.69" y="125.95" width="150.4" height="1.5"/>
              <rect class="cls-2" x="115.69" y="121.87" width="150.4" height="1.5"/>
              <rect class="cls-2" x="115.69" y="117.79" width="150.4" height="1.5"/>
              <rect class="cls-2" x="115.69" y="113.72" width="150.4" height="1.5"/>
              <rect class="cls-2" x="115.69" y="109.64" width="150.4" height="1.5"/>
              <rect class="cls-2" x="115.69" y="105.56" width="150.4" height="1.5"/>
              <rect class="cls-2" x="115.69" y="101.48" width="150.4" height="1.5"/>
              <rect class="cls-2" x="115.69" y="97.41" width="150.4" height="1.5"/>
              <rect class="cls-2" x="115.69" y="93.33" width="150.4" height="1.5"/>
              <rect class="cls-4" x="190.1" y="91.64" width="1.58" height="140.21"/>
            </g>
            <rect class="cls-5" x="179.98" y="91.64" width="21.83" height="140.21"/>
          </g>
          <polygon class="cls-3" points="208.67 248.25 208.67 249.09 207.8 249.09 207.8 249.92 206.93 249.92 206.93 250.76 206.06 250.76 206.06 251.6 205.19 251.6 205.19 252.43 204.32 252.43 204.32 253.27 203.45 253.27 203.45 254.1 202.58 254.1 202.58 254.94 201.7 254.94 201.7 255.78 200.83 255.78 200.83 256.61 199.96 256.61 199.96 257.45 199.09 257.45 199.09 258.29 198.22 258.29 198.22 259.12 197.35 259.12 197.35 259.96 196.48 259.96 196.48 260.8 195.61 260.8 195.61 261.63 194.74 261.63 194.74 262.47 193.87 262.47 193.87 263.31 193 263.31 193 264.14 192.12 264.14 192.12 264.98 191.25 264.98 191.25 406.93 265.96 406.93 265.96 406.1 266.83 406.1 266.83 405.26 267.7 405.26 267.7 404.42 268.57 404.42 268.57 403.59 269.45 403.59 269.45 402.75 270.32 402.75 270.32 401.91 271.19 401.91 271.19 401.08 272.06 401.08 272.06 400.24 272.93 400.24 272.93 399.41 273.8 399.41 273.8 398.57 274.67 398.57 274.67 397.73 275.54 397.73 275.54 396.9 276.41 396.9 276.41 396.06 277.28 396.06 277.28 395.22 278.16 395.22 278.16 394.39 279.03 394.39 279.03 393.55 279.9 393.55 279.9 392.71 280.77 392.71 280.77 391.88 281.64 391.88 281.64 391.04 282.51 391.04 282.51 390.2 283.38 390.2 283.38 389.37 284.25 389.37 284.25 328.69 284.41 328.69 284.41 308.09 284.25 308.09 284.25 247.41 209.54 247.41 209.54 248.25 208.67 248.25 208.67 248.25"/>
          <g>
            <rect class="cls-6" x="190.53" y="265.7" width="74.71" height="141.95"/>
            <rect class="cls-2" x="261.39" y="265.7" width="1.42" height="141.95"/>
            <rect class="cls-2" x="257.54" y="265.7" width="1.42" height="141.95"/>
            <rect class="cls-2" x="253.69" y="265.7" width="1.42" height="141.95"/>
            <rect class="cls-2" x="249.85" y="265.7" width="1.42" height="141.95"/>
            <rect class="cls-2" x="246" y="265.7" width="1.42" height="141.95"/>
            <rect class="cls-2" x="242.15" y="265.7" width="1.42" height="141.95"/>
            <rect class="cls-2" x="238.3" y="265.7" width="1.42" height="141.95"/>
            <rect class="cls-2" x="234.45" y="265.7" width="1.42" height="141.95"/>
            <rect class="cls-2" x="230.61" y="265.7" width="1.42" height="141.95"/>
            <rect class="cls-2" x="226.76" y="265.7" width="1.42" height="141.95"/>
            <rect class="cls-2" x="222.91" y="265.7" width="1.42" height="141.95"/>
            <rect class="cls-2" x="219.06" y="265.7" width="1.42" height="141.95"/>
            <rect class="cls-2" x="215.21" y="265.7" width="1.42" height="141.95"/>
            <rect class="cls-2" x="211.37" y="265.7" width="1.42" height="141.95"/>
            <rect class="cls-2" x="207.52" y="265.7" width="1.42" height="141.95"/>
            <rect class="cls-2" x="203.67" y="265.7" width="1.42" height="141.95"/>
            <rect class="cls-2" x="199.82" y="265.7" width="1.42" height="141.95"/>
            <rect class="cls-2" x="195.97" y="265.7" width="1.42" height="141.95"/>
            <rect class="cls-2" x="192.12" y="265.7" width="1.42" height="141.95"/>
            <rect class="cls-4" x="190.53" y="335.94" width="74.86" height="1.49"/>
            <rect class="cls-5" x="190.53" y="326.38" width="74.86" height="20.6"/>
          </g>
        </g>
      </g>
    </g>
  </g>
</svg>