<?xml version="1.0" encoding="UTF-8"?>
<svg id="Layer_2" data-name="Layer 2" xmlns="http://www.w3.org/2000/svg" xmlns:xlink="http://www.w3.org/1999/xlink" viewBox="0 0 380.29 1329.89">
  <defs>
    <style>
      .cls-1 {
        fill: #bad4e3;
      }

      .cls-1, .cls-2, .cls-3, .cls-4, .cls-5, .cls-6, .cls-7, .cls-8, .cls-9, .cls-10 {
        stroke-width: 0px;
      }

      .cls-2 {
        fill: url(#linear-gradient);
      }

      .cls-3 {
        fill: #7d9cad;
      }

      .cls-4 {
        fill: #3c3c3b;
      }

      .cls-5 {
        fill: #fff;
      }

      .cls-6 {
        fill: #82a7ba;
      }

      .cls-7 {
        fill: #b1d2e3;
      }

      .cls-8 {
        fill: #7da3b5;
      }

      .cls-9 {
        fill: #9fbfcf;
      }

      .cls-10 {
        fill: #575756;
      }
    </style>
    <linearGradient id="linear-gradient" x1="138.91" y1="238.65" x2="246.96" y2="220.34" gradientUnits="userSpaceOnUse">
      <stop offset=".02" stop-color="#3c3c3b"/>
      <stop offset=".14" stop-color="#3d3d3c"/>
      <stop offset=".15" stop-color="#3f3f3e"/>
      <stop offset=".17" stop-color="#414140"/>
      <stop offset=".17" stop-color="#484847"/>
      <stop offset=".18" stop-color="#545454"/>
      <stop offset=".18" stop-color="#666"/>
      <stop offset=".19" stop-color="#7d7d7d"/>
      <stop offset=".19" stop-color="#878787"/>
      <stop offset="1" stop-color="#3c3c3b"/>
    </linearGradient>
  </defs>
  <g id="_Ñëîé_1" data-name="Ñëîé 1">
    <g>
      <g>
        <rect class="cls-4" x="39.54" y="80.77" width="39.21" height="111.6" rx="9" ry="9"/>
        <rect class="cls-4" x="301.55" y="80.77" width="39.21" height="111.6" rx="9" ry="9"/>
      </g>
      <g>
        <path class="cls-4" d="m97.69,450.7h-21.21c-4.97,0-9-3.06-9-6.85v-71.23c0-3.78,4.03-6.85,9-6.85h21.21c4.97,0,9,3.06,9,6.85v71.23c0,3.78-4.03,6.85-9,6.85Z"/>
        <path class="cls-4" d="m303.81,450.7h-21.21c-4.97,0-9-3.06-9-6.85v-71.23c0-3.78,4.03-6.85,9-6.85h21.21c4.97,0,9,3.06,9,6.85v71.23c0,3.78-4.03,6.85-9,6.85Z"/>
      </g>
      <path class="cls-4" d="m265.99,526.03c0,8.09-1.46,14.64-3.25,14.64H117.55c-1.8,0-3.25-6.56-3.25-14.64v-103.65c0-8.09,1.46-14.64,3.25-14.64h145.18c1.8,0,3.25,6.56,3.25,14.64v103.65Z"/>
      <g>
        <g>
          <path class="cls-4" d="m50.18,610.41h-20.05c-4.7,0-8.5-4.03-8.5-9v-93.61c0-4.97,3.81-9,8.5-9h20.05c4.7,0,8.5,4.03,8.5,9v93.61c0,4.97-3.81,9-8.5,9Z"/>
          <path class="cls-4" d="m350.15,610.41h-20.05c-4.7,0-8.5-4.03-8.5-9v-93.61c0-4.97,3.81-9,8.5-9h20.05c4.7,0,8.5,4.03,8.5,9v93.61c0,4.97-3.81,9-8.5,9Z"/>
        </g>
        <g>
          <path class="cls-4" d="m50.18,729.06h-20.05c-4.7,0-8.5-4.03-8.5-9v-93.61c0-4.97,3.81-9,8.5-9h20.05c4.7,0,8.5,4.03,8.5,9v93.61c0,4.97-3.81,9-8.5,9Z"/>
          <path class="cls-4" d="m350.15,729.06h-20.05c-4.7,0-8.5-4.03-8.5-9v-93.61c0-4.97,3.81-9,8.5-9h20.05c4.7,0,8.5,4.03,8.5,9v93.61c0,4.97-3.81,9-8.5,9Z"/>
        </g>
        <g>
          <path class="cls-4" d="m50.18,1194.25h-20.05c-4.7,0-8.5-4.03-8.5-9v-93.61c0-4.97,3.81-9,8.5-9h20.05c4.7,0,8.5,4.03,8.5,9v93.61c0,4.97-3.81,9-8.5,9Z"/>
          <path class="cls-4" d="m350.15,1194.25h-20.05c-4.7,0-8.5-4.03-8.5-9v-93.61c0-4.97,3.81-9,8.5-9h20.05c4.7,0,8.5,4.03,8.5,9v93.61c0,4.97-3.81,9-8.5,9Z"/>
        </g>
        <g>
          <path class="cls-4" d="m50.18,1312.91h-20.05c-4.7,0-8.5-4.03-8.5-9v-93.61c0-4.97,3.81-9,8.5-9h20.05c4.7,0,8.5,4.03,8.5,9v93.61c0,4.97-3.81,9-8.5,9Z"/>
          <path class="cls-4" d="m350.15,1312.91h-20.05c-4.7,0-8.5-4.03-8.5-9v-93.61c0-4.97,3.81-9,8.5-9h20.05c4.7,0,8.5,4.03,8.5,9v93.61c0,4.97-3.81,9-8.5,9Z"/>
        </g>
        <g>
          <rect class="cls-9" x="31.12" y="470.1" width="321.54" height="859.78"/>
          <polygon class="cls-1" points="48.81 1307.49 30.4 1329.89 30.4 470.1 48.81 492.5 48.81 1307.49"/>
          <polygon class="cls-6" points="334.24 492.5 352.65 470.1 352.65 1329.89 334.24 1307.49 334.24 492.5"/>
          <polygon class="cls-3" points="322.12 1314.65 349.18 1329.89 30.4 1329.89 57.45 1314.65 322.12 1314.65"/>
          <polygon class="cls-7" points="57.45 485.34 30.4 470.1 349.18 470.1 322.12 485.34 57.45 485.34"/>
          <rect class="cls-8" x="61.27" y="485.34" width="7.7" height="823.34"/>
          <rect class="cls-8" x="78.12" y="485.34" width="7.7" height="823.34"/>
          <rect class="cls-8" x="94.98" y="485.34" width="7.7" height="823.34"/>
          <rect class="cls-8" x="111.83" y="485.34" width="7.7" height="823.34"/>
          <rect class="cls-8" x="128.68" y="485.34" width="7.7" height="823.34"/>
          <rect class="cls-8" x="145.54" y="485.34" width="7.7" height="823.34"/>
          <rect class="cls-8" x="162.39" y="485.34" width="7.7" height="823.34"/>
          <rect class="cls-8" x="179.25" y="485.34" width="7.7" height="823.34"/>
          <rect class="cls-8" x="196.1" y="485.34" width="7.7" height="823.34"/>
          <rect class="cls-8" x="212.96" y="485.34" width="7.7" height="823.34"/>
          <rect class="cls-8" x="229.81" y="485.34" width="7.7" height="823.34"/>
          <rect class="cls-8" x="246.66" y="485.34" width="7.7" height="823.34"/>
          <rect class="cls-8" x="263.52" y="485.34" width="7.7" height="823.34"/>
          <rect class="cls-8" x="280.37" y="485.34" width="7.7" height="823.34"/>
          <rect class="cls-8" x="297.23" y="485.34" width="7.7" height="823.34"/>
          <rect class="cls-8" x="314.08" y="485.34" width="7.7" height="823.34"/>
        </g>
      </g>
      <path class="cls-10" d="m301.43,35c0,19.33-49.82,52.51-111.28,52.51s-111.28-33.18-111.28-52.51S128.69,0,190.14,0s111.28,15.67,111.28,35Z"/>
      <path class="cls-3" d="m124.58,435.94c-37.83.26-68.88,8.94-69.16-21.43l-4.05-330.33c-.47-30.33,30.03-72.68,67.76-73.02l136.59-1.02c37.83-.33,68.75,41.55,69.15,71.93l4.06,330.29c.37,30.36-30.06,22.17-67.86,22.55l-136.49,1.03Z"/>
      <rect class="cls-10" x="137.81" y="18.54" width="104.67" height="24.03" rx="5" ry="5"/>
      <g>
        <path class="cls-5" d="m84.57,80.77s-26.05-3.89-22.78-10.96c3.28-6.91,28.19-47.95,58.39-47.95s-35.62,58.91-35.62,58.91Z"/>
        <path class="cls-5" d="m295.74,80.77s25.95-3.89,22.78-10.96c-3.33-6.91-28.18-47.95-58.52-47.95s35.75,58.91,35.75,58.91Z"/>
      </g>
      <path class="cls-9" d="m129.28,425.71c-33.27.26-60.45-14.61-60.66-33.12V77.52c-.23-18.54,26.49-51.34,59.78-51.54l120.15-.91c33.26-.28,60.35,32.06,60.67,50.52l2.47,315.18c.22,18.53-26.5,33.69-59.77,33.97l-122.63.98Z"/>
      <path class="cls-1" d="m146.38,416.49c-24.02.18-43.67-13.36-43.86-30.15l-.25-85.27c-.2-16.83,19.07-30.63,43.1-30.75l86.74-.61c24.02-.23,43.6,13.29,43.88,30.04l2.02,85.37c.19,16.81-19.06,30.51-43.08,30.72l-88.55.66Z"/>
      <path class="cls-3" d="m145.06,229.76c-24.65.2-44.8-10.52-44.95-23.87l-.08-124.55c-.16-13.38,19.64-41.9,44.31-42.05l89.04-.68c24.66-.23,44.72,27.98,44.97,41.29l1.9,124.62c.16,13.36-19.64,24.29-44.3,24.52l-90.9.72Z"/>
      <path class="cls-1" d="m148.97,229.79c-22.54.18-40.96-10.56-41.12-23.91l-.11-124.55c-.16-13.38,17.94-41.88,40.49-42.01l81.41-.61c22.55-.21,40.9,28.01,41.14,41.33l1.77,124.62c.16,13.36-17.93,24.28-40.48,24.48l-83.1.65Z"/>
      <g>
        <path class="cls-4" d="m67.62,408.62c13.26-1.55,21.81-12.56,21.81-12.56v-49.13h-28.2c-.04,34.8,1.47,62.21,6.39,61.68Z"/>
        <path class="cls-4" d="m89.42,288.62l-23.5-53.05s-4.29,46.24-4.67,104.9h28.17v-51.84Z"/>
        <path class="cls-4" d="m290.87,396.06s8.44,11.01,21.82,12.56c4.94.53,6.44-26.89,6.37-61.68h-28.19v49.13Z"/>
        <path class="cls-4" d="m314.25,235.57l-23.38,53.05v51.84h28.16c-.42-58.65-4.78-104.9-4.78-104.9Z"/>
        <path class="cls-4" d="m191.42,172.8h-2.55c-4.4-.38-8.61-.55-12.73-.55-73.73-.13-104.39,40.33-104.39,40.33l21.63,66.64s43.24-20.04,96.62-17.69h.18c24.35-1.02,46.42,2.45,63.38,6.56,20.47,5.11,33.28,11.13,33.28,11.13l21.64-66.64s-34.09-45.26-117.06-39.78Z"/>
        <path class="cls-2" d="m79.2,214.11c7.96-8.37,38.09-35.25,96.59-35.25h.35c4.09,0,8.07.17,12.17.53l.28.02h3.27c4.49-.31,8.96-.46,13.31-.46,58.42,0,88.04,26.75,95.88,35.13l-18.27,56.28c-5.93-2.31-15.45-5.65-27.61-8.68-19-4.61-37.93-6.94-56.32-6.94-2.92,0-5.86.06-8.75.18-2.93-.13-5.92-.19-8.89-.19-38.47,0-70.29,10.44-83.75,15.64l-18.26-56.26Z"/>
      </g>
      <g>
        <g>
          <path class="cls-4" d="m57.34,228.89l-13.09-10.99c-3.57-3-3.57-10.49,0-13.49l13.09-10.99c3.57-3,8.03.75,8.03,6.74v21.98c0,5.99-4.46,9.74-8.03,6.74Z"/>
          <g>
            <path class="cls-4" d="m2.19,232.1c.37.88.87,1.68,1.47,2.37l49.74-21.06c-.08-.91-.31-1.82-.68-2.71l-.39-.92L1.8,231.18l.39.92Z"/>
            <path class="cls-3" d="m38.7,202.37l-32.73,13.85c-4.92,2.08-7.27,7.63-5.25,12.39l1.08,2.56,50.53-21.39-1.08-2.56c-2.02-4.76-7.64-6.94-12.55-4.86Z"/>
          </g>
        </g>
        <g>
          <path class="cls-4" d="m322.94,228.89l13.09-10.99c3.57-3,3.57-10.49,0-13.49l-13.09-10.99c-3.57-3-8.03.75-8.03,6.74v21.98c0,5.99,4.46,9.74,8.03,6.74Z"/>
          <g>
            <path class="cls-4" d="m378.09,232.1c-.37.88-.87,1.68-1.47,2.37l-49.74-21.06c.08-.91.31-1.82.68-2.71l.39-.92,50.53,21.39-.39.92Z"/>
            <path class="cls-3" d="m341.59,202.37l32.73,13.85c4.92,2.08,7.27,7.63,5.25,12.39l-1.08,2.56-50.53-21.39,1.08-2.56c2.02-4.76,7.64-6.94,12.55-4.86Z"/>
          </g>
        </g>
      </g>
      <g>
        <rect class="cls-3" x="130.22" y="289.58" width="9.85" height="118.35" rx="4.88" ry="4.88"/>
        <rect class="cls-3" x="157.72" y="289.58" width="9.85" height="118.35" rx="4.88" ry="4.88"/>
        <rect class="cls-3" x="185.22" y="289.58" width="9.85" height="118.35" rx="4.88" ry="4.88"/>
        <rect class="cls-3" x="212.72" y="289.58" width="9.85" height="118.35" rx="4.88" ry="4.88"/>
        <rect class="cls-3" x="240.22" y="289.58" width="9.85" height="118.35" rx="4.88" ry="4.88"/>
      </g>
    </g>
  </g>
</svg>