<?xml version="1.0" encoding="UTF-8"?>
<svg id="Layer_2" data-name="Layer 2" xmlns="http://www.w3.org/2000/svg" xmlns:xlink="http://www.w3.org/1999/xlink" viewBox="0 0 380.29 892.27">
  <defs>
    <style>
      .cls-1 {
        fill: #b03c3c;
      }

      .cls-1, .cls-2, .cls-3, .cls-4, .cls-5, .cls-6, .cls-7, .cls-8, .cls-9 {
        stroke-width: 0px;
      }

      .cls-2 {
        fill: url(#linear-gradient);
      }

      .cls-3 {
        fill: #f0ae2b;
      }

      .cls-4 {
        fill: #b5781c;
      }

      .cls-5 {
        fill: #3c3c3b;
      }

      .cls-6 {
        fill: #fff;
      }

      .cls-7 {
        fill: #f7c443;
      }

      .cls-8 {
        fill: #de9322;
      }

      .cls-9 {
        fill: #575756;
      }
    </style>
    <linearGradient id="linear-gradient" x1="138.91" y1="138.15" x2="246.96" y2="119.83" gradientUnits="userSpaceOnUse">
      <stop offset=".02" stop-color="#3c3c3b"/>
      <stop offset=".14" stop-color="#3d3d3c"/>
      <stop offset=".15" stop-color="#3f3f3e"/>
      <stop offset=".17" stop-color="#414140"/>
      <stop offset=".17" stop-color="#484847"/>
      <stop offset=".18" stop-color="#545454"/>
      <stop offset=".18" stop-color="#666"/>
      <stop offset=".19" stop-color="#7d7d7d"/>
      <stop offset=".19" stop-color="#878787"/>
      <stop offset="1" stop-color="#3c3c3b"/>
    </linearGradient>
  </defs>
  <g id="_Ñëîé_1" data-name="Ñëîé 1">
    <g>
      <rect class="cls-5" x="73.56" y="274.23" width="233.16" height="45.4" rx="5" ry="5"/>
      <ellipse class="cls-9" cx="190.14" cy="35" rx="111.28" ry="35"/>
      <g>
        <path class="cls-1" d="m84.91,370.34s36.68,22.84,42.91,14.68c4.68-6.13-42.91-14.68-42.91-14.68Z"/>
        <path class="cls-1" d="m295.76,368.86s-36.11,23.22-42.58,15.12c-4.77-6.04,42.58-15.12,42.58-15.12Z"/>
      </g>
      <path class="cls-8" d="m124.58,302.43c-37.83.26-68.88,8.94-69.16-21.43l-4.05-214.33c-.47-30.33,30.03-55.17,67.76-55.51l136.59-1.02c37.83-.33,68.75,24.05,69.15,54.42l4.06,214.29c.37,30.36-30.06,22.17-67.86,22.55l-136.49,1.03Z"/>
      <rect class="cls-9" x="137.81" y="18.54" width="104.67" height="24.03" rx="5" ry="5"/>
      <g>
        <path class="cls-6" d="m84.57,63.27s-26.05-3.89-22.78-10.96c3.28-6.91,28.19-30.44,58.39-30.44s-35.62,41.4-35.62,41.4Z"/>
        <path class="cls-6" d="m295.74,63.27s25.95-3.89,22.78-10.96c-3.33-6.91-28.18-30.44-58.52-30.44s35.75,41.4,35.75,41.4Z"/>
      </g>
      <path class="cls-3" d="m129.28,292.2c-33.27.26-60.45-14.61-60.66-33.12V60.01c-.23-18.54,26.49-33.83,59.78-34.03l120.15-.91c33.26-.28,60.35,14.55,60.67,33.01l2.47,199.18c.22,18.53-26.5,33.69-59.77,33.97l-122.63.98Z"/>
      <path class="cls-7" d="m142.01,283c-26.37.2-47.93-13.31-48.12-30.11l-.16-52.27c-.2-16.83,20.97-30.65,47.35-30.79l95.23-.7c26.38-.25,47.85,13.25,48.14,30l2.1,52.36c.2,16.81-20.96,30.53-47.33,30.76l-97.22.74Z"/>
      <path class="cls-8" d="m145.06,125.25c-24.65.2-44.8-10.52-44.95-23.87l-.08-41.55c-.16-13.38,19.64-24.39,44.31-24.54l89.04-.68c24.66-.23,44.72,10.47,44.97,23.78l1.9,41.62c.16,13.36-19.64,24.29-44.3,24.52l-90.9.72Z"/>
      <path class="cls-7" d="m148.97,125.29c-22.54.18-40.96-10.56-41.12-23.91l-.11-41.55c-.16-13.38,17.94-24.38,40.49-24.5l81.41-.61c22.55-.21,40.9,10.51,41.14,23.82l1.77,41.62c.16,13.36-17.93,24.28-40.48,24.48l-83.1.65Z"/>
      <g>
        <path class="cls-5" d="m89.42,237.55v-49.44l-23.5-53.05s-11.61,116.49,1.7,115.05c13.26-1.55,21.81-12.56,21.81-12.56Z"/>
        <path class="cls-5" d="m290.87,237.55s8.44,11.01,21.82,12.56c13.37,1.44,1.56-115.05,1.56-115.05l-23.38,53.05v49.44Z"/>
        <path class="cls-5" d="m191.42,72.29h-2.55c-4.4-.38-8.61-.55-12.73-.55-73.73-.13-104.39,40.33-104.39,40.33l21.63,66.64s43.24-20.04,96.62-17.69h.18c24.35-1.02,46.42,2.45,63.38,6.56,20.47,5.11,33.28,11.13,33.28,11.13l21.64-66.64s-34.09-45.26-117.06-39.78Z"/>
        <path class="cls-2" d="m79.2,113.61c7.96-8.37,38.09-35.25,96.59-35.25h.35c4.09,0,8.07.17,12.17.53l.28.02h3.27c4.49-.31,8.96-.46,13.31-.46,58.42,0,88.04,26.75,95.88,35.13l-18.27,56.28c-5.93-2.31-15.45-5.65-27.61-8.68-19-4.61-37.93-6.94-56.32-6.94-2.92,0-5.86.06-8.75.18-2.93-.13-5.92-.19-8.89-.19-38.47,0-70.29,10.44-83.75,15.64l-18.26-56.26Z"/>
      </g>
      <g>
        <rect class="cls-3" x="15.63" y="310.76" width="350.19" height="581.51"/>
        <polygon class="cls-3" points="34.9 859.26 14.85 892.27 14.85 310.76 34.9 343.77 34.9 859.26"/>
        <polygon class="cls-8" points="345.77 343.77 365.82 310.76 365.82 892.27 345.77 859.26 345.77 343.77"/>
        <polygon class="cls-4" points="332.57 869.8 362.03 892.27 14.85 892.27 44.31 869.8 332.57 869.8"/>
        <polygon class="cls-7" points="44.31 333.22 14.85 310.76 362.03 310.76 332.57 333.22 44.31 333.22"/>
        <rect class="cls-8" x="34.9" y="846.86" width="310.87" height="10"/>
        <rect class="cls-8" x="34.9" y="824.97" width="310.87" height="10"/>
        <rect class="cls-8" x="34.9" y="803.09" width="310.87" height="10"/>
        <rect class="cls-8" x="34.9" y="781.2" width="310.87" height="10"/>
        <rect class="cls-8" x="34.9" y="759.31" width="310.87" height="10"/>
        <rect class="cls-8" x="34.9" y="737.42" width="310.87" height="10"/>
        <rect class="cls-8" x="34.9" y="715.53" width="310.87" height="10"/>
        <rect class="cls-8" x="34.9" y="693.64" width="310.87" height="10"/>
        <rect class="cls-8" x="34.9" y="671.75" width="310.87" height="10"/>
        <rect class="cls-8" x="34.9" y="649.86" width="310.87" height="10"/>
        <rect class="cls-8" x="34.9" y="627.97" width="310.87" height="10"/>
        <rect class="cls-8" x="34.9" y="606.08" width="310.87" height="10"/>
        <rect class="cls-8" x="34.9" y="584.19" width="310.87" height="10"/>
        <rect class="cls-8" x="34.9" y="562.3" width="310.87" height="10"/>
        <rect class="cls-8" x="34.9" y="540.41" width="310.87" height="10"/>
        <rect class="cls-8" x="34.9" y="518.52" width="310.87" height="10"/>
        <rect class="cls-8" x="34.9" y="496.63" width="310.87" height="10"/>
        <rect class="cls-8" x="34.9" y="474.74" width="310.87" height="10"/>
        <rect class="cls-8" x="34.9" y="452.85" width="310.87" height="10"/>
        <rect class="cls-8" x="34.9" y="430.96" width="310.87" height="10"/>
        <rect class="cls-8" x="34.9" y="409.07" width="310.87" height="10"/>
        <rect class="cls-8" x="34.9" y="387.18" width="310.87" height="10"/>
        <rect class="cls-8" x="34.9" y="365.29" width="310.87" height="10"/>
        <rect class="cls-8" x="34.9" y="343.4" width="310.87" height="10"/>
      </g>
      <g>
        <g>
          <path class="cls-5" d="m57.34,128.39l-13.09-10.99c-3.57-3-3.57-10.49,0-13.49l13.09-10.99c3.57-3,8.03.75,8.03,6.74v21.98c0,5.99-4.46,9.74-8.03,6.74Z"/>
          <g>
            <path class="cls-5" d="m2.19,131.59c.37.88.87,1.68,1.47,2.37l49.74-21.06c-.09-.91-.31-1.82-.68-2.71l-.39-.92L1.8,130.67l.39.92Z"/>
            <path class="cls-8" d="m38.7,101.86l-32.73,13.85c-4.92,2.08-7.27,7.63-5.25,12.39l1.08,2.56,50.53-21.39-1.08-2.56c-2.02-4.76-7.64-6.94-12.55-4.86Z"/>
          </g>
        </g>
        <g>
          <path class="cls-5" d="m322.94,128.39l13.09-10.99c3.57-3,3.57-10.49,0-13.49l-13.09-10.99c-3.57-3-8.03.75-8.03,6.74v21.98c0,5.99,4.46,9.74,8.03,6.74Z"/>
          <g>
            <path class="cls-5" d="m378.09,131.59c-.37.88-.87,1.68-1.47,2.37l-49.74-21.06c.09-.91.31-1.82.68-2.71l.39-.92,50.53,21.39-.39.92Z"/>
            <path class="cls-8" d="m341.59,101.86l32.73,13.85c4.92,2.08,7.27,7.63,5.25,12.39l-1.08,2.56-50.53-21.39,1.08-2.56c2.02-4.76,7.64-6.94,12.55-4.86Z"/>
          </g>
        </g>
      </g>
      <g>
        <rect class="cls-8" x="130.22" y="191.32" width="9.85" height="78.35" rx="4.88" ry="4.88"/>
        <rect class="cls-8" x="157.72" y="191.32" width="9.85" height="78.35" rx="4.88" ry="4.88"/>
        <rect class="cls-8" x="185.22" y="191.32" width="9.85" height="78.35" rx="4.88" ry="4.88"/>
        <rect class="cls-8" x="212.72" y="191.32" width="9.85" height="78.35" rx="4.88" ry="4.88"/>
        <rect class="cls-8" x="240.22" y="191.32" width="9.85" height="78.35" rx="4.88" ry="4.88"/>
      </g>
    </g>
  </g>
</svg>